<svg width="363" height="396" viewBox="0 0 363 396" fill="none" xmlns="http://www.w3.org/2000/svg">
<path d="M199.393 348.98C198.139 349.466 196.859 349.912 195.554 350.317C185.806 353.341 175.864 353.665 166.535 351.715C159.453 350.234 151.651 354.225 150.516 361.371C149.722 366.366 152.5 371.315 157.382 372.637C171.619 376.494 187.085 376.487 202.216 371.794C205.472 370.784 208.619 369.586 211.647 368.216C216.829 365.871 218.596 359.619 216.096 354.509C213.164 348.516 205.615 346.568 199.393 348.98Z" fill="url(#paint0_linear_1416_2310)"/>
<ellipse cx="11.1671" cy="10.9524" rx="11.1671" ry="10.9524" transform="matrix(-0.900275 -0.435321 -0.435321 0.900275 221.969 353.18)" fill="#EDEDFF"/>
<path d="M165.706 46.7415C167.006 46.3952 168.328 46.0913 169.669 45.8317C179.689 43.8916 189.606 44.6556 198.666 47.6143C205.544 49.8605 213.736 46.7459 215.645 39.7668C216.98 34.8888 214.76 29.6656 210.052 27.8176C196.322 22.4278 180.948 20.7439 165.394 23.7552C162.047 24.4033 158.788 25.25 155.629 26.2808C150.221 28.045 147.781 34.0667 149.708 39.419C151.967 45.6975 159.258 48.4588 165.706 46.7415Z" fill="url(#paint1_linear_1416_2310)"/>
<ellipse cx="11.1671" cy="10.9524" rx="11.1671" ry="10.9524" transform="matrix(0.847298 0.531118 0.531118 -0.847298 143.725 40.0989)" fill="#EDEDFF"/>
<path d="M46 199.129C46.7731 276.31 107.146 338.129 181.5 338.129C255.693 338.129 315.958 276.079 316.986 199.129M2 199.129C3.02416 301.297 83.006 383.129 181.509 383.129C279.799 383.129 359.638 300.991 361 199.129" stroke="url(#paint2_linear_1416_2310)" stroke-width="3"/>
<path d="M46 199.129C46 121.257 106.665 58.1287 181.5 58.1287C256.335 58.1287 317 121.257 317 199.129M2 199.129C2 96.4037 82.3649 13.1287 181.5 13.1287C280.635 13.1287 361 96.4037 361 199.129" stroke="url(#paint3_linear_1416_2310)" stroke-width="3"/>
<defs>
<linearGradient id="paint0_linear_1416_2310" x1="203.145" y1="357.789" x2="154.859" y2="364.045" gradientUnits="userSpaceOnUse">
<stop stop-color="#00E291"/>
<stop offset="1" stop-color="#100F0F" stop-opacity="0"/>
</linearGradient>
<linearGradient id="paint1_linear_1416_2310" x1="162.939" y1="37.5743" x2="211.62" y2="36.6344" gradientUnits="userSpaceOnUse">
<stop stop-color="#E0F01E"/>
<stop offset="1" stop-color="#100F0F" stop-opacity="0"/>
</linearGradient>
<linearGradient id="paint2_linear_1416_2310" x1="2" y1="290.467" x2="361.018" y2="290.467" gradientUnits="userSpaceOnUse">
<stop offset="0.58125" stop-color="#00E291"/>
<stop offset="1" stop-color="#E0F01E"/>
</linearGradient>
<linearGradient id="paint3_linear_1416_2310" x1="361" y1="130.533" x2="2" y2="130.533" gradientUnits="userSpaceOnUse">
<stop stop-color="#E0F01E"/>
<stop offset="1" stop-color="#00E291"/>
</linearGradient>
</defs>
</svg>
