<svg width="374" height="374" viewBox="0 0 374 374" fill="none" xmlns="http://www.w3.org/2000/svg">
<path d="M247.107 164.335C236.542 174.885 219.425 174.873 208.876 164.308C198.326 153.744 198.338 136.627 208.902 126.077L325.03 10.1131C335.594 -0.436673 352.711 -0.424649 363.261 10.14C373.811 20.7046 373.799 37.8213 363.234 48.3711L247.107 164.335ZM49.2153 363.757C38.6506 374.307 21.534 374.295 10.9842 363.73C0.434358 353.166 0.446385 336.049 11.011 325.499L127.138 209.535C137.703 198.985 154.819 198.997 165.369 209.562C175.919 220.127 175.907 237.243 165.342 247.793L49.2153 363.757ZM209.732 246.91C199.182 236.345 199.194 219.229 209.758 208.679C220.323 198.129 237.44 198.141 247.99 208.706L363.954 324.833C374.503 335.398 374.491 352.514 363.927 363.064C353.362 373.614 336.246 373.602 325.696 363.037L209.732 246.91ZM10.2967 49.0435C-0.253082 38.4789 -0.241052 21.3622 10.3236 10.8124C20.8882 0.262614 38.0049 0.274643 48.5547 10.8393L164.519 126.966C175.069 137.531 175.057 154.648 164.492 165.198C153.927 175.747 136.811 175.735 126.261 165.171L10.2967 49.0435Z" stroke="white" stroke-width="4.28446"/>
</svg>
