<svg width="40" height="40" viewBox="0 0 40 40" fill="none" xmlns="http://www.w3.org/2000/svg">
<circle cx="20" cy="20" r="20" fill="#0C62FD"/>
<path fill-rule="evenodd" clip-rule="evenodd" d="M16.585 21.2013V31.5841C16.585 31.7631 16.6745 31.8526 16.8535 31.8526H20.9708C21.1498 31.8526 21.2393 31.7631 21.2393 31.5841V21.0223H24.2825C24.4615 21.0223 24.551 20.9328 24.551 20.7538L24.8195 17.5316C24.8195 17.3526 24.73 17.2631 24.551 17.2631H21.2393V15.0254C21.2393 14.4884 21.6868 14.0408 22.3134 14.0408H24.6405C24.909 14.0408 24.9986 13.9513 24.9986 13.7723V10.6396C24.9986 10.4606 24.909 10.3711 24.73 10.3711H20.7918C18.4646 10.3711 16.585 12.0717 16.585 14.2199V17.2631H14.5263C14.3473 17.2631 14.2578 17.3526 14.2578 17.5316V20.7538C14.2578 20.9328 14.3473 21.0223 14.5263 21.0223H16.585V21.2013Z" fill="white"/>
</svg>
