<svg width="40" height="40" viewBox="0 0 40 40" fill="none" xmlns="http://www.w3.org/2000/svg">
<mask id="mask0_4815_12326" style="mask-type:alpha" maskUnits="userSpaceOnUse" x="0" y="0" width="40" height="40">
<ellipse cx="20" cy="20" rx="20" ry="20" fill="#00E291"/>
</mask>
<g mask="url(#mask0_4815_12326)">
<path d="M21.3589 0.0410156C31.5078 0.0410156 39.8114 8.34462 39.8114 18.4935V21.3765C39.8114 31.5254 31.5077 39.829 21.3589 39.829H18.4759C8.32704 39.829 0.0234375 31.5254 0.0234375 21.3765V18.4935C0.0234375 8.34462 8.32704 0.0410156 18.4759 0.0410156H21.3589ZM20.2801 10.0413L20.0234 10.041C18.5862 10.041 17.149 10.0729 16.3614 10.0939C15.9516 10.1048 15.5414 10.1006 15.1339 10.1446C12.5161 10.4273 10.4338 12.4969 10.1318 15.1089C10.0814 15.5444 10.0861 15.9838 10.074 16.422C10.0545 17.1297 10.0272 18.3235 10.0238 19.5714L10.0234 19.829C10.0234 21.3588 10.0574 22.925 10.0782 23.7414C10.088 24.1253 10.0844 24.5097 10.123 24.8918C10.3894 27.5278 12.4665 29.6291 15.0913 29.9326C15.5268 29.983 15.9662 29.9783 16.4044 29.9904C17.1607 30.0113 18.4722 30.041 19.8114 30.041C21.362 30.041 22.9848 30.0061 23.8122 29.9853C24.1847 29.976 24.557 29.9793 24.9279 29.9438C27.5892 29.689 29.6584 27.6269 29.9239 24.9691C29.9625 24.5826 29.9589 24.1934 29.9689 23.8051C29.9898 22.9954 30.0234 21.4604 30.0234 19.9704L30.0221 19.4632C30.0159 18.2082 29.9887 16.9991 29.9702 16.3022C29.9595 15.8967 29.9633 15.4905 29.9212 15.0871C29.6462 12.4538 27.5993 10.4108 24.964 10.1418C24.5693 10.1015 24.1723 10.1052 23.7757 10.0948C23.0225 10.0752 21.6555 10.0448 20.2801 10.0413ZM20.0234 11.841C21.2795 11.841 22.7895 11.8707 23.5447 11.8876C23.8645 11.8947 24.1848 11.892 24.5036 11.9182C26.6219 12.0923 27.9683 13.4361 28.1455 15.5524C28.1726 15.8767 28.1697 16.2022 28.1771 16.5275C28.194 17.2755 28.2234 18.7497 28.2234 19.983C28.2234 21.2617 28.1932 22.8084 28.1764 23.5704C28.1695 23.8848 28.1721 24.1994 28.1468 24.5129C27.9747 26.6467 26.6174 27.9992 24.4798 28.1656C24.1767 28.1891 23.8731 28.1867 23.5692 28.1932C22.8824 28.208 21.5313 28.234 20.3117 28.2398L19.8496 28.2409C18.6813 28.2409 17.3369 28.2133 16.6157 28.1962C16.2673 28.1879 15.9179 28.1914 15.5709 28.159C13.4625 27.9622 12.0773 26.5609 11.9006 24.4404C11.8746 24.1282 11.8774 23.8149 11.8705 23.5016C11.8537 22.7366 11.8234 21.1749 11.8234 19.8671C11.8234 18.6807 11.8519 17.2779 11.8689 16.5446C11.8767 16.2077 11.8734 15.8706 11.9038 15.5351C12.0941 13.4336 13.4867 12.0981 15.5983 11.9194C15.9273 11.8916 16.2575 11.8945 16.5877 11.8869C17.3315 11.87 18.7835 11.841 20.0234 11.841ZM20.0234 14.9184C17.1942 14.9184 14.9008 17.2118 14.9008 20.0409C14.9008 22.87 17.1942 25.1635 20.0234 25.1635C22.8525 25.1635 25.1459 22.87 25.1459 20.0409C25.1459 17.2118 22.8525 14.9184 20.0234 14.9184ZM20.0234 16.7076C21.8643 16.7076 23.3567 18.2 23.3567 20.0409C23.3567 21.8819 21.8643 23.3743 20.0234 23.3743C18.1824 23.3743 16.69 21.8819 16.69 20.0409C16.69 18.2 18.1824 16.7076 20.0234 16.7076ZM25.391 13.4969C24.7075 13.4969 24.1533 14.0538 24.1533 14.7407C24.1533 15.4277 24.7075 15.9846 25.391 15.9846C26.0746 15.9846 26.6287 15.4277 26.6287 14.7407C26.6287 14.0537 26.0746 13.4969 25.391 13.4969Z" fill="#0C62FD"/>
</g>
</svg>
