<svg width="40" height="40" viewBox="0 0 40 40" fill="none" xmlns="http://www.w3.org/2000/svg">
<circle cx="20" cy="20" r="20" fill="#0C62FD"/>
<path d="M27.9558 11.3997C28.6318 11.433 29.1069 12.1649 28.7693 13.4661L24.5444 31.8914C24.248 33.2017 23.5623 33.4867 22.6676 32.8262L15.1177 25.4895C15.0884 25.4619 15.0651 25.4261 15.0499 25.3854C15.0347 25.3446 15.0279 25.2999 15.0301 25.255C15.0323 25.2101 15.0434 25.1663 15.0626 25.1272C15.0818 25.0881 15.1084 25.0548 15.1403 25.0301L24.7377 15.6692C25.1744 15.2515 24.6808 15.0146 24.1158 15.3835L12.2535 23.4213C12.2175 23.4465 12.1773 23.4618 12.1359 23.4659C12.0945 23.47 12.053 23.4628 12.0146 23.4449L7.24847 21.375C6.18774 20.9472 6.23128 20.0637 7.58459 19.4998L27.4563 11.5239C27.6148 11.4433 27.7846 11.4011 27.9558 11.3997Z" fill="white"/>
</svg>
