<svg width="40" height="40" viewBox="0 0 40 40" fill="none" xmlns="http://www.w3.org/2000/svg">
<circle cx="20" cy="20" r="20" fill="#0C62FD"/>
<path fill-rule="evenodd" clip-rule="evenodd" d="M26.851 28.3146C29.5609 28.4133 31.8395 26.3004 31.9453 23.5907V16.5749C31.8395 13.8653 29.5609 11.7523 26.851 11.851H13.5201C10.8102 11.7523 8.5316 13.8653 8.42578 16.5749V23.5907C8.5316 26.3004 10.8102 28.4133 13.5201 28.3146H26.851Z" stroke="white" stroke-width="1.76396" stroke-linecap="round" stroke-linejoin="round"/>
<path fill-rule="evenodd" clip-rule="evenodd" d="M19.6054 16.7607L23.3227 19.2866C23.5635 19.4273 23.7116 19.6852 23.7116 19.964C23.7116 20.2429 23.5635 20.5008 23.3227 20.6413L19.6054 23.4049C18.8998 23.8835 17.832 23.4754 17.832 22.7275V17.4357C17.832 16.6913 18.901 16.282 19.6054 16.7607Z" fill="white"/>
</svg>
