<svg width="66" height="67" viewBox="0 0 66 67" fill="none" xmlns="http://www.w3.org/2000/svg">
<path d="M37.9082 5.13181C35.519 1.9561 30.7584 1.9385 28.3458 5.09642L25.2319 9.17219C24.7549 9.79651 23.9566 10.0837 23.1912 9.9064L18.1945 8.74869C14.3229 7.8517 10.6648 10.8983 10.8465 14.8682L11.081 19.992C11.1169 20.7768 10.69 21.51 9.98965 21.8661L5.41775 24.1911C1.87541 25.9926 1.0314 30.6778 3.7224 33.6021L7.19553 37.3764C7.72754 37.9546 7.87178 38.7906 7.56423 39.5136L5.55643 44.2334C4.00078 47.8904 6.36585 52.022 10.307 52.5324L15.3936 53.1912C16.1728 53.2921 16.8207 53.8399 17.0498 54.5914L18.5456 59.4976C19.7046 63.2989 24.1721 64.9437 27.5192 62.8014L31.8393 60.0364C32.501 59.6129 33.3495 59.616 34.008 60.0444L38.3075 62.8413C41.6388 65.0083 46.1183 63.3967 47.3054 59.604L48.8374 54.7091C49.0721 53.9593 49.724 53.4163 50.5039 53.3212L55.5953 52.7001C59.5401 52.2188 61.9357 48.1048 60.4072 44.4364L58.4344 39.7019C58.1322 38.9767 58.2826 38.1417 58.8189 37.5675L62.3199 33.819C65.0324 30.9147 64.2231 26.2233 60.6942 24.3957L56.1396 22.0369C55.442 21.6756 55.0205 20.9393 55.0622 20.1547L55.3347 15.0329C55.5457 11.0644 51.9102 7.99083 48.0322 8.85913L43.027 9.97981C42.2603 10.1515 41.4641 9.85835 40.9918 9.23052L37.9082 5.13181Z" stroke="#100F0F" stroke-width="4"/>
<circle cx="33.5999" cy="34.5964" r="18.4124" stroke="#100F0F" stroke-width="4"/>
<path d="M37.9657 45.0782C37.465 45.0831 36.9714 44.9618 36.5321 44.726L33.5772 43.1894C33.2509 43.0197 32.8626 43.0183 32.535 43.1857L29.5198 44.726C29.0109 44.9711 28.4435 45.0752 27.8788 45.0271C27.3141 44.979 26.7734 44.7804 26.315 44.4528C25.8566 44.1252 25.4978 43.6809 25.2772 43.1678C25.0566 42.6547 24.9826 42.0922 25.0632 41.5408L25.6161 38.3066C25.6796 37.935 25.5549 37.556 25.283 37.2948L22.8972 35.002C22.4996 34.6028 22.2206 34.1044 22.0905 33.5607C21.9605 33.017 21.9841 32.4486 22.1591 31.9172C22.334 31.3857 22.6535 30.9114 23.0829 30.5455C23.5124 30.1797 24.0355 29.9362 24.5957 29.8414L27.918 29.3732C28.2869 29.3212 28.607 29.0918 28.7748 28.7591L30.2678 25.7987C30.528 25.2913 30.9266 24.8651 31.4192 24.5676C31.9118 24.2701 32.4789 24.1131 33.0571 24.1143C33.63 24.1188 34.1905 24.2784 34.6771 24.5756C35.1637 24.8727 35.5575 25.296 35.8152 25.7987L37.2932 28.7555C37.4606 29.0902 37.7819 29.3212 38.1525 29.3733L41.4874 29.8414C42.0475 29.9362 42.5706 30.1797 43.0001 30.5455C43.4296 30.9114 43.7491 31.3857 43.924 31.9172C44.0989 32.4486 44.1226 33.017 43.9925 33.5607C43.8624 34.1044 43.5835 34.6028 43.1859 35.002L40.7631 37.2923C40.4856 37.5546 40.3583 37.9388 40.4241 38.3149L40.9887 41.5408C41.0912 42.0975 41.0297 42.6713 40.8117 43.1949C40.5936 43.7185 40.2279 44.1699 39.7577 44.4963C39.2415 44.8781 38.6118 45.0826 37.9657 45.0782ZM34.0635 29.2143C33.6514 28.3674 32.4474 28.3597 32.0245 29.2013L30.846 31.5466C30.679 31.879 30.36 32.1088 29.9918 32.1618L27.3785 32.5379C26.4365 32.6735 26.0677 33.8371 26.7595 34.4906L28.6244 36.2522C28.9014 36.5139 29.029 36.8969 28.9642 37.2724L28.5287 39.7976C28.3677 40.7308 29.351 41.4405 30.186 40.9939L32.5301 39.7401C32.86 39.5636 33.2557 39.5607 33.5882 39.7323L35.9239 40.9376C36.7688 41.3737 37.7441 40.6421 37.5618 39.7088L37.0873 37.2802C37.0132 36.9006 37.137 36.5093 37.4161 36.2415L39.2745 34.4578C39.961 33.7989 39.5831 32.6384 38.6402 32.5102L36.0599 32.1592C35.6831 32.108 35.3569 31.8718 35.1905 31.5299L34.0635 29.2143Z" fill="#100F0F"/>
<path d="M37.9657 45.0782C37.465 45.0831 36.9714 44.9618 36.5321 44.726L33.5772 43.1894C33.2509 43.0197 32.8626 43.0183 32.535 43.1857L29.5198 44.726C29.0109 44.9711 28.4435 45.0752 27.8788 45.0271C27.3141 44.979 26.7734 44.7804 26.315 44.4528C25.8566 44.1252 25.4978 43.6809 25.2772 43.1678C25.0566 42.6547 24.9826 42.0922 25.0632 41.5408L25.6161 38.3066C25.6796 37.935 25.5549 37.556 25.283 37.2948L22.8972 35.002C22.4996 34.6028 22.2206 34.1044 22.0905 33.5607C21.9605 33.017 21.9841 32.4486 22.1591 31.9172C22.334 31.3857 22.6535 30.9114 23.0829 30.5455C23.5124 30.1797 24.0355 29.9362 24.5957 29.8414L27.918 29.3732C28.2869 29.3212 28.607 29.0918 28.7748 28.7591L30.2678 25.7987C30.528 25.2913 30.9266 24.8651 31.4192 24.5676C31.9118 24.2701 32.4789 24.1131 33.0571 24.1143C33.63 24.1188 34.1905 24.2784 34.6771 24.5756C35.1637 24.8727 35.5575 25.296 35.8152 25.7987L37.2932 28.7555C37.4606 29.0902 37.7819 29.3212 38.1525 29.3733L41.4874 29.8414C42.0475 29.9362 42.5706 30.1797 43.0001 30.5455C43.4296 30.9114 43.7491 31.3857 43.924 31.9172C44.0989 32.4486 44.1226 33.017 43.9925 33.5607C43.8624 34.1044 43.5835 34.6028 43.1859 35.002L40.7631 37.2923C40.4856 37.5546 40.3583 37.9388 40.4241 38.3149L40.9887 41.5408C41.0912 42.0975 41.0297 42.6713 40.8117 43.1949C40.5936 43.7185 40.2279 44.1699 39.7577 44.4963C39.2415 44.8781 38.6118 45.0826 37.9657 45.0782ZM34.0635 29.2143C33.6514 28.3674 32.4474 28.3597 32.0245 29.2013L30.846 31.5466C30.679 31.879 30.36 32.1088 29.9918 32.1618L27.3785 32.5379C26.4365 32.6735 26.0677 33.8371 26.7595 34.4906L28.6244 36.2522C28.9014 36.5139 29.029 36.8969 28.9642 37.2724L28.5287 39.7976C28.3677 40.7308 29.351 41.4405 30.186 40.9939L32.5301 39.7401C32.86 39.5636 33.2557 39.5607 33.5882 39.7323L35.9239 40.9376C36.7688 41.3737 37.7441 40.6421 37.5618 39.7088L37.0873 37.2802C37.0132 36.9006 37.137 36.5093 37.4161 36.2415L39.2745 34.4578C39.961 33.7989 39.5831 32.6384 38.6402 32.5102L36.0599 32.1592C35.6831 32.108 35.3569 31.8718 35.1905 31.5299L34.0635 29.2143Z" stroke="#100F0F"/>
</svg>
