<svg width="56" height="63" viewBox="0 0 56 63" fill="none" xmlns="http://www.w3.org/2000/svg">
<path d="M13.9141 14.3863C14.1431 12.0909 14.9458 9.89004 16.2484 7.98627C17.551 6.08248 19.3115 4.53697 21.368 3.49198C23.4245 2.44699 25.7107 1.93612 28.0166 2.00638C30.3222 2.07665 32.5731 2.72578 34.5621 3.89405C36.5511 5.06234 38.2144 6.71218 39.3986 8.69176C40.5828 10.6713 41.2501 12.917 41.3389 15.222C41.4277 17.5271 40.9353 19.8174 39.9069 21.8822C38.8979 23.9082 37.4046 25.6532 35.5604 26.963" stroke="#100F0F" stroke-width="4" stroke-linecap="round" stroke-linejoin="round"/>
<path d="M15.7852 8.81592C17.9133 11.0129 20.4615 12.7595 23.2783 13.9517C26.0951 15.144 29.123 15.7575 32.1818 15.7558C35.1901 15.7588 38.1685 15.1664 40.9455 14.0136" stroke="#100F0F" stroke-width="4" stroke-linecap="round" stroke-linejoin="round"/>
<path d="M24.6469 25.5767C23.8702 25.5767 23.1107 25.807 22.4646 26.2388C21.8186 26.6703 21.3151 27.2839 21.0178 28.0018C20.7204 28.7193 20.6427 29.5092 20.7942 30.2712C20.9458 31.0333 21.3199 31.7333 21.8693 32.2825C22.4187 32.8319 23.1185 33.2062 23.8806 33.3578C24.6427 33.5092 25.4325 33.4314 26.1504 33.1342C26.8682 32.8369 27.4815 32.3333 27.9131 31.6873C28.345 31.0414 28.5752 30.2817 28.5752 29.505C28.5752 28.4632 28.1614 27.4638 27.4247 26.7272C26.688 25.9905 25.6889 25.5767 24.6469 25.5767Z" stroke="#100F0F" stroke-width="4" stroke-linecap="round" stroke-linejoin="round"/>
<path d="M8.93359 18.8252V21.6483C8.93359 23.732 9.76133 25.7303 11.2347 27.2037C12.7081 28.6771 14.7064 29.5049 16.7901 29.5049H20.5174" stroke="#100F0F" stroke-width="4" stroke-linecap="round" stroke-linejoin="round"/>
<path d="M53.1322 60.9309C53.1325 56.2604 51.8503 51.6798 49.4258 47.6882C47.0112 43.7125 43.5559 40.473 39.4336 38.3198" stroke="#100F0F" stroke-width="4" stroke-linecap="round" stroke-linejoin="round"/>
<path d="M2.06641 60.9312C2.06588 56.2613 3.34718 51.6812 5.77062 47.6893C8.18197 43.7176 11.6321 40.4802 15.7481 38.3262" stroke="#100F0F" stroke-width="4" stroke-linecap="round" stroke-linejoin="round"/>
</svg>
