<svg width="65" height="63" viewBox="0 0 65 63" fill="none" xmlns="http://www.w3.org/2000/svg">
<path d="M62.824 13.8311C56.4302 7.34318 46.0177 2.99089 34.17 2.71639C21.0098 2.41148 9.38557 7.21445 2.95736 14.6305" stroke="#100F0F" stroke-width="4" stroke-linecap="round"/>
<path d="M62.8355 49.8106C56.4268 56.2838 46.0043 60.6121 34.1559 60.8593C20.9951 61.1339 9.38195 56.3041 2.97086 48.8733" stroke="#100F0F" stroke-width="4" stroke-linecap="round"/>
<path d="M40.3462 47.7002C39.5699 47.7079 38.8045 47.5164 38.1232 47.1438L33.2626 44.5691C32.9321 44.3941 32.5368 44.3926 32.2051 44.5652L27.2499 47.1438C26.4606 47.5311 25.5809 47.6955 24.7052 47.6195C23.8296 47.5435 22.9912 47.2298 22.2804 46.7123C21.5696 46.1948 21.0132 45.4931 20.6712 44.6826C20.3291 43.8721 20.2144 42.9835 20.3393 42.1126L21.2558 36.6511C21.3174 36.2841 21.1956 35.9103 20.9298 35.65L16.9806 31.784C16.3641 31.1535 15.9316 30.3662 15.7299 29.5074C15.5281 28.6485 15.5649 27.7508 15.8361 26.9113C16.1073 26.0718 16.6027 25.3226 17.2687 24.7447C17.9346 24.1668 18.7458 23.7822 19.6144 23.6325L25.087 22.8467C25.4578 22.7935 25.7785 22.5612 25.9447 22.2255L28.4097 17.2467C28.8131 16.4452 29.4313 15.7719 30.1951 15.302C30.959 14.8321 31.8383 14.5842 32.7349 14.5859C33.6232 14.5931 34.4923 14.8452 35.2468 15.3146C36.0013 15.784 36.612 16.4525 37.0117 17.2467L39.4531 22.2219C39.6188 22.5596 39.9408 22.7936 40.3132 22.8468L45.807 23.6325C46.6756 23.7822 47.4867 24.1668 48.1527 24.7447C48.8187 25.3226 49.3141 26.0718 49.5853 26.9113C49.8565 27.7508 49.8933 28.6485 49.6915 29.5074C49.4898 30.3662 49.0573 31.1535 48.4408 31.784L44.4289 35.6474C44.1574 35.9089 44.033 36.2879 44.0968 36.6593L45.0338 42.1126C45.1927 42.9919 45.0974 43.8984 44.7593 44.7254C44.4211 45.5524 43.8541 46.2655 43.1249 46.781C42.3245 47.3842 41.3481 47.7072 40.3462 47.7002ZM33.7448 21.4893C33.3355 20.6325 32.1185 20.6248 31.6984 21.4764L29.1571 26.6285C28.9917 26.9638 28.672 27.1964 28.3021 27.2507L22.6102 28.0853C21.6748 28.2225 21.3053 29.3747 21.9866 30.0302L26.116 34.0038C26.387 34.2646 26.5116 34.6425 26.4488 35.0133L25.4903 40.6741C25.3318 41.6102 26.3223 42.317 27.156 41.8627L32.2003 39.1142C32.5342 38.9322 32.9371 38.9292 33.2737 39.1062L38.3274 41.763C39.1709 42.2065 40.1532 41.478 39.9737 40.542L38.9149 35.0209C38.843 34.646 38.9639 34.2601 39.2368 33.9933L43.3511 29.9708C44.0271 29.3099 43.6485 28.1607 42.712 28.0309L37.0623 27.248C36.6837 27.1956 36.3568 26.9565 36.1921 26.6117L33.7448 21.4893Z" fill="#100F0F"/>
<path d="M40.3462 47.7002C39.5699 47.7079 38.8045 47.5164 38.1232 47.1438L33.2626 44.5691C32.9321 44.3941 32.5368 44.3926 32.2051 44.5652L27.2499 47.1438C26.4606 47.5311 25.5809 47.6955 24.7052 47.6195C23.8296 47.5435 22.9912 47.2298 22.2804 46.7123C21.5696 46.1948 21.0132 45.4931 20.6712 44.6826C20.3291 43.8721 20.2144 42.9835 20.3393 42.1126L21.2558 36.6511C21.3174 36.2841 21.1956 35.9103 20.9298 35.65L16.9806 31.784C16.3641 31.1535 15.9316 30.3662 15.7299 29.5074C15.5281 28.6485 15.5649 27.7508 15.8361 26.9113C16.1073 26.0718 16.6027 25.3226 17.2687 24.7447C17.9346 24.1668 18.7458 23.7822 19.6144 23.6325L25.087 22.8467C25.4578 22.7935 25.7785 22.5612 25.9447 22.2255L28.4097 17.2467C28.8131 16.4452 29.4313 15.7719 30.1951 15.302C30.959 14.8321 31.8383 14.5842 32.7349 14.5859C33.6232 14.5931 34.4923 14.8452 35.2468 15.3146C36.0013 15.784 36.612 16.4525 37.0117 17.2467L39.4531 22.2219C39.6188 22.5596 39.9408 22.7936 40.3132 22.8468L45.807 23.6325C46.6756 23.7822 47.4867 24.1668 48.1527 24.7447C48.8187 25.3226 49.3141 26.0718 49.5853 26.9113C49.8565 27.7508 49.8933 28.6485 49.6915 29.5074C49.4898 30.3662 49.0573 31.1535 48.4408 31.784L44.4289 35.6474C44.1574 35.9089 44.033 36.2879 44.0968 36.6593L45.0338 42.1126C45.1927 42.9919 45.0974 43.8984 44.7593 44.7254C44.4211 45.5524 43.8541 46.2655 43.1249 46.781C42.3245 47.3842 41.3481 47.7072 40.3462 47.7002ZM33.7448 21.4893C33.3355 20.6325 32.1185 20.6248 31.6984 21.4764L29.1571 26.6285C28.9917 26.9638 28.672 27.1964 28.3021 27.2507L22.6102 28.0853C21.6748 28.2225 21.3053 29.3747 21.9866 30.0302L26.116 34.0038C26.387 34.2646 26.5116 34.6425 26.4488 35.0133L25.4903 40.6741C25.3318 41.6102 26.3223 42.317 27.156 41.8627L32.2003 39.1142C32.5342 38.9322 32.9371 38.9292 33.2737 39.1062L38.3274 41.763C39.1709 42.2065 40.1532 41.478 39.9737 40.542L38.9149 35.0209C38.843 34.646 38.9639 34.2601 39.2368 33.9933L43.3511 29.9708C44.0271 29.3099 43.6485 28.1607 42.712 28.0309L37.0623 27.248C36.6837 27.1956 36.3568 26.9565 36.1921 26.6117L33.7448 21.4893Z" stroke="#100F0F"/>
</svg>
