<svg width="59" height="59" viewBox="0 0 59 59" fill="none" xmlns="http://www.w3.org/2000/svg">
<path d="M16.2916 45.5332C19.228 45.5332 21.6083 43.1529 21.6083 40.2166C21.6083 37.2803 19.228 34.8999 16.2916 34.8999C13.3553 34.8999 10.975 37.2803 10.975 40.2166C10.975 43.1529 13.3553 45.5332 16.2916 45.5332Z" stroke="#100F0F" stroke-width="5" stroke-linecap="round" stroke-linejoin="round"/>
<path d="M40.2188 21.6087C44.6232 21.6087 48.1938 18.0382 48.1938 13.6337C48.1938 9.22922 44.6232 5.65869 40.2188 5.65869C35.8143 5.65869 32.2438 9.22922 32.2438 13.6337C32.2438 18.0382 35.8143 21.6087 40.2188 21.6087Z" stroke="#100F0F" stroke-width="5" stroke-linecap="round" stroke-linejoin="round"/>
<path d="M45.5271 56.1666C51.3997 56.1666 56.1604 51.4059 56.1604 45.5332C56.1604 39.6606 51.3997 34.8999 45.5271 34.8999C39.6544 34.8999 34.8937 39.6606 34.8937 45.5332C34.8937 51.4059 39.6544 56.1666 45.5271 56.1666Z" stroke="#100F0F" stroke-width="5" stroke-linecap="round" stroke-linejoin="round"/>
<path d="M8.31667 13.6333C11.253 13.6333 13.6333 11.253 13.6333 8.31667C13.6333 5.38035 11.253 3 8.31667 3C5.38035 3 3 5.38035 3 8.31667C3 11.253 5.38035 13.6333 8.31667 13.6333Z" stroke="#100F0F" stroke-width="5" stroke-linecap="round" stroke-linejoin="round"/>
<path d="M34.9044 45.5337L20.9688 42.7466" stroke="#100F0F" stroke-width="5" stroke-linecap="round" stroke-linejoin="round"/>
<path d="M42.7687 21.1826L46.2706 34.944" stroke="#100F0F" stroke-width="5" stroke-linecap="round" stroke-linejoin="round"/>
<path d="M13.6312 8.31689L32.6757 11.0375" stroke="#100F0F" stroke-width="5" stroke-linecap="round" stroke-linejoin="round"/>
<path d="M15.6138 34.9439C16.2941 34.8995 9.27502 13.5459 9.27502 13.5459" stroke="#100F0F" stroke-width="5" stroke-linecap="round" stroke-linejoin="round"/>
</svg>
