<svg width="68" height="72" viewBox="0 0 68 72" fill="none" xmlns="http://www.w3.org/2000/svg">
<path d="M34.6621 14.6477H41.5946" stroke="#100F0F" stroke-width="4"/>
<path d="M34.6621 57.6294H41.5946" stroke="#100F0F" stroke-width="4"/>
<path d="M34.8008 26.0173H47.3568C50.0324 26.0173 52.6623 25.3234 54.9896 24.0034L60.7285 20.7485" stroke="#100F0F" stroke-width="4"/>
<path d="M34.8008 46.2601H47.3568C50.0324 46.2601 52.6623 46.954 54.9896 48.2739L60.7285 51.5288" stroke="#100F0F" stroke-width="4"/>
<path d="M31.8479 69.2985C15.0657 67.4827 2 53.2658 2 35.9999C2 18.7341 15.0657 4.51723 31.8479 2.70142C32.6425 2.61545 33.4946 3.2772 33.4946 4.37594V4.49615V4.61627V4.7363V4.85622V4.97605V5.09579V5.21543V5.33498V5.45444V5.5738V5.69308V5.81226V5.93135V6.05035V6.16927V6.28809V6.40683V6.52548V6.64405V6.76252V6.88092V6.99923V7.11746V7.2356V7.35366V7.47164V7.58954V7.70735V7.82509V7.94275V8.06033V8.17783V8.29526V8.41261V8.52988V8.64708V8.7642V8.88125V8.99823V9.11513V9.23196V9.34872V9.46541V9.58203V9.69858V9.81506V9.93147V10.0478V10.1641V10.2803V10.3965V10.5125V10.6286V10.7445V10.8604V10.9762V11.092V11.2077V11.3234V11.4389V11.5545V11.6699V11.7853V11.9007V12.016V12.1312V12.2464V12.3616V12.4766V12.5917V12.7066V12.8216V12.9364V13.0512V13.166V13.2807V13.3954V13.51V13.6246V13.7391V13.8536V13.9681V14.0824V14.1968V14.3111V14.4254V14.5396V14.6538V14.7679V14.882V14.9961V15.1101V15.2241V15.338V15.4519V15.5658V15.6796V15.7934V15.9072V16.0209V16.1346V16.2483V16.3619V16.4755V16.5891V16.7026V16.8161V16.9296V17.0431V17.1565V17.2699V17.3833V17.4966V17.61V17.7233V17.8365V17.9498V18.063V18.1763V18.2894V18.4026V18.5158V18.6289V18.742V18.8551V18.9682V19.0813V19.1943V19.3073V19.4204V19.5334V19.6464V19.7593V19.8723V19.9853V20.0982V20.2112V20.3241V20.437V20.5499V20.6628V20.7757V20.8886V21.0015V21.1144V21.2273V21.3401V21.453V21.5659V21.6788V21.7916V21.9045V22.0174V22.1302V22.2431V22.356V22.4689V22.5818V22.6946V22.8075V22.9204V23.0333V23.1463V23.2592V23.3721V23.485V23.598V23.7109V23.8239V23.9369V24.0499V24.1629V24.2759V24.3889V24.502V24.615V24.7281V24.8412V24.9543V25.0675V25.1806V25.2938V25.407V25.5202V25.6334V25.7467V25.86V25.9733V26.0866V26.1999V26.3133V26.4267V26.5401V26.6536V26.7671V26.8806V26.9941V27.1077V27.2213V27.3349V27.4486V27.5623V27.676V27.7898V27.9035V28.0174V28.1312V28.2451V28.3591V28.4731V28.5871V28.7011V28.8152V28.9294V29.0435V29.1577V29.272V29.3863V29.5006V29.615V29.7295V29.8439V29.9585V30.073V30.1877V30.3023V30.417V30.5318V30.6466V30.7615V30.8764V30.9914V31.1064V31.2215V31.3366V31.4518V31.567V31.6823V31.7976V31.913V32.0285V32.144V32.2596V32.3752V32.4909V32.6067V32.7225V32.8384V32.9544V33.0704V33.1864V33.3026V33.4188V33.5351V33.6514V33.7678V33.8843V34.0008V34.1174V34.2341V34.3509V34.4677V34.5846V34.7015V34.8186V34.9357V35.0529V35.1702V35.2875V35.4049V35.5224V35.64V35.7576V35.8754V35.9932V36.111V36.229V36.3471V36.4652V36.5834V36.7017V36.8201V36.9386V37.0571V37.1758V37.2945V37.4133V37.5322V37.6512V37.7703V37.8895V38.0087V38.1281V38.2475V38.3671V38.4867V38.6064V38.7262V38.8462V38.9662V39.0863V39.2065V39.3268V39.4472V39.5677V39.6883V39.809V39.9298V40.0507V40.1717V40.2928V40.414V40.5353V40.6568V40.7783V40.8999V41.0217V41.1435V41.2655V41.3875V41.5097V41.632V41.7544V41.8769V41.9995V42.1223V42.2451V42.3681V42.4911V42.6143V42.7376V42.8611V42.9846V43.1083V43.232V43.3559V43.4799V43.6041V43.7283V43.8527V43.9772V44.1018V44.2266V44.3515V44.4765V44.6016V44.7268V44.8522V44.9777V45.1034V45.2291V45.355V45.481V45.6072V45.7335V45.8599V45.9864V46.1131V46.2399V46.3669V46.494V46.6212V46.7486V46.876V47.0037V47.1315V47.2594V47.3874V47.5156V47.644V47.7724V47.9011V48.0298V48.1587V48.2878V48.417V48.5463V48.6758V48.8054V48.9352V49.0652V49.1952V49.3255V49.4559V49.5864V49.7171V49.8479V49.9789V50.11V50.2413V50.3728V50.5044V50.6362V50.7681V50.9002V51.0324V51.1648V51.2973V51.4301V51.5629V51.696V51.8292V51.9625V52.0961V52.2297V52.3636V52.4976V52.6318V52.7662V52.9007V53.0354V53.1702V53.3052V53.4404V53.5758V53.7113V53.847V53.9829V54.119V54.2552V54.3916V54.5282V54.6649V54.8018V54.9389V55.0762V55.2137V55.3513V55.4891V55.6271V55.7653V55.9037V56.0422V56.181V56.3199V56.459V56.5982V56.7377V56.8773V57.0172V57.1572V57.2974V57.4378V57.5784V57.7192V57.8602V58.0013V58.1427V58.2842V58.426V58.5679V58.71V58.8523V58.9949V59.1376V59.2805V59.4236V59.5669V59.7104V59.8541V59.998V60.1421V60.2864V60.4309V60.5756V60.7206V60.8657V61.011V61.1565V61.3023V61.4482V61.5944V61.7407V61.8873V62.0341V62.1811V62.3283V62.4757V62.6233V62.7711V62.9192V63.0674V63.2159V63.3646V63.5135V63.6626V63.812V63.9615V64.1113V64.2613V64.4115V64.5619V64.7126V64.8635V65.0146V65.1659V65.3174V65.4692V65.6212V65.7734V65.9259V66.0786V66.2315V66.3846V66.5379V66.6915V66.8454V66.9994V67.1537V67.3082V67.4629V67.6179C33.4946 68.7212 32.6383 69.384 31.8479 69.2985Z" stroke="#100F0F" stroke-width="4"/>
<path d="M24 4.5C19.4723 14.1039 13.1334 38.5493 24 67.5" stroke="#100F0F" stroke-width="4" stroke-linecap="round"/>
<path d="M14.0039 59.7264C16.3148 55.2896 22.6557 46.3328 34.5242 46" stroke="#100F0F" stroke-width="4"/>
<path d="M34.8033 25.4179C29.8055 25.6351 19.2569 23.5411 13.0344 13.4291" stroke="#100F0F" stroke-width="4"/>
<path d="M1.38672 36.1387H55.5991" stroke="#100F0F" stroke-width="4"/>
<circle cx="44.228" cy="14.5092" r="3.46627" stroke="#100F0F" stroke-width="3"/>
<circle cx="3.46627" cy="3.46627" r="3.46627" transform="matrix(1 0 0 -1 40.7617 61.2344)" stroke="#100F0F" stroke-width="3"/>
<circle cx="62.5327" cy="19.2233" r="3.46627" stroke="#100F0F" stroke-width="3"/>
<circle cx="3.46627" cy="3.46627" r="3.46627" transform="matrix(1 0 0 -1 59.0654 56.5203)" stroke="#100F0F" stroke-width="3"/>
<circle cx="58.0922" cy="35.8615" r="3.46627" stroke="#100F0F" stroke-width="3"/>
</svg>
