<svg width="76" height="75" viewBox="0 0 76 75" fill="none" xmlns="http://www.w3.org/2000/svg">
<circle cx="21.1592" cy="21.1553" r="6.87116" transform="(-45 21.1592 21.1553)" stroke="#100F0F" stroke-width="3.74329"/>
<circle cx="21.1551" cy="21.1553" r="13.0874" transform="rotate(-45 21.1551 21.1553)" stroke="#100F0F" stroke-width="3.74329"/>
<path d="M61.1518 72.9079C68.187 72.9079 73.9277 67.1673 73.9277 60.132V51.6148C73.9277 44.5795 68.187 38.8389 61.1518 38.8389C54.1165 38.8389 48.3759 44.5795 48.3759 51.6148V60.132C48.3759 67.1673 54.1165 72.9079 61.1518 72.9079Z" stroke="#100F0F" stroke-width="3.74329" stroke-linecap="round" stroke-linejoin="round"/>
<path d="M61.152 54.1701C59.7381 54.1701 58.5968 53.0288 58.5968 51.6149V48.208C58.5968 46.7941 59.7381 45.6528 61.152 45.6528C62.5488 45.6528 63.7072 46.7941 63.7072 48.208V51.6149C63.7072 53.0288 62.5488 54.1701 61.152 54.1701Z" stroke="#100F0F" stroke-width="3.74329" stroke-linecap="round" stroke-linejoin="round"/>
<path d="M61.152 45.6527V38.8389" stroke="#100F0F" stroke-width="3.74329" stroke-linecap="round" stroke-linejoin="round"/>
<path d="M21.1216 34.7502V59.28C21.1216 62.4598 22.8932 68.8193 29.9795 68.8193C42.5851 68.8193 39.1782 41.2234 42.9258 19.4192C43.6072 17.0343 46.4008 12.2646 52.1244 12.2646C53.8729 12.2646 55.3267 12.7097 56.5189 13.396C60.9475 15.945 60.9824 22.0004 60.9824 27.1102V44.6303" stroke="#100F0F" stroke-width="3.74329" stroke-linecap="round"/>
</svg>
