<svg width="71" height="71" viewBox="0 0 71 71" fill="none" xmlns="http://www.w3.org/2000/svg">
<path d="M51.5733 53.069C51.5735 50.1509 50.7724 47.289 49.2576 44.7951C47.749 42.3112 45.5902 40.2872 43.0146 38.9419" stroke="#100F0F" stroke-width="4" stroke-linecap="round" stroke-linejoin="round"/>
<path d="M19.6689 53.0691C19.6686 50.1514 20.4692 47.2898 21.9833 44.7957C23.4899 42.3143 25.6454 40.2916 28.2171 38.9458" stroke="#100F0F" stroke-width="4" stroke-linecap="round" stroke-linejoin="round"/>
<path d="M42.924 25.1396C42.924 29.7127 39.3852 33.2791 35.19 33.2791C30.9948 33.2791 27.4561 29.7127 27.4561 25.1396C27.4561 20.5665 30.9948 17 35.19 17C39.3852 17 42.924 20.5665 42.924 25.1396Z" stroke="#100F0F" stroke-width="4"/>
<path d="M69 35.5C69 16.9985 54.0015 2 35.5 2" stroke="#100F0F" stroke-width="4" stroke-linecap="round"/>
<path d="M35.5 69C16.9985 69 2 54.0015 2 35.5" stroke="#100F0F" stroke-width="4" stroke-linecap="round"/>
</svg>
