<svg width="1898" height="794" viewBox="0 0 1898 794" fill="none" xmlns="http://www.w3.org/2000/svg">
<g opacity="0.7">
<path d="M1269.3 116.674C1268.1 116.482 1266.88 116.33 1265.65 116.219C1256.48 115.393 1247.65 116.984 1239.78 120.468C1233.81 123.113 1226.17 121.065 1223.82 114.973C1222.18 110.715 1223.69 105.823 1227.75 103.734C1239.59 97.6403 1253.24 94.7243 1267.48 96.0074C1270.54 96.2836 1273.54 96.7462 1276.48 97.3831C1281.49 98.4732 1284.23 103.657 1282.99 108.639C1281.54 114.482 1275.24 117.627 1269.3 116.674Z" fill="url(#paint0_linear_567_1416)"/>
<path d="M1167.49 266.237C1149.45 209.519 1180.81 148.919 1237.53 130.882C1294.24 112.845 1354.84 144.202 1372.88 200.919C1376.98 213.801 1389.38 234.226 1405.38 228.91C1421.37 223.595 1416.78 201.166 1412.68 188.264C1387.65 109.569 1303.57 66.0613 1224.87 91.0876C1146.18 116.114 1102.67 200.197 1127.7 278.892" stroke="url(#paint1_linear_567_1416)" stroke-width="2.69409"/>
<ellipse cx="1274.77" cy="107.974" rx="10.8707" ry="10.6617" transform="rotate(-89.4425 1274.77 107.974)" fill="#EDEDFF"/>
<path d="M217.521 273.609C152.189 282.587 106.506 342.827 115.484 408.159C124.462 473.491 184.702 519.175 250.034 510.197C264.873 508.158 291.216 510.837 293.519 529.37C295.822 547.904 271.195 553.993 256.333 556.036C165.685 568.493 82.1018 505.107 69.6445 414.458C57.1873 323.81 120.574 240.227 211.222 227.77" stroke="url(#paint2_linear_567_1416)" stroke-width="2.98515"/>
<path d="M1795.71 376.539C1796.08 375.281 1796.4 374.002 1796.69 372.703C1798.79 362.993 1798.27 353.325 1795.59 344.443C1793.55 337.7 1796.76 329.796 1803.6 328.091C1808.37 326.899 1813.41 329.174 1815.1 333.796C1820.05 347.277 1821.35 362.276 1818.08 377.347C1817.37 380.59 1816.48 383.743 1815.41 386.795C1813.57 392.019 1807.66 394.262 1802.49 392.27C1796.43 389.933 1793.9 382.777 1795.71 376.539Z" fill="url(#paint3_linear_567_1416)"/>
<path d="M1688.25 477.747C1751.68 467.84 1795.07 408.391 1785.16 344.965C1775.25 281.538 1715.81 238.152 1652.38 248.059C1637.97 250.309 1612.29 248.172 1609.71 230.175C1607.14 212.178 1631 205.811 1645.43 203.557C1733.43 189.811 1815.92 250.009 1829.66 338.014C1843.41 426.018 1783.21 508.503 1695.21 522.249" stroke="url(#paint4_linear_567_1416)" stroke-width="2.90591"/>
<ellipse cx="1805.3" cy="383.284" rx="10.8707" ry="10.6617" transform="rotate(-120.79 1805.3 383.284)" fill="#EDEDFF"/>
<path d="M853.636 170.301C855.486 236.221 803.548 291.16 737.628 293.01C671.708 294.861 616.769 242.922 614.918 177.002C614.498 162.03 607.537 136.482 588.877 137.248C570.217 138.014 568.246 163.305 568.667 178.301C571.234 269.765 647.462 341.83 738.926 339.262C830.39 336.694 902.455 260.467 899.888 169.002" stroke="url(#paint5_linear_567_1416)" stroke-width="2.98515"/>
<path d="M753.393 302.851C752.139 303.337 750.859 303.784 749.554 304.188C739.806 307.212 729.864 307.537 720.535 305.586C713.453 304.105 705.651 308.096 704.516 315.242C703.722 320.237 706.5 325.186 711.382 326.508C725.619 330.365 741.085 330.358 756.216 325.665C759.472 324.655 762.619 323.457 765.647 322.087C770.829 319.743 772.596 313.49 770.096 308.381C767.164 302.387 759.615 300.439 753.393 302.851Z" fill="url(#paint6_linear_567_1416)"/>
<ellipse cx="11.1671" cy="10.9524" rx="11.1671" ry="10.9524" transform="matrix(-0.900275 -0.435321 -0.435321 0.900275 775.969 307.051)" fill="#EDEDFF"/>
<path d="M587.678 603.541C585.828 537.621 637.766 482.682 703.686 480.831C769.607 478.981 824.545 530.919 826.396 596.84C826.816 611.812 833.777 637.359 852.437 636.594C871.097 635.828 873.068 610.537 872.647 595.541C870.08 504.077 793.852 432.012 702.388 434.58C610.924 437.147 538.859 513.375 541.427 604.839" stroke="url(#paint7_linear_567_1416)" stroke-width="2.98515"/>
<path d="M687.921 470.991C689.176 470.504 690.456 470.058 691.76 469.653C701.509 466.63 711.45 466.305 720.779 468.256C727.861 469.737 735.663 465.745 736.798 458.599C737.592 453.605 734.814 448.655 729.933 447.333C715.695 443.476 700.229 443.483 685.098 448.176C681.842 449.186 678.696 450.384 675.667 451.754C670.485 454.099 668.718 460.351 671.218 465.461C674.15 471.455 681.699 473.403 687.921 470.991Z" fill="url(#paint8_linear_567_1416)"/>
<ellipse cx="11.1671" cy="10.9524" rx="11.1671" ry="10.9524" transform="matrix(0.900275 0.435321 0.435321 -0.900275 665.345 466.791)" fill="#EDEDFF"/>
<path d="M1131.68 557.301C1129.83 623.221 1181.77 678.16 1247.69 680.01C1313.61 681.861 1368.55 629.922 1370.4 564.002C1370.82 549.03 1377.78 523.482 1396.44 524.248C1415.1 525.014 1417.07 550.305 1416.65 565.301C1414.08 656.765 1337.85 728.83 1246.39 726.262C1154.92 723.694 1082.86 647.467 1085.43 556.002" stroke="url(#paint9_linear_567_1416)" stroke-width="2.98515"/>
<path d="M1231.92 689.851C1233.18 690.337 1234.46 690.784 1235.76 691.188C1245.51 694.212 1255.45 694.537 1264.78 692.586C1271.86 691.105 1279.66 695.096 1280.8 702.242C1281.59 707.237 1278.81 712.186 1273.93 713.508C1259.7 717.365 1244.23 717.358 1229.1 712.665C1225.84 711.655 1222.7 710.457 1219.67 709.087C1214.48 706.743 1212.72 700.49 1215.22 695.381C1218.15 689.387 1225.7 687.439 1231.92 689.851Z" fill="url(#paint10_linear_567_1416)"/>
<ellipse cx="1224.17" cy="699.05" rx="11.1671" ry="10.9524" transform="rotate(-25.8057 1224.17 699.05)" fill="#EDEDFF"/>
</g>
    <g filter="url(#filter0_d_567_1416)">
        <rect x="176" y="123" width="471" height="196" rx="20" fill="#100F0F" shape-rendering="crispEdges"/>
        <text x="200" y="150" fill="white" font-size="24">01</text>
        <text x="200" y="180" fill="white" font-size="16">List of handpicked High Scale Affiliates and Teams worldwide</text>
        <rect x="175.5" y="122.5" width="472" height="197" rx="20.5" stroke="#0C62FD" shape-rendering="crispEdges"/>
    </g>
<g filter="url(#filter1_d_567_1416)">
<rect x="810" y="123" width="366" height="156" rx="20" fill="#100F0F" shape-rendering="crispEdges"/>
<path d="M846.968 183.61C838.74 183.61 833.223 177.897 833.223 169.377C833.223 156.438 840.84 147.16 851.484 147.16C859.81 147.16 865.352 152.824 865.352 161.296C865.352 174.235 857.637 183.61 846.968 183.61ZM843.672 169.133C843.672 173.454 844.941 175.725 847.383 175.725C851.338 175.725 854.902 169.011 854.902 161.564C854.902 157.268 853.608 155.046 851.094 155.046C847.163 155.046 843.672 161.687 843.672 169.133ZM869.966 159.221C870.405 152.263 876.802 147.16 885.103 147.16C892.72 147.16 898.188 151.359 898.188 157.219C898.188 161.711 896.04 164.299 886.519 171.159L881.196 174.992L881.172 175.188H894.99L893.33 183H865.815L867.378 175.896L879.536 167.009C886.665 161.784 888.105 160.319 888.105 158.098C888.105 156.218 886.543 154.948 884.37 154.948C881.758 154.948 879.829 156.462 879.292 159.221H869.966Z" fill="#E0F01E"/>
<path d="M845.718 254L843.784 248.287H835.728L833.794 254H830.381L838.013 232.862H841.558L849.189 254H845.718ZM839.712 236.378L836.562 245.65H842.949L839.8 236.378H839.712ZM851.138 254V238.59H854.155V241.168H854.229C855.063 239.41 856.704 238.326 859.077 238.326C862.476 238.326 864.424 240.494 864.424 244.024V254H861.245V244.64C861.245 242.325 860.161 241.051 857.964 241.051C855.737 241.051 854.302 242.633 854.302 245.021V254H851.138ZM869.009 259.742C868.76 259.742 867.954 259.713 867.72 259.669V257.105C867.954 257.164 868.481 257.164 868.745 257.164C870.225 257.164 871.001 256.549 871.484 254.967C871.484 254.938 871.763 254.029 871.763 254.015L866.196 238.59H869.624L873.535 251.129H873.579L877.49 238.59H880.83L875.044 254.806C873.726 258.541 872.217 259.742 869.009 259.742ZM907.373 245.211C907.373 250.938 903.989 254.352 898.262 254.352C892.212 254.352 888.403 250.118 888.403 243.336C888.403 236.671 892.197 232.511 898.218 232.511C902.92 232.511 906.479 235.294 907.212 239.513H903.843C903.052 236.891 900.986 235.382 898.232 235.382C894.189 235.382 891.758 238.341 891.758 243.307C891.758 248.36 894.263 251.48 898.291 251.48C901.719 251.48 904.092 249.283 904.136 246.075V245.709H898.672V243.058H907.373V245.211ZM923.999 251.158V254H910.581V232.862H923.999V235.689H913.862V241.871H923.457V244.596H913.862V251.158H923.999ZM936.509 232.511C942.588 232.511 946.411 236.715 946.411 243.438C946.411 250.162 942.588 254.352 936.509 254.352C930.415 254.352 926.606 250.162 926.606 243.438C926.606 236.715 930.415 232.511 936.509 232.511ZM936.509 235.396C932.495 235.396 929.961 238.502 929.961 243.438C929.961 248.36 932.495 251.466 936.509 251.466C940.522 251.466 943.042 248.36 943.042 243.438C943.042 238.502 940.522 235.396 936.509 235.396ZM958.921 254H955.64V232.862H968.838V235.689H958.921V242.384H968.003V245.152H958.921V254ZM971.313 254V238.59H974.331V241.212H974.404C974.917 239.41 976.294 238.341 978.11 238.341C978.564 238.341 978.96 238.414 979.194 238.458V241.402C978.945 241.3 978.389 241.227 977.773 241.227C975.737 241.227 974.478 242.589 974.478 244.771V254H971.313ZM986.929 240.86C984.717 240.86 983.164 242.545 983.003 244.874H990.708C990.635 242.516 989.141 240.86 986.929 240.86ZM990.693 249.474H993.696C993.257 252.286 990.591 254.293 987.061 254.293C982.534 254.293 979.795 251.231 979.795 246.368C979.795 241.534 982.578 238.312 986.929 238.312C991.206 238.312 993.872 241.329 993.872 246.002V247.086H982.988V247.276C982.988 249.957 984.6 251.729 987.134 251.729C988.936 251.729 990.269 250.821 990.693 249.474ZM996.055 242.955C996.055 240.201 998.486 238.312 1002.09 238.312C1005.52 238.312 1007.92 240.23 1008.02 242.97H1005.05C1004.9 241.578 1003.77 240.714 1002 240.714C1000.29 240.714 999.146 241.549 999.146 242.765C999.146 243.717 999.907 244.361 1001.5 244.757L1004.1 245.357C1007.2 246.104 1008.37 247.276 1008.37 249.547C1008.37 252.359 1005.75 254.293 1001.97 254.293C998.325 254.293 995.908 252.403 995.659 249.576H998.794C999.043 251.056 1000.19 251.876 1002.12 251.876C1004.02 251.876 1005.2 251.085 1005.2 249.84C1005.2 248.858 1004.61 248.316 1003 247.906L1000.24 247.232C997.461 246.559 996.055 245.108 996.055 242.955ZM1010.95 254V232.862H1014.09V241.168H1014.16C1015.01 239.366 1016.69 238.326 1019.04 238.326C1022.42 238.326 1024.44 240.582 1024.44 244.068V254H1021.26V244.684C1021.26 242.413 1020.12 241.051 1017.9 241.051C1015.55 241.051 1014.12 242.662 1014.12 245.094V254H1010.95ZM1040.22 254.293C1035.81 254.293 1032.91 251.261 1032.91 246.295C1032.91 241.344 1035.83 238.312 1040.22 238.312C1044.61 238.312 1047.53 241.344 1047.53 246.295C1047.53 251.261 1044.63 254.293 1040.22 254.293ZM1040.22 251.686C1042.71 251.686 1044.31 249.723 1044.31 246.295C1044.31 242.882 1042.7 240.919 1040.22 240.919C1037.74 240.919 1036.13 242.882 1036.13 246.295C1036.13 249.723 1037.74 251.686 1040.22 251.686ZM1049.98 254V238.59H1052.99V241.212H1053.07C1053.58 239.41 1054.96 238.341 1056.77 238.341C1057.23 238.341 1057.62 238.414 1057.86 238.458V241.402C1057.61 241.3 1057.05 241.227 1056.44 241.227C1054.4 241.227 1053.14 242.589 1053.14 244.771V254H1049.98ZM1087.68 254H1084.68V238.443H1084.58L1078.2 253.839H1075.77L1069.38 238.443H1069.28V254H1066.29V232.862H1070.09L1076.93 249.547H1077.05L1083.87 232.862H1087.68V254ZM1096.18 251.759C1098.39 251.759 1100.12 250.235 1100.12 248.229V247.013L1096.32 247.247C1094.43 247.379 1093.36 248.214 1093.36 249.532C1093.36 250.88 1094.48 251.759 1096.18 251.759ZM1095.3 254.264C1092.28 254.264 1090.17 252.389 1090.17 249.62C1090.17 246.925 1092.24 245.27 1095.9 245.064L1100.12 244.815V243.629C1100.12 241.915 1098.96 240.89 1097.03 240.89C1095.2 240.89 1094.05 241.769 1093.77 243.146H1090.79C1090.96 240.362 1093.33 238.312 1097.14 238.312C1100.88 238.312 1103.27 240.289 1103.27 243.38V254H1100.23V251.466H1100.16C1099.27 253.18 1097.32 254.264 1095.3 254.264ZM1107.27 234.942H1110.44V238.59H1113.37V241.095H1110.44V249.591C1110.44 250.924 1111.03 251.524 1112.32 251.524C1112.64 251.524 1113.15 251.495 1113.36 251.451V253.956C1113.01 254.044 1112.3 254.103 1111.6 254.103C1108.48 254.103 1107.27 252.916 1107.27 249.942V241.095H1105.02V238.59H1107.27V234.942ZM1129.19 238.59V254H1126.16V251.393H1126.09C1125.24 253.238 1123.67 254.278 1121.31 254.278C1117.96 254.278 1115.91 252.096 1115.91 248.565V238.59H1119.07V247.95C1119.07 250.294 1120.19 251.554 1122.37 251.554C1124.65 251.554 1126.03 249.972 1126.03 247.569V238.59H1129.19ZM1132.33 254V238.59H1135.35V241.212H1135.42C1135.93 239.41 1137.31 238.341 1139.13 238.341C1139.58 238.341 1139.98 238.414 1140.21 238.458V241.402C1139.96 241.3 1139.4 241.227 1138.79 241.227C1136.75 241.227 1135.49 242.589 1135.49 244.771V254H1132.33ZM1147.94 240.86C1145.73 240.86 1144.18 242.545 1144.02 244.874H1151.72C1151.65 242.516 1150.16 240.86 1147.94 240.86ZM1151.71 249.474H1154.71C1154.27 252.286 1151.61 254.293 1148.08 254.293C1143.55 254.293 1140.81 251.231 1140.81 246.368C1140.81 241.534 1143.59 238.312 1147.94 238.312C1152.22 238.312 1154.89 241.329 1154.89 246.002V247.086H1144V247.276C1144 249.957 1145.62 251.729 1148.15 251.729C1149.95 251.729 1151.28 250.821 1151.71 249.474Z" fill="#EDEDFF"/>
<rect x="809.5" y="122.5" width="367" height="157" rx="20.5" stroke="#E0F01E" shape-rendering="crispEdges"/>
</g>
<g filter="url(#filter2_d_567_1416)">
<rect x="1329" y="123" width="402" height="236" rx="20" fill="#100F0F" shape-rendering="crispEdges"/>
<path d="M1365.97 183.61C1357.74 183.61 1352.22 177.897 1352.22 169.377C1352.22 156.438 1359.84 147.16 1370.48 147.16C1378.81 147.16 1384.35 152.824 1384.35 161.296C1384.35 174.235 1376.64 183.61 1365.97 183.61ZM1362.67 169.133C1362.67 173.454 1363.94 175.725 1366.38 175.725C1370.34 175.725 1373.9 169.011 1373.9 161.564C1373.9 157.268 1372.61 155.046 1370.09 155.046C1366.16 155.046 1362.67 161.687 1362.67 169.133ZM1396.58 168.571L1398.05 161.418H1402.15C1405.47 161.418 1407.42 160.173 1407.42 158.024C1407.42 156.169 1405.74 154.948 1403.13 154.948C1400.81 154.948 1399.05 155.974 1398.49 157.683H1389.19C1390.53 151.188 1396.19 147.16 1403.98 147.16C1411.72 147.16 1417.19 151.115 1417.19 156.706C1417.19 161.125 1413.72 164.689 1408.79 165.324L1408.77 165.52C1412.57 166.447 1414.84 169.133 1414.84 172.746C1414.84 179.045 1408.62 183.61 1400.07 183.61C1391.29 183.61 1385.69 179.411 1385.69 172.966C1385.69 172.355 1385.74 171.721 1385.89 170.964H1395.36C1394.8 173.552 1397.02 175.749 1400.2 175.749C1402.93 175.749 1404.88 174.138 1404.88 171.892C1404.88 169.841 1403.17 168.571 1400.39 168.571H1396.58Z" fill="#00E291"/>
<path d="M1359.47 254H1356.19V235.689H1349.72V232.862H1365.93V235.689H1359.47V254ZM1376.5 232.511C1382.57 232.511 1386.4 236.715 1386.4 243.438C1386.4 250.162 1382.57 254.352 1376.5 254.352C1370.4 254.352 1366.59 250.162 1366.59 243.438C1366.59 236.715 1370.4 232.511 1376.5 232.511ZM1376.5 235.396C1372.48 235.396 1369.95 238.502 1369.95 243.438C1369.95 248.36 1372.48 251.466 1376.5 251.466C1380.51 251.466 1383.03 248.36 1383.03 243.438C1383.03 238.502 1380.51 235.396 1376.5 235.396ZM1389.53 232.862H1397.46C1401.56 232.862 1404.42 235.689 1404.42 239.806C1404.42 243.937 1401.5 246.778 1397.35 246.778H1392.81V254H1389.53V232.862ZM1392.81 235.631V244.024H1396.58C1399.43 244.024 1401.06 242.486 1401.06 239.82C1401.06 237.154 1399.43 235.631 1396.59 235.631H1392.81ZM1422.52 254.352C1416.43 254.352 1412.62 250.177 1412.62 243.438C1412.62 236.729 1416.43 232.511 1422.52 232.511C1428.6 232.511 1432.42 236.729 1432.42 243.438C1432.42 247.394 1431.1 250.499 1428.75 252.33L1431.5 256.241H1428.07L1426.27 253.722C1425.14 254.146 1423.88 254.352 1422.52 254.352ZM1422.52 251.48C1423.22 251.48 1423.88 251.378 1424.5 251.188L1421.98 247.628H1425.3L1426.8 249.649C1428.23 248.316 1429.05 246.163 1429.05 243.438C1429.05 238.502 1426.53 235.382 1422.52 235.382C1418.51 235.382 1415.97 238.502 1415.97 243.438C1415.97 248.36 1418.51 251.48 1422.52 251.48ZM1448.39 238.59V254H1445.36V251.393H1445.28C1444.43 253.238 1442.87 254.278 1440.51 254.278C1437.15 254.278 1435.1 252.096 1435.1 248.565V238.59H1438.27V247.95C1438.27 250.294 1439.38 251.554 1441.56 251.554C1443.85 251.554 1445.23 249.972 1445.23 247.569V238.59H1448.39ZM1456.92 251.759C1459.13 251.759 1460.86 250.235 1460.86 248.229V247.013L1457.06 247.247C1455.17 247.379 1454.1 248.214 1454.1 249.532C1454.1 250.88 1455.22 251.759 1456.92 251.759ZM1456.04 254.264C1453.02 254.264 1450.91 252.389 1450.91 249.62C1450.91 246.925 1452.97 245.27 1456.64 245.064L1460.86 244.815V243.629C1460.86 241.915 1459.7 240.89 1457.76 240.89C1455.93 240.89 1454.79 241.769 1454.51 243.146H1451.52C1451.7 240.362 1454.07 238.312 1457.88 238.312C1461.62 238.312 1464 240.289 1464 243.38V254H1460.97V251.466H1460.9C1460.01 253.18 1458.06 254.264 1456.04 254.264ZM1467.2 254V232.862H1470.36V254H1467.2ZM1473.72 254V238.59H1476.88V254H1473.72ZM1475.3 236.334C1474.29 236.334 1473.47 235.528 1473.47 234.532C1473.47 233.521 1474.29 232.716 1475.3 232.716C1476.32 232.716 1477.14 233.521 1477.14 234.532C1477.14 235.528 1476.32 236.334 1475.3 236.334ZM1481.04 234.942H1484.22V238.59H1487.15V241.095H1484.22V249.591C1484.22 250.924 1484.81 251.524 1486.09 251.524C1486.42 251.524 1486.93 251.495 1487.13 251.451V253.956C1486.78 254.044 1486.08 254.103 1485.38 254.103C1482.26 254.103 1481.04 252.916 1481.04 249.942V241.095H1478.8V238.59H1481.04V234.942ZM1491.28 259.742C1491.03 259.742 1490.23 259.713 1489.99 259.669V257.105C1490.23 257.164 1490.75 257.164 1491.02 257.164C1492.5 257.164 1493.27 256.549 1493.76 254.967C1493.76 254.938 1494.03 254.029 1494.03 254.015L1488.47 238.59H1491.9L1495.81 251.129H1495.85L1499.76 238.59H1503.1L1497.32 254.806C1496 258.541 1494.49 259.742 1491.28 259.742ZM1519.96 254H1516.68V235.689H1510.21V232.862H1526.42V235.689H1519.96V254ZM1525.85 254V238.59H1528.87V241.212H1528.94C1529.45 239.41 1530.83 238.341 1532.65 238.341C1533.1 238.341 1533.5 238.414 1533.73 238.458V241.402C1533.48 241.3 1532.93 241.227 1532.31 241.227C1530.27 241.227 1529.01 242.589 1529.01 244.771V254H1525.85ZM1540.76 251.759C1542.97 251.759 1544.7 250.235 1544.7 248.229V247.013L1540.91 247.247C1539.02 247.379 1537.95 248.214 1537.95 249.532C1537.95 250.88 1539.06 251.759 1540.76 251.759ZM1539.88 254.264C1536.87 254.264 1534.76 252.389 1534.76 249.62C1534.76 246.925 1536.82 245.27 1540.48 245.064L1544.7 244.815V243.629C1544.7 241.915 1543.55 240.89 1541.61 240.89C1539.78 240.89 1538.64 241.769 1538.36 243.146H1535.37C1535.55 240.362 1537.92 238.312 1541.73 238.312C1545.46 238.312 1547.85 240.289 1547.85 243.38V254H1544.82V251.466H1544.75C1543.85 253.18 1541.91 254.264 1539.88 254.264ZM1551.85 254V241.095H1549.73V238.619H1551.85V237.11C1551.85 234.122 1553.26 232.716 1556.39 232.716C1557.04 232.716 1557.75 232.789 1558.17 232.862V235.206C1557.86 235.147 1557.43 235.118 1557.01 235.118C1555.63 235.118 1554.99 235.807 1554.99 237.169V238.619H1558.11V241.095H1555.03V254H1551.85ZM1561.52 254V241.095H1559.4V238.619H1561.52V237.11C1561.52 234.122 1562.93 232.716 1566.06 232.716C1566.71 232.716 1567.42 232.789 1567.83 232.862V235.206C1567.53 235.147 1567.1 235.118 1566.68 235.118C1565.3 235.118 1564.65 235.807 1564.65 237.169V238.619H1567.77V241.095H1564.7V254H1561.52ZM1570.37 254V238.59H1573.53V254H1570.37ZM1571.95 236.334C1570.94 236.334 1570.12 235.528 1570.12 234.532C1570.12 233.521 1570.94 232.716 1571.95 232.716C1572.97 232.716 1573.79 233.521 1573.79 234.532C1573.79 235.528 1572.97 236.334 1571.95 236.334ZM1590 243.893H1586.98C1586.66 242.252 1585.43 240.948 1583.36 240.948C1580.91 240.948 1579.3 242.984 1579.3 246.295C1579.3 249.679 1580.93 251.642 1583.39 251.642C1585.34 251.642 1586.61 250.572 1586.98 248.785H1590.03C1589.69 252.066 1587.07 254.293 1583.36 254.293C1578.95 254.293 1576.08 251.275 1576.08 246.295C1576.08 241.402 1578.95 238.312 1583.33 238.312C1587.3 238.312 1589.72 240.86 1590 243.893ZM1597.8 248.111H1601.04C1601.28 250.206 1603.31 251.583 1606.09 251.583C1608.76 251.583 1610.68 250.206 1610.68 248.316C1610.68 246.676 1609.52 245.694 1606.78 245.021L1604.04 244.361C1600.16 243.424 1598.36 241.607 1598.36 238.663C1598.36 235.016 1601.54 232.511 1606.05 232.511C1610.52 232.511 1613.58 235.016 1613.68 238.663H1610.49C1610.3 236.554 1608.56 235.279 1606.01 235.279C1603.46 235.279 1601.71 236.568 1601.71 238.443C1601.71 239.938 1602.83 240.816 1605.55 241.49L1607.88 242.062C1612.22 243.087 1614.02 244.83 1614.02 247.921C1614.02 251.876 1610.87 254.352 1605.86 254.352C1601.17 254.352 1598.01 251.935 1597.8 248.111ZM1623.2 254.293C1618.79 254.293 1615.89 251.261 1615.89 246.295C1615.89 241.344 1618.81 238.312 1623.2 238.312C1627.6 238.312 1630.51 241.344 1630.51 246.295C1630.51 251.261 1627.61 254.293 1623.2 254.293ZM1623.2 251.686C1625.69 251.686 1627.29 249.723 1627.29 246.295C1627.29 242.882 1625.68 240.919 1623.2 240.919C1620.73 240.919 1619.12 242.882 1619.12 246.295C1619.12 249.723 1620.73 251.686 1623.2 251.686ZM1646.17 238.59V254H1643.14V251.393H1643.07C1642.22 253.238 1640.65 254.278 1638.29 254.278C1634.94 254.278 1632.89 252.096 1632.89 248.565V238.59H1636.05V247.95C1636.05 250.294 1637.16 251.554 1639.35 251.554C1641.63 251.554 1643.01 249.972 1643.01 247.569V238.59H1646.17ZM1649.31 254V238.59H1652.33V241.212H1652.4C1652.91 239.41 1654.29 238.341 1656.1 238.341C1656.56 238.341 1656.95 238.414 1657.19 238.458V241.402C1656.94 241.3 1656.38 241.227 1655.77 241.227C1653.73 241.227 1652.47 242.589 1652.47 244.771V254H1649.31ZM1671.71 243.893H1668.69C1668.37 242.252 1667.13 240.948 1665.07 240.948C1662.62 240.948 1661.01 242.984 1661.01 246.295C1661.01 249.679 1662.64 251.642 1665.1 251.642C1667.05 251.642 1668.32 250.572 1668.69 248.785H1671.73C1671.4 252.066 1668.78 254.293 1665.07 254.293C1660.66 254.293 1657.79 251.275 1657.79 246.295C1657.79 241.402 1660.66 238.312 1665.04 238.312C1669.01 238.312 1671.43 240.86 1671.71 243.893ZM1680.42 240.86C1678.21 240.86 1676.66 242.545 1676.5 244.874H1684.2C1684.13 242.516 1682.63 240.86 1680.42 240.86ZM1684.19 249.474H1687.19C1686.75 252.286 1684.08 254.293 1680.55 254.293C1676.03 254.293 1673.29 251.231 1673.29 246.368C1673.29 241.534 1676.07 238.312 1680.42 238.312C1684.7 238.312 1687.36 241.329 1687.36 246.002V247.086H1676.48V247.276C1676.48 249.957 1678.09 251.729 1680.63 251.729C1682.43 251.729 1683.76 250.821 1684.19 249.474ZM1689.55 242.955C1689.55 240.201 1691.98 238.312 1695.58 238.312C1699.01 238.312 1701.41 240.23 1701.51 242.97H1698.54C1698.39 241.578 1697.27 240.714 1695.49 240.714C1693.78 240.714 1692.64 241.549 1692.64 242.765C1692.64 243.717 1693.4 244.361 1695 244.757L1697.59 245.357C1700.69 246.104 1701.87 247.276 1701.87 249.547C1701.87 252.359 1699.24 254.293 1695.46 254.293C1691.82 254.293 1689.4 252.403 1689.15 249.576H1692.29C1692.54 251.056 1693.68 251.876 1695.61 251.876C1697.52 251.876 1698.69 251.085 1698.69 249.84C1698.69 248.858 1698.1 248.316 1696.49 247.906L1693.74 247.232C1690.95 246.559 1689.55 245.108 1689.55 242.955ZM1706.7 254.161C1705.63 254.161 1704.78 253.312 1704.78 252.242C1704.78 251.173 1705.63 250.323 1706.7 250.323C1707.77 250.323 1708.62 251.173 1708.62 252.242C1708.62 253.312 1707.77 254.161 1706.7 254.161ZM1706.7 243.482C1705.63 243.482 1704.78 242.647 1704.78 241.563C1704.78 240.494 1705.63 239.645 1706.7 239.645C1707.77 239.645 1708.62 240.494 1708.62 241.563C1708.62 242.647 1707.77 243.482 1706.7 243.482ZM1350.01 288.111H1353.25C1353.48 290.206 1355.52 291.583 1358.3 291.583C1360.97 291.583 1362.89 290.206 1362.89 288.316C1362.89 286.676 1361.73 285.694 1358.99 285.021L1356.25 284.361C1352.37 283.424 1350.57 281.607 1350.57 278.663C1350.57 275.016 1353.75 272.511 1358.26 272.511C1362.73 272.511 1365.79 275.016 1365.89 278.663H1362.7C1362.51 276.554 1360.76 275.279 1358.21 275.279C1355.67 275.279 1353.92 276.568 1353.92 278.443C1353.92 279.938 1355.04 280.816 1357.76 281.49L1360.09 282.062C1364.42 283.087 1366.23 284.83 1366.23 287.921C1366.23 291.876 1363.08 294.352 1358.07 294.352C1353.38 294.352 1350.22 291.935 1350.01 288.111ZM1382.59 291.158V294H1369.17V272.862H1382.59V275.689H1372.45V281.871H1382.05V284.596H1372.45V291.158H1382.59ZM1395.1 272.511C1401.18 272.511 1405 276.715 1405 283.438C1405 290.162 1401.18 294.352 1395.1 294.352C1389 294.352 1385.2 290.162 1385.2 283.438C1385.2 276.715 1389 272.511 1395.1 272.511ZM1395.1 275.396C1391.08 275.396 1388.55 278.502 1388.55 283.438C1388.55 288.36 1391.08 291.466 1395.1 291.466C1399.11 291.466 1401.63 288.36 1401.63 283.438C1401.63 278.502 1399.11 275.396 1395.1 275.396ZM1408.03 298.351H1405.51L1406.83 290.616H1410.03L1408.03 298.351ZM1436.77 285.211C1436.77 290.938 1433.39 294.352 1427.66 294.352C1421.61 294.352 1417.8 290.118 1417.8 283.336C1417.8 276.671 1421.6 272.511 1427.62 272.511C1432.32 272.511 1435.88 275.294 1436.61 279.513H1433.24C1432.45 276.891 1430.39 275.382 1427.63 275.382C1423.59 275.382 1421.16 278.341 1421.16 283.307C1421.16 288.36 1423.66 291.48 1427.69 291.48C1431.12 291.48 1433.49 289.283 1433.54 286.075V285.709H1428.07V283.058H1436.77V285.211ZM1446.22 294.293C1441.81 294.293 1438.91 291.261 1438.91 286.295C1438.91 281.344 1441.83 278.312 1446.22 278.312C1450.62 278.312 1453.53 281.344 1453.53 286.295C1453.53 291.261 1450.63 294.293 1446.22 294.293ZM1446.22 291.686C1448.71 291.686 1450.31 289.723 1450.31 286.295C1450.31 282.882 1448.7 280.919 1446.22 280.919C1443.75 280.919 1442.13 282.882 1442.13 286.295C1442.13 289.723 1443.75 291.686 1446.22 291.686ZM1462.6 294.293C1458.19 294.293 1455.29 291.261 1455.29 286.295C1455.29 281.344 1458.2 278.312 1462.6 278.312C1466.99 278.312 1469.91 281.344 1469.91 286.295C1469.91 291.261 1467.01 294.293 1462.6 294.293ZM1462.6 291.686C1465.09 291.686 1466.69 289.723 1466.69 286.295C1466.69 282.882 1465.07 280.919 1462.6 280.919C1460.12 280.919 1458.51 282.882 1458.51 286.295C1458.51 289.723 1460.12 291.686 1462.6 291.686ZM1478.92 291.437C1481.39 291.437 1483.02 289.43 1483.02 286.251C1483.02 283.087 1481.39 281.007 1478.92 281.007C1476.49 281.007 1474.9 283.043 1474.9 286.251C1474.9 289.474 1476.49 291.437 1478.92 291.437ZM1478.95 299.801C1475.31 299.801 1472.62 297.867 1472.22 295.201H1475.4C1475.86 296.49 1477.26 297.34 1479.06 297.34C1481.54 297.34 1483 295.934 1483 293.824V291.29H1482.95C1482.08 292.96 1480.26 294.059 1478.07 294.059C1474.2 294.059 1471.67 291.041 1471.67 286.236C1471.67 281.388 1474.19 278.341 1478.14 278.341C1480.32 278.341 1482.11 279.439 1483.05 281.227H1483.11V278.59H1486.18V293.722C1486.18 297.398 1483.34 299.801 1478.95 299.801ZM1489.43 294V272.862H1492.6V294H1489.43ZM1502.3 280.86C1500.08 280.86 1498.53 282.545 1498.37 284.874H1506.08C1506 282.516 1504.51 280.86 1502.3 280.86ZM1506.06 289.474H1509.06C1508.62 292.286 1505.96 294.293 1502.43 294.293C1497.9 294.293 1495.16 291.231 1495.16 286.368C1495.16 281.534 1497.95 278.312 1502.3 278.312C1506.57 278.312 1509.24 281.329 1509.24 286.002V287.086H1498.36V287.276C1498.36 289.957 1499.97 291.729 1502.5 291.729C1504.3 291.729 1505.64 290.821 1506.06 289.474ZM1531.94 294L1530.01 288.287H1521.95L1520.02 294H1516.61L1524.24 272.862H1527.78L1535.42 294H1531.94ZM1525.94 276.378L1522.79 285.65H1529.18L1526.03 276.378H1525.94ZM1542.74 294.264C1538.84 294.264 1536.27 291.158 1536.27 286.295C1536.27 281.432 1538.84 278.341 1542.71 278.341C1544.92 278.341 1546.68 279.454 1547.54 281.153H1547.6V272.862H1550.78V294H1547.71V291.378H1547.65C1546.74 293.136 1544.98 294.264 1542.74 294.264ZM1543.58 281.007C1541.07 281.007 1539.5 283.058 1539.5 286.295C1539.5 289.547 1541.07 291.583 1543.58 291.583C1546.01 291.583 1547.63 289.518 1547.63 286.295C1547.63 283.102 1546.01 281.007 1543.58 281.007ZM1553.76 282.955C1553.76 280.201 1556.19 278.312 1559.79 278.312C1563.22 278.312 1565.62 280.23 1565.72 282.97H1562.75C1562.6 281.578 1561.48 280.714 1559.7 280.714C1557.99 280.714 1556.85 281.549 1556.85 282.765C1556.85 283.717 1557.61 284.361 1559.21 284.757L1561.8 285.357C1564.9 286.104 1566.08 287.276 1566.08 289.547C1566.08 292.359 1563.45 294.293 1559.67 294.293C1556.03 294.293 1553.61 292.403 1553.36 289.576H1556.5C1556.74 291.056 1557.89 291.876 1559.82 291.876C1561.72 291.876 1562.9 291.085 1562.9 289.84C1562.9 288.858 1562.31 288.316 1560.7 287.906L1557.95 287.232C1555.16 286.559 1553.76 285.108 1553.76 282.955ZM1570.78 298.351H1568.26L1569.58 290.616H1572.77L1570.78 298.351ZM1589.83 294H1586.55V275.689H1580.08V272.862H1596.29V275.689H1589.83V294ZM1597.99 294V278.59H1601.16V294H1597.99ZM1599.58 276.334C1598.57 276.334 1597.75 275.528 1597.75 274.532C1597.75 273.521 1598.57 272.716 1599.58 272.716C1600.6 272.716 1601.42 273.521 1601.42 274.532C1601.42 275.528 1600.6 276.334 1599.58 276.334ZM1607.71 285.196L1613.93 278.59H1617.65L1611.27 285.226L1617.9 294H1614.22L1609 287.159L1607.68 288.463V294H1604.51V272.862H1607.68V285.196H1607.71ZM1627.6 294H1624.32V275.689H1617.84V272.862H1634.06V275.689H1627.6V294ZM1639.2 294.293C1634.79 294.293 1631.89 291.261 1631.89 286.295C1631.89 281.344 1634.81 278.312 1639.2 278.312C1643.59 278.312 1646.51 281.344 1646.51 286.295C1646.51 291.261 1643.61 294.293 1639.2 294.293ZM1639.2 291.686C1641.69 291.686 1643.29 289.723 1643.29 286.295C1643.29 282.882 1641.68 280.919 1639.2 280.919C1636.72 280.919 1635.11 282.882 1635.11 286.295C1635.11 289.723 1636.72 291.686 1639.2 291.686ZM1652.27 285.196L1658.49 278.59H1662.21L1655.83 285.226L1662.46 294H1658.79L1653.56 287.159L1652.24 288.463V294H1649.07V272.862H1652.24V285.196H1652.27ZM1666.34 298.351H1663.82L1665.14 290.616H1668.34L1666.34 298.351ZM1360.1 334H1356.82V325.343L1349.38 312.862H1353.04L1358.43 322.193H1358.54L1363.93 312.862H1367.56L1360.1 325.343V334ZM1373.18 334.293C1368.78 334.293 1365.88 331.261 1365.88 326.295C1365.88 321.344 1368.79 318.312 1373.18 318.312C1377.58 318.312 1380.49 321.344 1380.49 326.295C1380.49 331.261 1377.59 334.293 1373.18 334.293ZM1373.18 331.686C1375.67 331.686 1377.27 329.723 1377.27 326.295C1377.27 322.882 1375.66 320.919 1373.18 320.919C1370.71 320.919 1369.1 322.882 1369.1 326.295C1369.1 329.723 1370.71 331.686 1373.18 331.686ZM1396.15 318.59V334H1393.12V331.393H1393.05C1392.2 333.238 1390.63 334.278 1388.27 334.278C1384.92 334.278 1382.87 332.096 1382.87 328.565V318.59H1386.03V327.95C1386.03 330.294 1387.14 331.554 1389.33 331.554C1391.61 331.554 1392.99 329.972 1392.99 327.569V318.59H1396.15ZM1405.44 334H1402.16V315.689H1395.68V312.862H1411.9V315.689H1405.44V334ZM1424.6 318.59V334H1421.57V331.393H1421.5C1420.65 333.238 1419.08 334.278 1416.72 334.278C1413.37 334.278 1411.31 332.096 1411.31 328.565V318.59H1414.48V327.95C1414.48 330.294 1415.59 331.554 1417.77 331.554C1420.06 331.554 1421.44 329.972 1421.44 327.569V318.59H1424.6ZM1435.94 334.264C1433.68 334.264 1431.94 333.165 1430.99 331.378H1430.93V334H1427.85V312.862H1431.02V321.212H1431.09C1432.01 319.425 1433.77 318.341 1435.95 318.341C1439.83 318.341 1442.37 321.417 1442.37 326.295C1442.37 331.188 1439.85 334.264 1435.94 334.264ZM1435.09 321.007C1432.69 321.007 1431 323.116 1431 326.295C1431 329.503 1432.69 331.583 1435.09 331.583C1437.58 331.583 1439.12 329.562 1439.12 326.295C1439.12 323.058 1437.58 321.007 1435.09 321.007ZM1451.29 320.86C1449.08 320.86 1447.53 322.545 1447.36 324.874H1455.07C1455 322.516 1453.5 320.86 1451.29 320.86ZM1455.05 329.474H1458.06C1457.62 332.286 1454.95 334.293 1451.42 334.293C1446.9 334.293 1444.16 331.231 1444.16 326.368C1444.16 321.534 1446.94 318.312 1451.29 318.312C1455.57 318.312 1458.23 321.329 1458.23 326.002V327.086H1447.35V327.276C1447.35 329.957 1448.96 331.729 1451.5 331.729C1453.3 331.729 1454.63 330.821 1455.05 329.474ZM1462.94 338.351H1460.42L1461.73 330.616H1464.93L1462.94 338.351ZM1487.24 334L1485.3 328.287H1477.25L1475.31 334H1471.9L1479.53 312.862H1483.08L1490.71 334H1487.24ZM1481.23 316.378L1478.08 325.65H1484.47L1481.32 316.378H1481.23ZM1491.92 328.111H1495.16C1495.4 330.206 1497.43 331.583 1500.22 331.583C1502.88 331.583 1504.8 330.206 1504.8 328.316C1504.8 326.676 1503.64 325.694 1500.9 325.021L1498.17 324.361C1494.28 323.424 1492.48 321.607 1492.48 318.663C1492.48 315.016 1495.66 312.511 1500.17 312.511C1504.64 312.511 1507.7 315.016 1507.8 318.663H1504.61C1504.42 316.554 1502.68 315.279 1500.13 315.279C1497.58 315.279 1495.84 316.568 1495.84 318.443C1495.84 319.938 1496.95 320.816 1499.67 321.49L1502 322.062C1506.34 323.087 1508.14 324.83 1508.14 327.921C1508.14 331.876 1504.99 334.352 1499.98 334.352C1495.29 334.352 1492.13 331.935 1491.92 328.111ZM1520.23 312.511C1526.3 312.511 1530.13 316.715 1530.13 323.438C1530.13 330.162 1526.3 334.352 1520.23 334.352C1514.13 334.352 1510.32 330.162 1510.32 323.438C1510.32 316.715 1514.13 312.511 1520.23 312.511ZM1520.23 315.396C1516.21 315.396 1513.68 318.502 1513.68 323.438C1513.68 328.36 1516.21 331.466 1520.23 331.466C1524.24 331.466 1526.76 328.36 1526.76 323.438C1526.76 318.502 1524.24 315.396 1520.23 315.396ZM1533.16 338.351H1530.64L1531.96 330.616H1535.15L1533.16 338.351ZM1546.97 334H1543.69V312.862H1556.89V315.689H1546.97V322.384H1556.06V325.152H1546.97V334ZM1563.85 331.759C1566.06 331.759 1567.79 330.235 1567.79 328.229V327.013L1564 327.247C1562.11 327.379 1561.04 328.214 1561.04 329.532C1561.04 330.88 1562.15 331.759 1563.85 331.759ZM1562.97 334.264C1559.95 334.264 1557.84 332.389 1557.84 329.62C1557.84 326.925 1559.91 325.27 1563.57 325.064L1567.79 324.815V323.629C1567.79 321.915 1566.63 320.89 1564.7 320.89C1562.87 320.89 1561.72 321.769 1561.45 323.146H1558.46C1558.63 320.362 1561.01 318.312 1564.82 318.312C1568.55 318.312 1570.94 320.289 1570.94 323.38V334H1567.91V331.466H1567.83C1566.94 333.18 1564.99 334.264 1562.97 334.264ZM1587.24 323.893H1584.22C1583.9 322.252 1582.67 320.948 1580.61 320.948C1578.16 320.948 1576.55 322.984 1576.55 326.295C1576.55 329.679 1578.17 331.642 1580.64 331.642C1582.58 331.642 1583.86 330.572 1584.22 328.785H1587.27C1586.93 332.066 1584.31 334.293 1580.61 334.293C1576.2 334.293 1573.33 331.275 1573.33 326.295C1573.33 321.402 1576.2 318.312 1580.58 318.312C1584.55 318.312 1586.96 320.86 1587.24 323.893ZM1595.96 320.86C1593.75 320.86 1592.19 322.545 1592.03 324.874H1599.74C1599.66 322.516 1598.17 320.86 1595.96 320.86ZM1599.72 329.474H1602.73C1602.29 332.286 1599.62 334.293 1596.09 334.293C1591.56 334.293 1588.82 331.231 1588.82 326.368C1588.82 321.534 1591.61 318.312 1595.96 318.312C1600.24 318.312 1602.9 321.329 1602.9 326.002V327.086H1592.02V327.276C1592.02 329.957 1593.63 331.729 1596.16 331.729C1597.96 331.729 1599.3 330.821 1599.72 329.474ZM1613.57 334.264C1611.31 334.264 1609.57 333.165 1608.61 331.378H1608.56V334H1605.48V312.862H1608.64V321.212H1608.72C1609.64 319.425 1611.4 318.341 1613.58 318.341C1617.46 318.341 1620 321.417 1620 326.295C1620 331.188 1617.48 334.264 1613.57 334.264ZM1612.72 321.007C1610.31 321.007 1608.63 323.116 1608.63 326.295C1608.63 329.503 1610.31 331.583 1612.72 331.583C1615.21 331.583 1616.74 329.562 1616.74 326.295C1616.74 323.058 1615.21 321.007 1612.72 321.007ZM1629.09 334.293C1624.68 334.293 1621.78 331.261 1621.78 326.295C1621.78 321.344 1624.7 318.312 1629.09 318.312C1633.49 318.312 1636.4 321.344 1636.4 326.295C1636.4 331.261 1633.5 334.293 1629.09 334.293ZM1629.09 331.686C1631.58 331.686 1633.18 329.723 1633.18 326.295C1633.18 322.882 1631.57 320.919 1629.09 320.919C1626.62 320.919 1625.01 322.882 1625.01 326.295C1625.01 329.723 1626.62 331.686 1629.09 331.686ZM1645.47 334.293C1641.06 334.293 1638.16 331.261 1638.16 326.295C1638.16 321.344 1641.08 318.312 1645.47 318.312C1649.86 318.312 1652.78 321.344 1652.78 326.295C1652.78 331.261 1649.88 334.293 1645.47 334.293ZM1645.47 331.686C1647.96 331.686 1649.56 329.723 1649.56 326.295C1649.56 322.882 1647.95 320.919 1645.47 320.919C1642.99 320.919 1641.38 322.882 1641.38 326.295C1641.38 329.723 1642.99 331.686 1645.47 331.686ZM1658.54 325.196L1664.76 318.59H1668.48L1662.1 325.226L1668.73 334H1665.05L1659.83 327.159L1658.51 328.463V334H1655.34V312.862H1658.51V325.196H1658.54Z" fill="#EDEDFF"/>
<rect x="1329.5" y="123.5" width="401" height="235" rx="19.5" stroke="#00E291" shape-rendering="crispEdges"/>
</g>
<g filter="url(#filter3_d_567_1416)">
<rect x="1323" y="409" width="400" height="236" rx="20" fill="#100F0F" shape-rendering="crispEdges"/>
<path d="M1359.97 469.61C1351.74 469.61 1346.22 463.897 1346.22 455.377C1346.22 442.438 1353.84 433.16 1364.48 433.16C1372.81 433.16 1378.35 438.824 1378.35 447.296C1378.35 460.235 1370.64 469.61 1359.97 469.61ZM1356.67 455.133C1356.67 459.454 1357.94 461.725 1360.38 461.725C1364.34 461.725 1367.9 455.011 1367.9 447.564C1367.9 443.268 1366.61 441.046 1364.09 441.046C1360.16 441.046 1356.67 447.687 1356.67 455.133ZM1395.44 469L1396.54 463.775H1379.08L1380.84 454.815C1385.33 448.614 1390.19 442.682 1397.93 433.771H1412.7L1407.99 455.865H1412.19L1410.5 463.775H1406.31L1405.21 469H1395.44ZM1389.48 456.061L1389.46 456.256H1398.44L1401.72 440.875H1401.52C1397.66 445.221 1392.78 451.349 1389.48 456.061Z" fill="#E0F01E"/>
<path d="M1344.95 518.862H1352.87C1356.97 518.862 1359.83 521.689 1359.83 525.806C1359.83 529.937 1356.92 532.778 1352.77 532.778H1348.23V540H1344.95V518.862ZM1348.23 521.631V530.024H1351.99C1354.85 530.024 1356.48 528.486 1356.48 525.82C1356.48 523.154 1354.85 521.631 1352.01 521.631H1348.23ZM1368.09 526.86C1365.88 526.86 1364.33 528.545 1364.17 530.874H1371.87C1371.8 528.516 1370.3 526.86 1368.09 526.86ZM1371.86 535.474H1374.86C1374.42 538.286 1371.75 540.293 1368.22 540.293C1363.7 540.293 1360.96 537.231 1360.96 532.368C1360.96 527.534 1363.74 524.312 1368.09 524.312C1372.37 524.312 1375.04 527.329 1375.04 532.002V533.086H1364.15V533.276C1364.15 535.957 1365.76 537.729 1368.3 537.729C1370.1 537.729 1371.43 536.821 1371.86 535.474ZM1377.5 540V524.59H1380.51V527.212H1380.59C1381.1 525.41 1382.48 524.341 1384.29 524.341C1384.75 524.341 1385.14 524.414 1385.38 524.458V527.402C1385.13 527.3 1384.57 527.227 1383.96 527.227C1381.92 527.227 1380.66 528.589 1380.66 530.771V540H1377.5ZM1388.26 540V527.095H1386.14V524.619H1388.26V523.11C1388.26 520.122 1389.67 518.716 1392.8 518.716C1393.45 518.716 1394.17 518.789 1394.58 518.862V521.206C1394.27 521.147 1393.84 521.118 1393.42 521.118C1392.04 521.118 1391.4 521.807 1391.4 523.169V524.619H1394.52V527.095H1391.44V540H1388.26ZM1402.99 540.293C1398.58 540.293 1395.68 537.261 1395.68 532.295C1395.68 527.344 1398.59 524.312 1402.99 524.312C1407.38 524.312 1410.29 527.344 1410.29 532.295C1410.29 537.261 1407.39 540.293 1402.99 540.293ZM1402.99 537.686C1405.48 537.686 1407.07 535.723 1407.07 532.295C1407.07 528.882 1405.46 526.919 1402.99 526.919C1400.51 526.919 1398.9 528.882 1398.9 532.295C1398.9 535.723 1400.51 537.686 1402.99 537.686ZM1412.74 540V524.59H1415.76V527.212H1415.83C1416.34 525.41 1417.72 524.341 1419.54 524.341C1419.99 524.341 1420.39 524.414 1420.62 524.458V527.402C1420.37 527.3 1419.82 527.227 1419.2 527.227C1417.17 527.227 1415.91 528.589 1415.91 530.771V540H1412.74ZM1422.58 540V524.59H1425.6V527.183H1425.68C1426.36 525.469 1427.98 524.326 1430.06 524.326C1432.19 524.326 1433.75 525.425 1434.36 527.344H1434.44C1435.23 525.469 1437.04 524.326 1439.24 524.326C1442.29 524.326 1444.28 526.348 1444.28 529.409V540H1441.1V530.171C1441.1 528.179 1440.03 527.036 1438.16 527.036C1436.28 527.036 1434.98 528.428 1434.98 530.376V540H1431.87V529.937C1431.87 528.164 1430.74 527.036 1428.96 527.036C1427.08 527.036 1425.75 528.501 1425.75 530.479V540H1422.58ZM1452.73 537.759C1454.94 537.759 1456.67 536.235 1456.67 534.229V533.013L1452.88 533.247C1450.99 533.379 1449.92 534.214 1449.92 535.532C1449.92 536.88 1451.03 537.759 1452.73 537.759ZM1451.85 540.264C1448.83 540.264 1446.73 538.389 1446.73 535.62C1446.73 532.925 1448.79 531.27 1452.45 531.064L1456.67 530.815V529.629C1456.67 527.915 1455.51 526.89 1453.58 526.89C1451.75 526.89 1450.61 527.769 1450.33 529.146H1447.34C1447.52 526.362 1449.89 524.312 1453.7 524.312C1457.43 524.312 1459.82 526.289 1459.82 529.38V540H1456.79V537.466H1456.72C1455.82 539.18 1453.87 540.264 1451.85 540.264ZM1462.9 540V524.59H1465.92V527.168H1465.99C1466.82 525.41 1468.46 524.326 1470.84 524.326C1474.24 524.326 1476.18 526.494 1476.18 530.024V540H1473V530.64C1473 528.325 1471.92 527.051 1469.72 527.051C1467.5 527.051 1466.06 528.633 1466.06 531.021V540H1462.9ZM1492.47 529.893H1489.46C1489.13 528.252 1487.9 526.948 1485.84 526.948C1483.39 526.948 1481.78 528.984 1481.78 532.295C1481.78 535.679 1483.41 537.642 1485.87 537.642C1487.81 537.642 1489.09 536.572 1489.46 534.785H1492.5C1492.17 538.066 1489.54 540.293 1485.84 540.293C1481.43 540.293 1478.56 537.275 1478.56 532.295C1478.56 527.402 1481.43 524.312 1485.81 524.312C1489.78 524.312 1492.19 526.86 1492.47 529.893ZM1501.19 526.86C1498.98 526.86 1497.42 528.545 1497.26 530.874H1504.97C1504.89 528.516 1503.4 526.86 1501.19 526.86ZM1504.95 535.474H1507.96C1507.52 538.286 1504.85 540.293 1501.32 540.293C1496.79 540.293 1494.05 537.231 1494.05 532.368C1494.05 527.534 1496.84 524.312 1501.19 524.312C1505.47 524.312 1508.13 527.329 1508.13 532.002V533.086H1497.25V533.276C1497.25 535.957 1498.86 537.729 1501.39 537.729C1503.2 537.729 1504.53 536.821 1504.95 535.474ZM1516.13 534.111H1519.37C1519.6 536.206 1521.64 537.583 1524.42 537.583C1527.09 537.583 1529.01 536.206 1529.01 534.316C1529.01 532.676 1527.85 531.694 1525.11 531.021L1522.37 530.361C1518.49 529.424 1516.69 527.607 1516.69 524.663C1516.69 521.016 1519.87 518.511 1524.38 518.511C1528.84 518.511 1531.91 521.016 1532.01 524.663H1528.82C1528.62 522.554 1526.88 521.279 1524.33 521.279C1521.78 521.279 1520.04 522.568 1520.04 524.443C1520.04 525.938 1521.15 526.816 1523.88 527.49L1526.21 528.062C1530.54 529.087 1532.35 530.83 1532.35 533.921C1532.35 537.876 1529.2 540.352 1524.19 540.352C1519.5 540.352 1516.33 537.935 1516.13 534.111ZM1541.53 540.293C1537.12 540.293 1534.22 537.261 1534.22 532.295C1534.22 527.344 1537.14 524.312 1541.53 524.312C1545.92 524.312 1548.84 527.344 1548.84 532.295C1548.84 537.261 1545.94 540.293 1541.53 540.293ZM1541.53 537.686C1544.02 537.686 1545.62 535.723 1545.62 532.295C1545.62 528.882 1544.01 526.919 1541.53 526.919C1539.05 526.919 1537.44 528.882 1537.44 532.295C1537.44 535.723 1539.05 537.686 1541.53 537.686ZM1564.51 529.893H1561.5C1561.17 528.252 1559.94 526.948 1557.88 526.948C1555.43 526.948 1553.82 528.984 1553.82 532.295C1553.82 535.679 1555.45 537.642 1557.91 537.642C1559.86 537.642 1561.13 536.572 1561.5 534.785H1564.54C1564.21 538.066 1561.58 540.293 1557.88 540.293C1553.47 540.293 1550.6 537.275 1550.6 532.295C1550.6 527.402 1553.47 524.312 1557.85 524.312C1561.82 524.312 1564.24 526.86 1564.51 529.893ZM1566.89 540V524.59H1570.05V540H1566.89ZM1568.47 522.334C1567.46 522.334 1566.64 521.528 1566.64 520.532C1566.64 519.521 1567.46 518.716 1568.47 518.716C1569.49 518.716 1570.31 519.521 1570.31 520.532C1570.31 521.528 1569.49 522.334 1568.47 522.334ZM1578.68 537.759C1580.89 537.759 1582.62 536.235 1582.62 534.229V533.013L1578.83 533.247C1576.94 533.379 1575.87 534.214 1575.87 535.532C1575.87 536.88 1576.98 537.759 1578.68 537.759ZM1577.8 540.264C1574.78 540.264 1572.67 538.389 1572.67 535.62C1572.67 532.925 1574.74 531.27 1578.4 531.064L1582.62 530.815V529.629C1582.62 527.915 1581.46 526.89 1579.53 526.89C1577.7 526.89 1576.55 527.769 1576.28 529.146H1573.29C1573.46 526.362 1575.84 524.312 1579.65 524.312C1583.38 524.312 1585.77 526.289 1585.77 529.38V540H1582.74V537.466H1582.66C1581.77 539.18 1579.82 540.264 1577.8 540.264ZM1588.96 540V518.862H1592.13V540H1588.96ZM1616.74 540L1614.9 538.008C1613.19 539.502 1610.74 540.366 1608.22 540.366C1603.93 540.366 1601.03 537.949 1601.03 534.404C1601.03 531.958 1602.34 530.112 1605.09 528.633C1605.44 528.457 1605.85 528.223 1605.95 528.193C1604.05 526.187 1603.33 524.854 1603.33 523.301C1603.33 520.576 1605.71 518.54 1608.9 518.54C1612.14 518.54 1614.44 520.518 1614.44 523.301C1614.44 525.454 1613.12 527.08 1610 528.735L1614.8 533.906C1615.42 532.764 1615.71 531.196 1615.71 528.882V528.076H1618.55V528.97C1618.55 531.958 1617.95 534.272 1616.79 536.001L1620.59 540H1616.74ZM1606.89 530.347C1604.93 531.562 1604.14 532.661 1604.14 534.17C1604.14 536.367 1605.91 537.832 1608.53 537.832C1610.29 537.832 1612.09 537.144 1613.1 536.06L1607.55 529.995C1607.38 530.083 1607.02 530.273 1606.89 530.347ZM1608.39 527.08C1610.7 525.894 1611.58 524.883 1611.58 523.462C1611.58 521.938 1610.51 520.884 1608.91 520.884C1607.36 520.884 1606.25 521.968 1606.25 523.477C1606.25 524.575 1606.82 525.527 1608.39 527.08ZM1344.95 558.862H1352.4C1358.69 558.862 1362.41 562.729 1362.41 569.395C1362.41 576.074 1358.7 580 1352.4 580H1344.95V558.862ZM1348.23 561.689V577.158H1352.1C1356.58 577.158 1359.05 574.419 1359.05 569.424C1359.05 564.443 1356.56 561.689 1352.1 561.689H1348.23ZM1365.27 580V564.59H1368.43V580H1365.27ZM1366.85 562.334C1365.84 562.334 1365.02 561.528 1365.02 560.532C1365.02 559.521 1365.84 558.716 1366.85 558.716C1367.87 558.716 1368.69 559.521 1368.69 560.532C1368.69 561.528 1367.87 562.334 1366.85 562.334ZM1371.39 568.955C1371.39 566.201 1373.82 564.312 1377.42 564.312C1380.85 564.312 1383.25 566.23 1383.36 568.97H1380.38C1380.24 567.578 1379.11 566.714 1377.34 566.714C1375.62 566.714 1374.48 567.549 1374.48 568.765C1374.48 569.717 1375.24 570.361 1376.84 570.757L1379.43 571.357C1382.54 572.104 1383.71 573.276 1383.71 575.547C1383.71 578.359 1381.09 580.293 1377.31 580.293C1373.66 580.293 1371.24 578.403 1370.99 575.576H1374.13C1374.38 577.056 1375.52 577.876 1377.45 577.876C1379.36 577.876 1380.53 577.085 1380.53 575.84C1380.53 574.858 1379.94 574.316 1378.33 573.906L1375.58 573.232C1372.79 572.559 1371.39 571.108 1371.39 568.955ZM1394.2 564.341C1398.11 564.341 1400.69 567.417 1400.69 572.295C1400.69 577.173 1398.12 580.264 1394.25 580.264C1392.04 580.264 1390.29 579.18 1389.41 577.466H1389.33V585.098H1386.17V564.59H1389.23V567.241H1389.29C1390.2 565.469 1391.97 564.341 1394.2 564.341ZM1393.36 577.583C1395.87 577.583 1397.43 575.532 1397.43 572.295C1397.43 569.072 1395.87 567.007 1393.36 567.007C1390.94 567.007 1389.32 569.116 1389.32 572.295C1389.32 575.503 1390.93 577.583 1393.36 577.583ZM1403.25 580V558.862H1406.41V580H1403.25ZM1415.06 577.759C1417.27 577.759 1419 576.235 1419 574.229V573.013L1415.2 573.247C1413.31 573.379 1412.24 574.214 1412.24 575.532C1412.24 576.88 1413.36 577.759 1415.06 577.759ZM1414.18 580.264C1411.16 580.264 1409.05 578.389 1409.05 575.62C1409.05 572.925 1411.12 571.27 1414.78 571.064L1419 570.815V569.629C1419 567.915 1417.84 566.89 1415.91 566.89C1414.07 566.89 1412.93 567.769 1412.65 569.146H1409.67C1409.84 566.362 1412.21 564.312 1416.02 564.312C1419.76 564.312 1422.15 566.289 1422.15 569.38V580H1419.11V577.466H1419.04C1418.15 579.18 1416.2 580.264 1414.18 580.264ZM1426.75 585.742C1426.5 585.742 1425.69 585.713 1425.46 585.669V583.105C1425.69 583.164 1426.22 583.164 1426.48 583.164C1427.96 583.164 1428.74 582.549 1429.22 580.967C1429.22 580.938 1429.5 580.029 1429.5 580.015L1423.93 564.59H1427.36L1431.27 577.129H1431.32L1435.23 564.59H1438.57L1432.78 580.806C1431.46 584.541 1429.95 585.742 1426.75 585.742ZM1455.82 580.352C1449.89 580.352 1446.14 576.162 1446.14 569.424C1446.14 562.729 1449.92 558.511 1455.82 558.511C1460.61 558.511 1464.23 561.455 1464.79 565.864H1461.54C1460.95 563.154 1458.69 561.382 1455.82 561.382C1451.98 561.382 1449.49 564.531 1449.49 569.424C1449.49 574.36 1451.96 577.48 1455.84 577.48C1458.78 577.48 1460.88 575.972 1461.54 573.423H1464.8C1464 577.788 1460.69 580.352 1455.82 580.352ZM1467.5 580V558.862H1470.63V567.168H1470.71C1471.55 565.366 1473.24 564.326 1475.58 564.326C1478.97 564.326 1480.99 566.582 1480.99 570.068V580H1477.81V570.684C1477.81 568.413 1476.67 567.051 1474.44 567.051C1472.1 567.051 1470.66 568.662 1470.66 571.094V580H1467.5ZM1489.44 577.759C1491.65 577.759 1493.38 576.235 1493.38 574.229V573.013L1489.59 573.247C1487.7 573.379 1486.63 574.214 1486.63 575.532C1486.63 576.88 1487.74 577.759 1489.44 577.759ZM1488.56 580.264C1485.54 580.264 1483.43 578.389 1483.43 575.62C1483.43 572.925 1485.5 571.27 1489.16 571.064L1493.38 570.815V569.629C1493.38 567.915 1492.22 566.89 1490.29 566.89C1488.46 566.89 1487.32 567.769 1487.04 569.146H1484.05C1484.23 566.362 1486.6 564.312 1490.41 564.312C1494.14 564.312 1496.53 566.289 1496.53 569.38V580H1493.5V577.466H1493.42C1492.53 579.18 1490.58 580.264 1488.56 580.264ZM1499.61 580V564.59H1502.62V567.168H1502.7C1503.53 565.41 1505.17 564.326 1507.55 564.326C1510.94 564.326 1512.89 566.494 1512.89 570.024V580H1509.71V570.64C1509.71 568.325 1508.63 567.051 1506.43 567.051C1504.21 567.051 1502.77 568.633 1502.77 571.021V580H1499.61ZM1515.95 580V564.59H1518.97V567.168H1519.04C1519.88 565.41 1521.52 564.326 1523.89 564.326C1527.29 564.326 1529.24 566.494 1529.24 570.024V580H1526.06V570.64C1526.06 568.325 1524.98 567.051 1522.78 567.051C1520.55 567.051 1519.12 568.633 1519.12 571.021V580H1515.95ZM1538.75 566.86C1536.54 566.86 1534.98 568.545 1534.82 570.874H1542.53C1542.45 568.516 1540.96 566.86 1538.75 566.86ZM1542.51 575.474H1545.51C1545.08 578.286 1542.41 580.293 1538.88 580.293C1534.35 580.293 1531.61 577.231 1531.61 572.368C1531.61 567.534 1534.4 564.312 1538.75 564.312C1543.02 564.312 1545.69 567.329 1545.69 572.002V573.086H1534.81V573.276C1534.81 575.957 1536.42 577.729 1538.95 577.729C1540.75 577.729 1542.09 576.821 1542.51 575.474ZM1548.27 580V558.862H1551.43V580H1548.27ZM1554.41 568.955C1554.41 566.201 1556.84 564.312 1560.44 564.312C1563.87 564.312 1566.27 566.23 1566.37 568.97H1563.4C1563.25 567.578 1562.13 566.714 1560.35 566.714C1558.64 566.714 1557.5 567.549 1557.5 568.765C1557.5 569.717 1558.26 570.361 1559.86 570.757L1562.45 571.357C1565.55 572.104 1566.73 573.276 1566.73 575.547C1566.73 578.359 1564.1 580.293 1560.32 580.293C1556.68 580.293 1554.26 578.403 1554.01 575.576H1557.15C1557.39 577.056 1558.54 577.876 1560.47 577.876C1562.38 577.876 1563.55 577.085 1563.55 575.84C1563.55 574.858 1562.96 574.316 1561.35 573.906L1558.6 573.232C1555.81 572.559 1554.41 571.108 1554.41 568.955ZM1576.2 560.942H1579.38V564.59H1582.31V567.095H1579.38V575.591C1579.38 576.924 1579.97 577.524 1581.26 577.524C1581.58 577.524 1582.09 577.495 1582.3 577.451V579.956C1581.95 580.044 1581.24 580.103 1580.54 580.103C1577.42 580.103 1576.2 578.916 1576.2 575.942V567.095H1573.96V564.59H1576.2V560.942ZM1591.16 580.293C1586.75 580.293 1583.85 577.261 1583.85 572.295C1583.85 567.344 1586.76 564.312 1591.16 564.312C1595.55 564.312 1598.47 567.344 1598.47 572.295C1598.47 577.261 1595.57 580.293 1591.16 580.293ZM1591.16 577.686C1593.65 577.686 1595.25 575.723 1595.25 572.295C1595.25 568.882 1593.63 566.919 1591.16 566.919C1588.68 566.919 1587.07 568.882 1587.07 572.295C1587.07 575.723 1588.68 577.686 1591.16 577.686ZM1620.81 577.158V580H1607.39V558.862H1620.81V561.689H1610.67V567.871H1620.27V570.596H1610.67V577.158H1620.81ZM1623.8 580V564.59H1626.81V567.168H1626.89C1627.72 565.41 1629.36 564.326 1631.74 564.326C1635.13 564.326 1637.08 566.494 1637.08 570.024V580H1633.9V570.64C1633.9 568.325 1632.82 567.051 1630.62 567.051C1628.4 567.051 1626.96 568.633 1626.96 571.021V580H1623.8ZM1641.07 560.942H1644.25V564.59H1647.17V567.095H1644.25V575.591C1644.25 576.924 1644.83 577.524 1646.12 577.524C1646.44 577.524 1646.96 577.495 1647.16 577.451V579.956C1646.81 580.044 1646.11 580.103 1645.4 580.103C1642.28 580.103 1641.07 578.916 1641.07 575.942V567.095H1638.83V564.59H1641.07V560.942ZM1655.85 566.86C1653.63 566.86 1652.08 568.545 1651.92 570.874H1659.63C1659.55 568.516 1658.06 566.86 1655.85 566.86ZM1659.61 575.474H1662.61C1662.17 578.286 1659.51 580.293 1655.98 580.293C1651.45 580.293 1648.71 577.231 1648.71 572.368C1648.71 567.534 1651.5 564.312 1655.85 564.312C1660.12 564.312 1662.79 567.329 1662.79 572.002V573.086H1651.91V573.276C1651.91 575.957 1653.52 577.729 1656.05 577.729C1657.85 577.729 1659.19 576.821 1659.61 575.474ZM1665.25 580V564.59H1668.27V567.212H1668.34C1668.85 565.41 1670.23 564.341 1672.05 564.341C1672.5 564.341 1672.9 564.414 1673.13 564.458V567.402C1672.88 567.3 1672.33 567.227 1671.71 567.227C1669.67 567.227 1668.42 568.589 1668.42 570.771V580H1665.25ZM1349.96 617.759C1352.17 617.759 1353.9 616.235 1353.9 614.229V613.013L1350.1 613.247C1348.21 613.379 1347.15 614.214 1347.15 615.532C1347.15 616.88 1348.26 617.759 1349.96 617.759ZM1349.08 620.264C1346.06 620.264 1343.95 618.389 1343.95 615.62C1343.95 612.925 1346.02 611.27 1349.68 611.064L1353.9 610.815V609.629C1353.9 607.915 1352.74 606.89 1350.81 606.89C1348.98 606.89 1347.83 607.769 1347.56 609.146H1344.57C1344.74 606.362 1347.12 604.312 1350.92 604.312C1354.66 604.312 1357.05 606.289 1357.05 609.38V620H1354.02V617.466H1353.94C1353.05 619.18 1351.1 620.264 1349.08 620.264ZM1360.12 620V604.59H1363.14V607.168H1363.21C1364.05 605.41 1365.69 604.326 1368.06 604.326C1371.46 604.326 1373.41 606.494 1373.41 610.024V620H1370.23V610.64C1370.23 608.325 1369.15 607.051 1366.95 607.051C1364.72 607.051 1363.29 608.633 1363.29 611.021V620H1360.12ZM1382.26 620.264C1378.36 620.264 1375.78 617.158 1375.78 612.295C1375.78 607.432 1378.36 604.341 1382.23 604.341C1384.44 604.341 1386.2 605.454 1387.06 607.153H1387.12V598.862H1390.3V620H1387.22V617.378H1387.17C1386.26 619.136 1384.5 620.264 1382.26 620.264ZM1383.09 607.007C1380.59 607.007 1379.02 609.058 1379.02 612.295C1379.02 615.547 1380.59 617.583 1383.09 617.583C1385.52 617.583 1387.15 615.518 1387.15 612.295C1387.15 609.102 1385.52 607.007 1383.09 607.007ZM1399.09 614.111H1402.33C1402.56 616.206 1404.6 617.583 1407.38 617.583C1410.05 617.583 1411.96 616.206 1411.96 614.316C1411.96 612.676 1410.81 611.694 1408.07 611.021L1405.33 610.361C1401.45 609.424 1399.65 607.607 1399.65 604.663C1399.65 601.016 1402.82 598.511 1407.34 598.511C1411.8 598.511 1414.87 601.016 1414.97 604.663H1411.77C1411.58 602.554 1409.84 601.279 1407.29 601.279C1404.74 601.279 1403 602.568 1403 604.443C1403 605.938 1404.11 606.816 1406.84 607.49L1409.17 608.062C1413.5 609.087 1415.3 610.83 1415.3 613.921C1415.3 617.876 1412.16 620.352 1407.15 620.352C1402.46 620.352 1399.29 617.935 1399.09 614.111ZM1431.1 609.893H1428.08C1427.76 608.252 1426.53 606.948 1424.46 606.948C1422.01 606.948 1420.4 608.984 1420.4 612.295C1420.4 615.679 1422.03 617.642 1424.49 617.642C1426.44 617.642 1427.71 616.572 1428.08 614.785H1431.12C1430.79 618.066 1428.17 620.293 1424.46 620.293C1420.05 620.293 1417.18 617.275 1417.18 612.295C1417.18 607.402 1420.05 604.312 1424.43 604.312C1428.4 604.312 1430.82 606.86 1431.1 609.893ZM1438.76 617.759C1440.97 617.759 1442.7 616.235 1442.7 614.229V613.013L1438.9 613.247C1437.01 613.379 1435.94 614.214 1435.94 615.532C1435.94 616.88 1437.06 617.759 1438.76 617.759ZM1437.88 620.264C1434.86 620.264 1432.75 618.389 1432.75 615.62C1432.75 612.925 1434.82 611.27 1438.48 611.064L1442.7 610.815V609.629C1442.7 607.915 1441.54 606.89 1439.61 606.89C1437.78 606.89 1436.63 607.769 1436.35 609.146H1433.37C1433.54 606.362 1435.92 604.312 1439.72 604.312C1443.46 604.312 1445.85 606.289 1445.85 609.38V620H1442.81V617.466H1442.74C1441.85 619.18 1439.9 620.264 1437.88 620.264ZM1449.04 620V598.862H1452.2V620H1449.04ZM1461.9 606.86C1459.69 606.86 1458.14 608.545 1457.98 610.874H1465.68C1465.61 608.516 1464.11 606.86 1461.9 606.86ZM1465.67 615.474H1468.67C1468.23 618.286 1465.56 620.293 1462.03 620.293C1457.51 620.293 1454.77 617.231 1454.77 612.368C1454.77 607.534 1457.55 604.312 1461.9 604.312C1466.18 604.312 1468.84 607.329 1468.84 612.002V613.086H1457.96V613.276C1457.96 615.957 1459.57 617.729 1462.11 617.729C1463.91 617.729 1465.24 616.821 1465.67 615.474ZM1484.02 620.293C1479.61 620.293 1476.71 617.261 1476.71 612.295C1476.71 607.344 1479.63 604.312 1484.02 604.312C1488.42 604.312 1491.33 607.344 1491.33 612.295C1491.33 617.261 1488.43 620.293 1484.02 620.293ZM1484.02 617.686C1486.51 617.686 1488.11 615.723 1488.11 612.295C1488.11 608.882 1486.5 606.919 1484.02 606.919C1481.54 606.919 1479.93 608.882 1479.93 612.295C1479.93 615.723 1481.54 617.686 1484.02 617.686ZM1493.78 620V604.59H1496.79V607.168H1496.87C1497.7 605.41 1499.34 604.326 1501.72 604.326C1505.11 604.326 1507.06 606.494 1507.06 610.024V620H1503.88V610.64C1503.88 608.325 1502.8 607.051 1500.6 607.051C1498.38 607.051 1496.94 608.633 1496.94 611.021V620H1493.78ZM1519.88 620H1516.6V598.862H1529.8V601.689H1519.88V608.384H1528.96V611.152H1519.88V620ZM1532.27 620V604.59H1535.29V607.212H1535.36C1535.88 605.41 1537.25 604.341 1539.07 604.341C1539.52 604.341 1539.92 604.414 1540.15 604.458V607.402C1539.9 607.3 1539.35 607.227 1538.73 607.227C1536.7 607.227 1535.44 608.589 1535.44 610.771V620H1532.27ZM1547.89 606.86C1545.68 606.86 1544.12 608.545 1543.96 610.874H1551.67C1551.59 608.516 1550.1 606.86 1547.89 606.86ZM1551.65 615.474H1554.66C1554.22 618.286 1551.55 620.293 1548.02 620.293C1543.49 620.293 1540.75 617.231 1540.75 612.368C1540.75 607.534 1543.54 604.312 1547.89 604.312C1552.17 604.312 1554.83 607.329 1554.83 612.002V613.086H1543.95V613.276C1543.95 615.957 1545.56 617.729 1548.09 617.729C1549.89 617.729 1551.23 616.821 1551.65 615.474ZM1557.01 608.955C1557.01 606.201 1559.45 604.312 1563.05 604.312C1566.48 604.312 1568.88 606.23 1568.98 608.97H1566.01C1565.86 607.578 1564.73 606.714 1562.96 606.714C1561.25 606.714 1560.1 607.549 1560.1 608.765C1560.1 609.717 1560.87 610.361 1562.46 610.757L1565.06 611.357C1568.16 612.104 1569.33 613.276 1569.33 615.547C1569.33 618.359 1566.71 620.293 1562.93 620.293C1559.28 620.293 1556.87 618.403 1556.62 615.576H1559.75C1560 617.056 1561.14 617.876 1563.08 617.876C1564.98 617.876 1566.15 617.085 1566.15 615.84C1566.15 614.858 1565.57 614.316 1563.96 613.906L1561.2 613.232C1558.42 612.559 1557.01 611.108 1557.01 608.955ZM1571.91 620V598.862H1575.05V607.168H1575.12C1575.97 605.366 1577.65 604.326 1580 604.326C1583.38 604.326 1585.4 606.582 1585.4 610.068V620H1582.22V610.684C1582.22 608.413 1581.08 607.051 1578.85 607.051C1576.51 607.051 1575.08 608.662 1575.08 611.094V620H1571.91ZM1616.33 620H1613.32V604.443H1613.22L1606.85 619.839H1604.42L1598.03 604.443H1597.93V620H1594.94V598.862H1598.73L1605.57 615.547H1605.69L1612.52 598.862H1616.33V620ZM1624.82 617.759C1627.03 617.759 1628.76 616.235 1628.76 614.229V613.013L1624.97 613.247C1623.08 613.379 1622.01 614.214 1622.01 615.532C1622.01 616.88 1623.12 617.759 1624.82 617.759ZM1623.94 620.264C1620.92 620.264 1618.82 618.389 1618.82 615.62C1618.82 612.925 1620.88 611.27 1624.54 611.064L1628.76 610.815V609.629C1628.76 607.915 1627.6 606.89 1625.67 606.89C1623.84 606.89 1622.7 607.769 1622.42 609.146H1619.43C1619.61 606.362 1621.98 604.312 1625.79 604.312C1629.52 604.312 1631.91 606.289 1631.91 609.38V620H1628.88V617.466H1628.81C1627.91 619.18 1625.96 620.264 1623.94 620.264ZM1634.99 620V604.59H1638V607.212H1638.08C1638.59 605.41 1639.97 604.341 1641.78 604.341C1642.24 604.341 1642.63 604.414 1642.87 604.458V607.402C1642.62 607.3 1642.06 607.227 1641.45 607.227C1639.41 607.227 1638.15 608.589 1638.15 610.771V620H1634.99ZM1648.14 611.196L1654.37 604.59H1658.09L1651.7 611.226L1658.34 620H1654.66L1649.43 613.159L1648.11 614.463V620H1644.95V598.862H1648.11V611.196H1648.14ZM1665.69 606.86C1663.48 606.86 1661.93 608.545 1661.76 610.874H1669.47C1669.4 608.516 1667.9 606.86 1665.69 606.86ZM1669.46 615.474H1672.46C1672.02 618.286 1669.35 620.293 1665.82 620.293C1661.3 620.293 1658.56 617.231 1658.56 612.368C1658.56 607.534 1661.34 604.312 1665.69 604.312C1669.97 604.312 1672.63 607.329 1672.63 612.002V613.086H1661.75V613.276C1661.75 615.957 1663.36 617.729 1665.9 617.729C1667.7 617.729 1669.03 616.821 1669.46 615.474ZM1676.02 600.942H1679.2V604.59H1682.13V607.095H1679.2V615.591C1679.2 616.924 1679.78 617.524 1681.07 617.524C1681.39 617.524 1681.91 617.495 1682.11 617.451V619.956C1681.76 620.044 1681.06 620.103 1680.35 620.103C1677.23 620.103 1676.02 618.916 1676.02 615.942V607.095H1673.78V604.59H1676.02V600.942ZM1684.46 608.955C1684.46 606.201 1686.89 604.312 1690.49 604.312C1693.92 604.312 1696.32 606.23 1696.42 608.97H1693.45C1693.3 607.578 1692.17 606.714 1690.4 606.714C1688.69 606.714 1687.55 607.549 1687.55 608.765C1687.55 609.717 1688.31 610.361 1689.9 610.757L1692.5 611.357C1695.6 612.104 1696.77 613.276 1696.77 615.547C1696.77 618.359 1694.15 620.293 1690.37 620.293C1686.73 620.293 1684.31 618.403 1684.06 615.576H1687.19C1687.44 617.056 1688.59 617.876 1690.52 617.876C1692.42 617.876 1693.6 617.085 1693.6 615.84C1693.6 614.858 1693.01 614.316 1691.4 613.906L1688.64 613.232C1685.86 612.559 1684.46 611.108 1684.46 608.955Z" fill="#EDEDFF"/>
<rect x="1322.5" y="408.5" width="401" height="237" rx="20.5" stroke="#E0F01E" shape-rendering="crispEdges"/>
</g>
<g filter="url(#filter4_d_567_1416)">
<rect x="780" y="449" width="424" height="196" rx="20" fill="#100F0F" shape-rendering="crispEdges"/>
<path d="M816.968 509.61C808.74 509.61 803.223 503.897 803.223 495.377C803.223 482.438 810.84 473.16 821.484 473.16C829.81 473.16 835.352 478.824 835.352 487.296C835.352 500.235 827.637 509.61 816.968 509.61ZM813.672 495.133C813.672 499.454 814.941 501.725 817.383 501.725C821.338 501.725 824.902 495.011 824.902 487.564C824.902 483.268 823.608 481.046 821.094 481.046C817.163 481.046 813.672 487.687 813.672 495.133ZM852.173 509.61C844.116 509.61 838.281 504.996 838.281 498.624C838.281 498.038 838.232 498.99 838.33 497.501H847.607C847.778 500.064 849.854 501.798 852.759 501.798C855.786 501.798 858.179 499.405 858.179 496.378C858.179 493.546 856.348 491.739 853.516 491.739C851.929 491.739 850 492.667 849.048 493.912H839.844L845.728 473.771H870.166L868.433 481.607H852.173L850.049 488.004H850.244C852.124 486.197 854.541 485.147 857.886 485.147C863.501 485.147 867.7 489.518 867.7 495.328C867.7 503.653 861.23 509.61 852.173 509.61Z" fill="#0C62FD"/>
<path d="M815.718 580L813.784 574.287H805.728L803.794 580H800.381L808.013 558.862H811.558L819.189 580H815.718ZM809.712 562.378L806.562 571.65H812.949L809.8 562.378H809.712ZM821.255 580V558.862H824.419V580H821.255ZM827.788 580V558.862H830.952V580H827.788ZM840.679 558.862H848.604C852.705 558.862 855.562 561.689 855.562 565.806C855.562 569.937 852.646 572.778 848.501 572.778H843.96V580H840.679V558.862ZM843.96 561.631V570.024H847.725C850.581 570.024 852.207 568.486 852.207 565.82C852.207 563.154 850.581 561.631 847.739 561.631H843.96ZM862.212 577.759C864.424 577.759 866.152 576.235 866.152 574.229V573.013L862.358 573.247C860.469 573.379 859.399 574.214 859.399 575.532C859.399 576.88 860.513 577.759 862.212 577.759ZM861.333 580.264C858.315 580.264 856.206 578.389 856.206 575.62C856.206 572.925 858.271 571.27 861.934 571.064L866.152 570.815V569.629C866.152 567.915 864.995 566.89 863.062 566.89C861.23 566.89 860.088 567.769 859.81 569.146H856.821C856.997 566.362 859.37 564.312 863.179 564.312C866.914 564.312 869.302 566.289 869.302 569.38V580H866.27V577.466H866.196C865.303 579.18 863.354 580.264 861.333 580.264ZM873.901 585.742C873.652 585.742 872.847 585.713 872.612 585.669V583.105C872.847 583.164 873.374 583.164 873.638 583.164C875.117 583.164 875.894 582.549 876.377 580.967C876.377 580.938 876.655 580.029 876.655 580.015L871.089 564.59H874.517L878.428 577.129H878.472L882.383 564.59H885.723L879.937 580.806C878.618 584.541 877.109 585.742 873.901 585.742ZM893.765 580.293C889.355 580.293 886.455 577.261 886.455 572.295C886.455 567.344 889.37 564.312 893.765 564.312C898.159 564.312 901.074 567.344 901.074 572.295C901.074 577.261 898.174 580.293 893.765 580.293ZM893.765 577.686C896.255 577.686 897.852 575.723 897.852 572.295C897.852 568.882 896.24 566.919 893.765 566.919C891.289 566.919 889.678 568.882 889.678 572.295C889.678 575.723 891.289 577.686 893.765 577.686ZM916.733 564.59V580H913.701V577.393H913.628C912.778 579.238 911.211 580.278 908.853 580.278C905.498 580.278 903.447 578.096 903.447 574.565V564.59H906.611V573.95C906.611 576.294 907.725 577.554 909.907 577.554C912.192 577.554 913.569 575.972 913.569 573.569V564.59H916.733ZM920.791 560.942H923.97V564.59H926.899V567.095H923.97V575.591C923.97 576.924 924.556 577.524 925.845 577.524C926.167 577.524 926.68 577.495 926.885 577.451V579.956C926.533 580.044 925.83 580.103 925.127 580.103C922.007 580.103 920.791 578.916 920.791 575.942V567.095H918.55V564.59H920.791V560.942ZM957.368 580H954.365V564.443H954.263L947.891 579.839H945.459L939.072 564.443H938.97V580H935.981V558.862H939.775L946.616 575.547H946.733L953.56 558.862H957.368V580ZM967.505 580.293C963.096 580.293 960.195 577.261 960.195 572.295C960.195 567.344 963.11 564.312 967.505 564.312C971.899 564.312 974.814 567.344 974.814 572.295C974.814 577.261 971.914 580.293 967.505 580.293ZM967.505 577.686C969.995 577.686 971.592 575.723 971.592 572.295C971.592 568.882 969.98 566.919 967.505 566.919C965.029 566.919 963.418 568.882 963.418 572.295C963.418 575.723 965.029 577.686 967.505 577.686ZM983.047 580.264C979.15 580.264 976.572 577.158 976.572 572.295C976.572 567.432 979.15 564.341 983.018 564.341C985.229 564.341 986.987 565.454 987.852 567.153H987.91V558.862H991.089V580H988.013V577.378H987.954C987.046 579.136 985.288 580.264 983.047 580.264ZM983.882 567.007C981.377 567.007 979.81 569.058 979.81 572.295C979.81 575.547 981.377 577.583 983.882 577.583C986.313 577.583 987.939 575.518 987.939 572.295C987.939 569.102 986.313 567.007 983.882 567.007ZM1000.79 566.86C998.574 566.86 997.021 568.545 996.86 570.874H1004.57C1004.49 568.516 1003 566.86 1000.79 566.86ZM1004.55 575.474H1007.55C1007.11 578.286 1004.45 580.293 1000.92 580.293C996.392 580.293 993.652 577.231 993.652 572.368C993.652 567.534 996.436 564.312 1000.79 564.312C1005.06 564.312 1007.73 567.329 1007.73 572.002V573.086H996.846V573.276C996.846 575.957 998.457 577.729 1000.99 577.729C1002.79 577.729 1004.13 576.821 1004.55 575.474ZM1010.31 580V558.862H1013.47V580H1010.31ZM1016.45 568.955C1016.45 566.201 1018.88 564.312 1022.48 564.312C1025.91 564.312 1028.31 566.23 1028.41 568.97H1025.44C1025.29 567.578 1024.17 566.714 1022.39 566.714C1020.68 566.714 1019.54 567.549 1019.54 568.765C1019.54 569.717 1020.3 570.361 1021.89 570.757L1024.49 571.357C1027.59 572.104 1028.76 573.276 1028.76 575.547C1028.76 578.359 1026.14 580.293 1022.36 580.293C1018.72 580.293 1016.3 578.403 1016.05 575.576H1019.18C1019.43 577.056 1020.58 577.876 1022.51 577.876C1024.41 577.876 1025.59 577.085 1025.59 575.84C1025.59 574.858 1025 574.316 1023.39 573.906L1020.63 573.232C1017.85 572.559 1016.45 571.108 1016.45 568.955ZM802.739 611.694C802.739 606.567 804.087 602.437 806.973 598.862H809.756C807.646 601.323 805.991 606.86 805.991 611.68C805.991 616.499 807.646 622.051 809.756 624.512H806.973C804.087 620.923 802.739 616.792 802.739 611.694ZM821.182 620.352C815.249 620.352 811.499 616.162 811.499 609.424C811.499 602.729 815.278 598.511 821.182 598.511C825.972 598.511 829.59 601.455 830.146 605.864H826.895C826.309 603.154 824.053 601.382 821.182 601.382C817.344 601.382 814.854 604.531 814.854 609.424C814.854 614.36 817.314 617.48 821.196 617.48C824.141 617.48 826.235 615.972 826.895 613.423H830.161C829.355 617.788 826.045 620.352 821.182 620.352ZM833.12 598.862H841.045C845.146 598.862 848.003 601.689 848.003 605.806C848.003 609.937 845.088 612.778 840.942 612.778H836.401V620H833.12V598.862ZM836.401 601.631V610.024H840.166C843.022 610.024 844.648 608.486 844.648 605.82C844.648 603.154 843.022 601.631 840.181 601.631H836.401ZM862.886 620L860.952 614.287H852.896L850.962 620H847.549L855.181 598.862H858.726L866.357 620H862.886ZM856.88 602.378L853.73 611.65H860.117L856.968 602.378H856.88ZM870.547 624.351H868.027L869.346 616.616H872.539L870.547 624.351ZM884.36 601.616V609.219H888.96C891.494 609.219 892.944 607.827 892.944 605.41C892.944 603.052 891.406 601.616 888.872 601.616H884.36ZM884.36 611.87V620H881.079V598.862H889.268C893.618 598.862 896.328 601.382 896.328 605.322C896.328 608.179 894.805 610.493 892.227 611.357L896.958 620H893.179L888.872 611.87H884.36ZM905.513 606.86C903.301 606.86 901.748 608.545 901.587 610.874H909.292C909.219 608.516 907.725 606.86 905.513 606.86ZM909.277 615.474H912.28C911.841 618.286 909.175 620.293 905.645 620.293C901.118 620.293 898.379 617.231 898.379 612.368C898.379 607.534 901.162 604.312 905.513 604.312C909.79 604.312 912.456 607.329 912.456 612.002V613.086H901.572V613.276C901.572 615.957 903.184 617.729 905.718 617.729C907.52 617.729 908.853 616.821 909.277 615.474ZM927.983 604.59L922.461 620H919.062L913.511 604.59H916.88L920.747 616.909H920.806L924.673 604.59H927.983ZM935.806 606.86C933.594 606.86 932.041 608.545 931.88 610.874H939.585C939.512 608.516 938.018 606.86 935.806 606.86ZM939.57 615.474H942.573C942.134 618.286 939.468 620.293 935.938 620.293C931.411 620.293 928.672 617.231 928.672 612.368C928.672 607.534 931.455 604.312 935.806 604.312C940.083 604.312 942.749 607.329 942.749 612.002V613.086H931.865V613.276C931.865 615.957 933.477 617.729 936.011 617.729C937.812 617.729 939.146 616.821 939.57 615.474ZM945.21 620V604.59H948.228V607.168H948.301C949.136 605.41 950.776 604.326 953.149 604.326C956.548 604.326 958.496 606.494 958.496 610.024V620H955.317V610.64C955.317 608.325 954.233 607.051 952.036 607.051C949.81 607.051 948.374 608.633 948.374 611.021V620H945.21ZM974.771 604.59V620H971.738V617.393H971.665C970.815 619.238 969.248 620.278 966.89 620.278C963.535 620.278 961.484 618.096 961.484 614.565V604.59H964.648V613.95C964.648 616.294 965.762 617.554 967.944 617.554C970.229 617.554 971.606 615.972 971.606 613.569V604.59H974.771ZM984.351 606.86C982.139 606.86 980.586 608.545 980.425 610.874H988.13C988.057 608.516 986.562 606.86 984.351 606.86ZM988.115 615.474H991.118C990.679 618.286 988.013 620.293 984.482 620.293C979.956 620.293 977.217 617.231 977.217 612.368C977.217 607.534 980 604.312 984.351 604.312C988.628 604.312 991.294 607.329 991.294 612.002V613.086H980.41V613.276C980.41 615.957 982.021 617.729 984.556 617.729C986.357 617.729 987.69 616.821 988.115 615.474ZM999.292 614.111H1002.53C1002.76 616.206 1004.8 617.583 1007.58 617.583C1010.25 617.583 1012.17 616.206 1012.17 614.316C1012.17 612.676 1011.01 611.694 1008.27 611.021L1005.53 610.361C1001.65 609.424 999.849 607.607 999.849 604.663C999.849 601.016 1003.03 598.511 1007.54 598.511C1012.01 598.511 1015.07 601.016 1015.17 604.663H1011.98C1011.79 602.554 1010.04 601.279 1007.5 601.279C1004.95 601.279 1003.2 602.568 1003.2 604.443C1003.2 605.938 1004.32 606.816 1007.04 607.49L1009.37 608.062C1013.71 609.087 1015.51 610.83 1015.51 613.921C1015.51 617.876 1012.36 620.352 1007.35 620.352C1002.66 620.352 999.497 617.935 999.292 614.111ZM1018.19 620V598.862H1021.32V607.168H1021.4C1022.25 605.366 1023.93 604.326 1026.27 604.326C1029.66 604.326 1031.68 606.582 1031.68 610.068V620H1028.5V610.684C1028.5 608.413 1027.36 607.051 1025.13 607.051C1022.79 607.051 1021.35 608.662 1021.35 611.094V620H1018.19ZM1040.13 617.759C1042.34 617.759 1044.07 616.235 1044.07 614.229V613.013L1040.28 613.247C1038.39 613.379 1037.32 614.214 1037.32 615.532C1037.32 616.88 1038.43 617.759 1040.13 617.759ZM1039.25 620.264C1036.24 620.264 1034.13 618.389 1034.13 615.62C1034.13 612.925 1036.19 611.27 1039.85 611.064L1044.07 610.815V609.629C1044.07 607.915 1042.92 606.89 1040.98 606.89C1039.15 606.89 1038.01 607.769 1037.73 609.146H1034.74C1034.92 606.362 1037.29 604.312 1041.1 604.312C1044.83 604.312 1047.22 606.289 1047.22 609.38V620H1044.19V617.466H1044.12C1043.22 619.18 1041.27 620.264 1039.25 620.264ZM1050.3 620V604.59H1053.32V607.212H1053.39C1053.9 605.41 1055.28 604.341 1057.09 604.341C1057.55 604.341 1057.94 604.414 1058.18 604.458V607.402C1057.93 607.3 1057.37 607.227 1056.76 607.227C1054.72 607.227 1053.46 608.589 1053.46 610.771V620H1050.3ZM1065.91 606.86C1063.7 606.86 1062.15 608.545 1061.99 610.874H1069.69C1069.62 608.516 1068.12 606.86 1065.91 606.86ZM1069.68 615.474H1072.68C1072.24 618.286 1069.58 620.293 1066.04 620.293C1061.52 620.293 1058.78 617.231 1058.78 612.368C1058.78 607.534 1061.56 604.312 1065.91 604.312C1070.19 604.312 1072.86 607.329 1072.86 612.002V613.086H1061.97V613.276C1061.97 615.957 1063.58 617.729 1066.12 617.729C1067.92 617.729 1069.25 616.821 1069.68 615.474ZM1077.56 624.351H1075.04L1076.36 616.616H1079.55L1077.56 624.351ZM1105.51 620H1102.23V610.64H1091.37V620H1088.09V598.862H1091.37V607.798H1102.23V598.862H1105.51V620ZM1110.53 625.742C1110.28 625.742 1109.48 625.713 1109.24 625.669V623.105C1109.48 623.164 1110 623.164 1110.27 623.164C1111.75 623.164 1112.52 622.549 1113.01 620.967C1113.01 620.938 1113.29 620.029 1113.29 620.015L1107.72 604.59H1111.15L1115.06 617.129H1115.1L1119.01 604.59H1122.35L1116.57 620.806C1115.25 624.541 1113.74 625.742 1110.53 625.742ZM1132.42 620.264C1130.16 620.264 1128.42 619.165 1127.47 617.378H1127.41V620H1124.33V598.862H1127.5V607.212H1127.57C1128.49 605.425 1130.25 604.341 1132.43 604.341C1136.31 604.341 1138.85 607.417 1138.85 612.295C1138.85 617.188 1136.33 620.264 1132.42 620.264ZM1131.57 607.007C1129.17 607.007 1127.48 609.116 1127.48 612.295C1127.48 615.503 1129.17 617.583 1131.57 617.583C1134.06 617.583 1135.6 615.562 1135.6 612.295C1135.6 609.058 1134.06 607.007 1131.57 607.007ZM1141.32 620V604.59H1144.34V607.212H1144.41C1144.93 605.41 1146.3 604.341 1148.12 604.341C1148.57 604.341 1148.97 604.414 1149.2 604.458V607.402C1148.96 607.3 1148.4 607.227 1147.78 607.227C1145.75 607.227 1144.49 608.589 1144.49 610.771V620H1141.32ZM1151.27 620V604.59H1154.43V620H1151.27ZM1152.85 602.334C1151.84 602.334 1151.02 601.528 1151.02 600.532C1151.02 599.521 1151.84 598.716 1152.85 598.716C1153.88 598.716 1154.7 599.521 1154.7 600.532C1154.7 601.528 1153.88 602.334 1152.85 602.334ZM1163.46 620.264C1159.56 620.264 1156.98 617.158 1156.98 612.295C1156.98 607.432 1159.56 604.341 1163.43 604.341C1165.64 604.341 1167.4 605.454 1168.26 607.153H1168.32V598.862H1171.5V620H1168.42V617.378H1168.36C1167.46 619.136 1165.7 620.264 1163.46 620.264ZM1164.29 607.007C1161.79 607.007 1160.22 609.058 1160.22 612.295C1160.22 615.547 1161.79 617.583 1164.29 617.583C1166.72 617.583 1168.35 615.518 1168.35 612.295C1168.35 609.102 1166.72 607.007 1164.29 607.007ZM1180.76 611.694C1180.76 618.096 1178.68 621.846 1176.52 624.512H1173.74C1175.21 622.812 1177.5 618.008 1177.5 611.68C1177.5 605.352 1175.19 600.547 1173.74 598.862H1176.52C1178.68 601.514 1180.76 605.264 1180.76 611.694Z" fill="#EDEDFF"/>
<rect x="779.5" y="448.5" width="425" height="197" rx="20.5" stroke="#0C62FD" shape-rendering="crispEdges"/>
</g>
<g filter="url(#filter5_d_567_1416)">
<rect x="191" y="449" width="421" height="196" rx="20" fill="#100F0F" shape-rendering="crispEdges"/>
<path d="M227.968 509.61C219.74 509.61 214.223 503.897 214.223 495.377C214.223 482.438 221.84 473.16 232.484 473.16C240.81 473.16 246.352 478.824 246.352 487.296C246.352 500.235 238.637 509.61 227.968 509.61ZM224.672 495.133C224.672 499.454 225.941 501.725 228.383 501.725C232.338 501.725 235.902 495.011 235.902 487.564C235.902 483.268 234.608 481.046 232.094 481.046C228.163 481.046 224.672 487.687 224.672 495.133ZM279.457 496.427C279.457 503.849 273.012 509.61 264.687 509.61C255.36 509.61 249.892 504.093 249.892 494.669C249.892 482.242 257.606 473.16 268.129 473.16C275.966 473.16 281.63 477.701 281.63 484H271.791C271.4 482.12 269.911 481.021 267.714 481.021C264.003 481.021 260.878 484.781 260.194 490.055H260.39C262.318 487.418 265.346 485.978 268.983 485.978C275.087 485.978 279.457 490.323 279.457 496.427ZM264.979 492.765C262.025 492.765 259.828 494.815 259.828 497.574C259.828 500.04 261.83 501.871 264.564 501.871C267.494 501.871 269.643 499.845 269.643 497.086C269.643 494.571 267.689 492.765 264.979 492.765Z" fill="#00E291"/>
<path d="M226.718 580L224.784 574.287H216.728L214.794 580H211.381L219.013 558.862H222.558L230.189 580H226.718ZM220.712 562.378L217.562 571.65H223.949L220.8 562.378H220.712ZM232.255 580V558.862H235.419V580H232.255ZM238.788 580V558.862H241.952V580H238.788ZM260.204 580H256.923V561.689H250.448V558.862H266.664V561.689H260.204V580ZM267.587 585.742C267.338 585.742 266.532 585.713 266.298 585.669V583.105C266.532 583.164 267.06 583.164 267.323 583.164C268.803 583.164 269.579 582.549 270.062 580.967C270.062 580.938 270.341 580.029 270.341 580.015L264.774 564.59H268.202L272.113 577.129H272.157L276.068 564.59H279.408L273.622 580.806C272.304 584.541 270.795 585.742 267.587 585.742ZM289.296 564.341C293.207 564.341 295.785 567.417 295.785 572.295C295.785 577.173 293.222 580.264 289.354 580.264C287.143 580.264 285.385 579.18 284.506 577.466H284.433V585.098H281.269V564.59H284.33V567.241H284.389C285.297 565.469 287.069 564.341 289.296 564.341ZM288.461 577.583C290.966 577.583 292.533 575.532 292.533 572.295C292.533 569.072 290.966 567.007 288.461 567.007C286.044 567.007 284.418 569.116 284.418 572.295C284.418 575.503 286.029 577.583 288.461 577.583ZM304.677 566.86C302.465 566.86 300.912 568.545 300.751 570.874H308.456C308.383 568.516 306.889 566.86 304.677 566.86ZM308.441 575.474H311.444C311.005 578.286 308.339 580.293 304.809 580.293C300.282 580.293 297.543 577.231 297.543 572.368C297.543 567.534 300.326 564.312 304.677 564.312C308.954 564.312 311.62 567.329 311.62 572.002V573.086H300.736V573.276C300.736 575.957 302.348 577.729 304.882 577.729C306.684 577.729 308.017 576.821 308.441 575.474ZM313.803 568.955C313.803 566.201 316.234 564.312 319.838 564.312C323.266 564.312 325.668 566.23 325.771 568.97H322.797C322.65 567.578 321.522 566.714 319.75 566.714C318.036 566.714 316.894 567.549 316.894 568.765C316.894 569.717 317.655 570.361 319.252 570.757L321.845 571.357C324.95 572.104 326.122 573.276 326.122 575.547C326.122 578.359 323.5 580.293 319.721 580.293C316.073 580.293 313.656 578.403 313.407 575.576H316.542C316.791 577.056 317.934 577.876 319.867 577.876C321.771 577.876 322.943 577.085 322.943 575.84C322.943 574.858 322.357 574.316 320.746 573.906L317.992 573.232C315.209 572.559 313.803 571.108 313.803 568.955ZM341.298 580.293C336.889 580.293 333.988 577.261 333.988 572.295C333.988 567.344 336.903 564.312 341.298 564.312C345.692 564.312 348.607 567.344 348.607 572.295C348.607 577.261 345.707 580.293 341.298 580.293ZM341.298 577.686C343.788 577.686 345.385 575.723 345.385 572.295C345.385 568.882 343.773 566.919 341.298 566.919C338.822 566.919 337.211 568.882 337.211 572.295C337.211 575.723 338.822 577.686 341.298 577.686ZM351.977 580V567.095H349.853V564.619H351.977V563.11C351.977 560.122 353.383 558.716 356.518 558.716C357.162 558.716 357.88 558.789 358.29 558.862V561.206C357.982 561.147 357.558 561.118 357.133 561.118C355.756 561.118 355.111 561.807 355.111 563.169V564.619H358.231V567.095H355.155V580H351.977ZM370.478 580H367.196V558.862H370.478V580ZM373.993 580V564.59H377.011V567.168H377.084C377.919 565.41 379.56 564.326 381.933 564.326C385.331 564.326 387.279 566.494 387.279 570.024V580H384.101V570.64C384.101 568.325 383.017 567.051 380.819 567.051C378.593 567.051 377.157 568.633 377.157 571.021V580H373.993ZM391.264 560.942H394.442V564.59H397.372V567.095H394.442V575.591C394.442 576.924 395.028 577.524 396.317 577.524C396.64 577.524 397.152 577.495 397.357 577.451V579.956C397.006 580.044 396.303 580.103 395.6 580.103C392.479 580.103 391.264 578.916 391.264 575.942V567.095H389.022V564.59H391.264V560.942ZM406.044 566.86C403.832 566.86 402.279 568.545 402.118 570.874H409.823C409.75 568.516 408.256 566.86 406.044 566.86ZM409.809 575.474H412.812C412.372 578.286 409.706 580.293 406.176 580.293C401.649 580.293 398.91 577.231 398.91 572.368C398.91 567.534 401.693 564.312 406.044 564.312C410.321 564.312 412.987 567.329 412.987 572.002V573.086H402.104V573.276C402.104 575.957 403.715 577.729 406.249 577.729C408.051 577.729 409.384 576.821 409.809 575.474ZM422.011 577.437C424.486 577.437 426.112 575.43 426.112 572.251C426.112 569.087 424.486 567.007 422.011 567.007C419.579 567.007 417.997 569.043 417.997 572.251C417.997 575.474 419.579 577.437 422.011 577.437ZM422.04 585.801C418.407 585.801 415.712 583.867 415.316 581.201H418.495C418.949 582.49 420.355 583.34 422.157 583.34C424.633 583.34 426.098 581.934 426.098 579.824V577.29H426.039C425.175 578.96 423.358 580.059 421.161 580.059C417.294 580.059 414.76 577.041 414.76 572.236C414.76 567.388 417.279 564.341 421.234 564.341C423.417 564.341 425.204 565.439 426.142 567.227H426.2V564.59H429.276V579.722C429.276 583.398 426.435 585.801 422.04 585.801ZM432.411 580V564.59H435.429V567.212H435.502C436.015 565.41 437.392 564.341 439.208 564.341C439.662 564.341 440.058 564.414 440.292 564.458V567.402C440.043 567.3 439.486 567.227 438.871 567.227C436.835 567.227 435.575 568.589 435.575 570.771V580H432.411ZM447.323 577.759C449.535 577.759 451.264 576.235 451.264 574.229V573.013L447.47 573.247C445.58 573.379 444.511 574.214 444.511 575.532C444.511 576.88 445.624 577.759 447.323 577.759ZM446.444 580.264C443.427 580.264 441.317 578.389 441.317 575.62C441.317 572.925 443.383 571.27 447.045 571.064L451.264 570.815V569.629C451.264 567.915 450.106 566.89 448.173 566.89C446.342 566.89 445.199 567.769 444.921 569.146H441.933C442.108 566.362 444.481 564.312 448.29 564.312C452.025 564.312 454.413 566.289 454.413 569.38V580H451.381V577.466H451.308C450.414 579.18 448.466 580.264 446.444 580.264ZM458.412 560.942H461.591V564.59H464.521V567.095H461.591V575.591C461.591 576.924 462.177 577.524 463.466 577.524C463.788 577.524 464.301 577.495 464.506 577.451V579.956C464.154 580.044 463.451 580.103 462.748 580.103C459.628 580.103 458.412 578.916 458.412 575.942V567.095H456.171V564.59H458.412V560.942ZM467.23 580V564.59H470.395V580H467.23ZM468.812 562.334C467.802 562.334 466.981 561.528 466.981 560.532C466.981 559.521 467.802 558.716 468.812 558.716C469.838 558.716 470.658 559.521 470.658 560.532C470.658 561.528 469.838 562.334 468.812 562.334ZM480.253 580.293C475.844 580.293 472.943 577.261 472.943 572.295C472.943 567.344 475.858 564.312 480.253 564.312C484.647 564.312 487.562 567.344 487.562 572.295C487.562 577.261 484.662 580.293 480.253 580.293ZM480.253 577.686C482.743 577.686 484.34 575.723 484.34 572.295C484.34 568.882 482.729 566.919 480.253 566.919C477.777 566.919 476.166 568.882 476.166 572.295C476.166 575.723 477.777 577.686 480.253 577.686ZM490.009 580V564.59H493.026V567.168H493.1C493.935 565.41 495.575 564.326 497.948 564.326C501.347 564.326 503.295 566.494 503.295 570.024V580H500.116V570.64C500.116 568.325 499.032 567.051 496.835 567.051C494.608 567.051 493.173 568.633 493.173 571.021V580H490.009ZM213.739 611.694C213.739 606.567 215.087 602.437 217.973 598.862H220.756C218.646 601.323 216.991 606.86 216.991 611.68C216.991 616.499 218.646 622.051 220.756 624.512H217.973C215.087 620.923 213.739 616.792 213.739 611.694ZM222.323 614.111H225.561C225.795 616.206 227.831 617.583 230.614 617.583C233.28 617.583 235.199 616.206 235.199 614.316C235.199 612.676 234.042 611.694 231.303 611.021L228.563 610.361C224.682 609.424 222.88 607.607 222.88 604.663C222.88 601.016 226.059 598.511 230.57 598.511C235.038 598.511 238.1 601.016 238.202 604.663H235.009C234.818 602.554 233.075 601.279 230.526 601.279C227.978 601.279 226.234 602.568 226.234 604.443C226.234 605.938 227.348 606.816 230.072 607.49L232.401 608.062C236.737 609.087 238.539 610.83 238.539 613.921C238.539 617.876 235.39 620.352 230.38 620.352C225.692 620.352 222.528 617.935 222.323 614.111ZM241 605.059C241 601.25 244.062 598.467 248.266 598.467C252.294 598.467 255.297 601.03 255.297 604.385C255.297 606.846 253.979 608.677 250.888 611.841L245.6 617.158V617.231H255.634V620H241.176V617.773L248.808 609.995C251.386 607.314 252.06 606.201 252.06 604.546C252.06 602.671 250.36 601.177 248.163 601.177C245.849 601.177 244.105 602.847 244.105 605.044V605.088H241V605.059ZM257.919 614.111H261.156C261.391 616.206 263.427 617.583 266.21 617.583C268.876 617.583 270.795 616.206 270.795 614.316C270.795 612.676 269.638 611.694 266.898 611.021L264.159 610.361C260.277 609.424 258.476 607.607 258.476 604.663C258.476 601.016 261.654 598.511 266.166 598.511C270.634 598.511 273.695 601.016 273.798 604.663H270.604C270.414 602.554 268.671 601.279 266.122 601.279C263.573 601.279 261.83 602.568 261.83 604.443C261.83 605.938 262.943 606.816 265.668 607.49L267.997 608.062C272.333 609.087 274.135 610.83 274.135 613.921C274.135 617.876 270.985 620.352 265.976 620.352C261.288 620.352 258.124 617.935 257.919 614.111ZM278.939 624.351H276.42L277.738 616.616H280.932L278.939 624.351ZM289.472 598.862H296.928C303.212 598.862 306.933 602.729 306.933 609.395C306.933 616.074 303.227 620 296.928 620H289.472V598.862ZM292.753 601.689V617.158H296.62C301.103 617.158 303.578 614.419 303.578 609.424C303.578 604.443 301.088 601.689 296.62 601.689H292.753ZM309.789 620V604.59H312.953V620H309.789ZM311.371 602.334C310.36 602.334 309.54 601.528 309.54 600.532C309.54 599.521 310.36 598.716 311.371 598.716C312.396 598.716 313.217 599.521 313.217 600.532C313.217 601.528 312.396 602.334 311.371 602.334ZM316.19 620V604.59H319.208V607.212H319.281C319.794 605.41 321.171 604.341 322.987 604.341C323.441 604.341 323.837 604.414 324.071 604.458V607.402C323.822 607.3 323.266 607.227 322.65 607.227C320.614 607.227 319.354 608.589 319.354 610.771V620H316.19ZM331.806 606.86C329.594 606.86 328.041 608.545 327.88 610.874H335.585C335.512 608.516 334.018 606.86 331.806 606.86ZM335.57 615.474H338.573C338.134 618.286 335.468 620.293 331.938 620.293C327.411 620.293 324.672 617.231 324.672 612.368C324.672 607.534 327.455 604.312 331.806 604.312C336.083 604.312 338.749 607.329 338.749 612.002V613.086H327.865V613.276C327.865 615.957 329.477 617.729 332.011 617.729C333.812 617.729 335.146 616.821 335.57 615.474ZM354.438 609.893H351.42C351.098 608.252 349.867 606.948 347.802 606.948C345.355 606.948 343.744 608.984 343.744 612.295C343.744 615.679 345.37 617.642 347.831 617.642C349.779 617.642 351.054 616.572 351.42 614.785H354.467C354.13 618.066 351.508 620.293 347.802 620.293C343.393 620.293 340.521 617.275 340.521 612.295C340.521 607.402 343.393 604.312 347.772 604.312C351.742 604.312 354.159 606.86 354.438 609.893ZM357.631 600.942H360.81V604.59H363.739V607.095H360.81V615.591C360.81 616.924 361.396 617.524 362.685 617.524C363.007 617.524 363.52 617.495 363.725 617.451V619.956C363.373 620.044 362.67 620.103 361.967 620.103C358.847 620.103 357.631 618.916 357.631 615.942V607.095H355.39V604.59H357.631V600.942ZM372.821 598.862H380.277C386.562 598.862 390.282 602.729 390.282 609.395C390.282 616.074 386.576 620 380.277 620H372.821V598.862ZM376.103 601.689V617.158H379.97C384.452 617.158 386.928 614.419 386.928 609.424C386.928 604.443 384.438 601.689 379.97 601.689H376.103ZM401.898 620H393.417V598.862H401.854C405.604 598.862 408.065 600.942 408.065 604.136C408.065 606.377 406.41 608.384 404.301 608.735V608.853C407.172 609.175 409.105 611.211 409.105 614.023C409.105 617.744 406.396 620 401.898 620ZM396.698 601.543V607.856H400.375C403.217 607.856 404.784 606.685 404.784 604.59C404.784 602.627 403.437 601.543 401.063 601.543H396.698ZM396.698 617.319H401.225C404.184 617.319 405.751 616.104 405.751 613.818C405.751 611.533 404.14 610.361 401.034 610.361H396.698V617.319ZM413.793 624.351H411.273L412.592 616.616H415.785L413.793 624.351ZM438.095 620L436.161 614.287H428.104L426.171 620H422.758L430.39 598.862H433.935L441.566 620H438.095ZM432.089 602.378L428.939 611.65H435.326L432.177 602.378H432.089ZM443.896 598.862H451.82C455.922 598.862 458.778 601.689 458.778 605.806C458.778 609.937 455.863 612.778 451.718 612.778H447.177V620H443.896V598.862ZM447.177 601.631V610.024H450.941C453.798 610.024 455.424 608.486 455.424 605.82C455.424 603.154 453.798 601.631 450.956 601.631H447.177ZM464.931 620H461.649V598.862H464.931V620ZM470.688 624.351H468.168L469.486 616.616H472.68L470.688 624.351ZM490.141 620.352C484.208 620.352 480.458 616.162 480.458 609.424C480.458 602.729 484.237 598.511 490.141 598.511C494.931 598.511 498.549 601.455 499.105 605.864H495.854C495.268 603.154 493.012 601.382 490.141 601.382C486.303 601.382 483.812 604.531 483.812 609.424C483.812 614.36 486.273 617.48 490.155 617.48C493.1 617.48 495.194 615.972 495.854 613.423H499.12C498.314 617.788 495.004 620.352 490.141 620.352ZM514.911 604.59V620H511.879V617.393H511.806C510.956 619.238 509.389 620.278 507.03 620.278C503.676 620.278 501.625 618.096 501.625 614.565V604.59H504.789V613.95C504.789 616.294 505.902 617.554 508.085 617.554C510.37 617.554 511.747 615.972 511.747 613.569V604.59H514.911ZM517.768 608.955C517.768 606.201 520.199 604.312 523.803 604.312C527.23 604.312 529.633 606.23 529.735 608.97H526.762C526.615 607.578 525.487 606.714 523.715 606.714C522.001 606.714 520.858 607.549 520.858 608.765C520.858 609.717 521.62 610.361 523.217 610.757L525.81 611.357C528.915 612.104 530.087 613.276 530.087 615.547C530.087 618.359 527.465 620.293 523.686 620.293C520.038 620.293 517.621 618.403 517.372 615.576H520.507C520.756 617.056 521.898 617.876 523.832 617.876C525.736 617.876 526.908 617.085 526.908 615.84C526.908 614.858 526.322 614.316 524.711 613.906L521.957 613.232C519.174 612.559 517.768 611.108 517.768 608.955ZM533.471 600.942H536.649V604.59H539.579V607.095H536.649V615.591C536.649 616.924 537.235 617.524 538.524 617.524C538.847 617.524 539.359 617.495 539.564 617.451V619.956C539.213 620.044 538.51 620.103 537.807 620.103C534.687 620.103 533.471 618.916 533.471 615.942V607.095H531.229V604.59H533.471V600.942ZM548.427 620.293C544.018 620.293 541.117 617.261 541.117 612.295C541.117 607.344 544.032 604.312 548.427 604.312C552.821 604.312 555.736 607.344 555.736 612.295C555.736 617.261 552.836 620.293 548.427 620.293ZM548.427 617.686C550.917 617.686 552.514 615.723 552.514 612.295C552.514 608.882 550.902 606.919 548.427 606.919C545.951 606.919 544.34 608.882 544.34 612.295C544.34 615.723 545.951 617.686 548.427 617.686ZM558.183 620V604.59H561.2V607.183H561.273C561.962 605.469 563.573 604.326 565.653 604.326C567.792 604.326 569.345 605.425 569.96 607.344H570.033C570.824 605.469 572.641 604.326 574.838 604.326C577.885 604.326 579.877 606.348 579.877 609.409V620H576.698V610.171C576.698 608.179 575.629 607.036 573.754 607.036C571.879 607.036 570.575 608.428 570.575 610.376V620H567.47V609.937C567.47 608.164 566.342 607.036 564.555 607.036C562.68 607.036 561.347 608.501 561.347 610.479V620H558.183ZM588.944 611.694C588.944 618.096 586.864 621.846 584.711 624.512H581.928C583.393 622.812 585.692 618.008 585.692 611.68C585.692 605.352 583.378 600.547 581.928 598.862H584.711C586.864 601.514 588.944 605.264 588.944 611.694Z" fill="#EDEDFF"/>
<rect x="190.5" y="448.5" width="422" height="197" rx="20.5" stroke="#00E291" shape-rendering="crispEdges"/>
</g>
<defs>
<filter id="filter0_d_567_1416" x="140" y="87" width="543" height="268" filterUnits="userSpaceOnUse" color-interpolation-filters="sRGB">
<feFlood flood-opacity="0" result="BackgroundImageFix"/>
<feColorMatrix in="SourceAlpha" type="matrix" values="0 0 0 0 0 0 0 0 0 0 0 0 0 0 0 0 0 0 127 0" result="hardAlpha"/>
<feOffset/>
<feGaussianBlur stdDeviation="17.5"/>
<feComposite in2="hardAlpha" operator="out"/>
<feColorMatrix type="matrix" values="0 0 0 0 0.0470588 0 0 0 0 0.384314 0 0 0 0 0.992157 0 0 0 1 0"/>
<feBlend mode="normal" in2="BackgroundImageFix" result="effect1_dropShadow_567_1416"/>
<feBlend mode="normal" in="SourceGraphic" in2="effect1_dropShadow_567_1416" result="shape"/>
</filter>
<filter id="filter1_d_567_1416" x="774" y="87" width="438" height="228" filterUnits="userSpaceOnUse" color-interpolation-filters="sRGB">
<feFlood flood-opacity="0" result="BackgroundImageFix"/>
<feColorMatrix in="SourceAlpha" type="matrix" values="0 0 0 0 0 0 0 0 0 0 0 0 0 0 0 0 0 0 127 0" result="hardAlpha"/>
<feOffset/>
<feGaussianBlur stdDeviation="17.5"/>
<feComposite in2="hardAlpha" operator="out"/>
<feColorMatrix type="matrix" values="0 0 0 0 0.878431 0 0 0 0 0.941176 0 0 0 0 0.117647 0 0 0 1 0"/>
<feBlend mode="normal" in2="BackgroundImageFix" result="effect1_dropShadow_567_1416"/>
<feBlend mode="normal" in="SourceGraphic" in2="effect1_dropShadow_567_1416" result="shape"/>
</filter>
<filter id="filter2_d_567_1416" x="1294" y="88" width="472" height="306" filterUnits="userSpaceOnUse" color-interpolation-filters="sRGB">
<feFlood flood-opacity="0" result="BackgroundImageFix"/>
<feColorMatrix in="SourceAlpha" type="matrix" values="0 0 0 0 0 0 0 0 0 0 0 0 0 0 0 0 0 0 127 0" result="hardAlpha"/>
<feOffset/>
<feGaussianBlur stdDeviation="17.5"/>
<feComposite in2="hardAlpha" operator="out"/>
<feColorMatrix type="matrix" values="0 0 0 0 0 0 0 0 0 0.8875 0 0 0 0 0.567304 0 0 0 1 0"/>
<feBlend mode="normal" in2="BackgroundImageFix" result="effect1_dropShadow_567_1416"/>
<feBlend mode="normal" in="SourceGraphic" in2="effect1_dropShadow_567_1416" result="shape"/>
</filter>
<filter id="filter3_d_567_1416" x="1287" y="373" width="472" height="308" filterUnits="userSpaceOnUse" color-interpolation-filters="sRGB">
<feFlood flood-opacity="0" result="BackgroundImageFix"/>
<feColorMatrix in="SourceAlpha" type="matrix" values="0 0 0 0 0 0 0 0 0 0 0 0 0 0 0 0 0 0 127 0" result="hardAlpha"/>
<feOffset/>
<feGaussianBlur stdDeviation="17.5"/>
<feComposite in2="hardAlpha" operator="out"/>
<feColorMatrix type="matrix" values="0 0 0 0 0.878431 0 0 0 0 0.941176 0 0 0 0 0.117647 0 0 0 1 0"/>
<feBlend mode="normal" in2="BackgroundImageFix" result="effect1_dropShadow_567_1416"/>
<feBlend mode="normal" in="SourceGraphic" in2="effect1_dropShadow_567_1416" result="shape"/>
</filter>
<filter id="filter4_d_567_1416" x="744" y="413" width="496" height="268" filterUnits="userSpaceOnUse" color-interpolation-filters="sRGB">
<feFlood flood-opacity="0" result="BackgroundImageFix"/>
<feColorMatrix in="SourceAlpha" type="matrix" values="0 0 0 0 0 0 0 0 0 0 0 0 0 0 0 0 0 0 127 0" result="hardAlpha"/>
<feOffset/>
<feGaussianBlur stdDeviation="17.5"/>
<feComposite in2="hardAlpha" operator="out"/>
<feColorMatrix type="matrix" values="0 0 0 0 0.0470588 0 0 0 0 0.384314 0 0 0 0 0.992157 0 0 0 1 0"/>
<feBlend mode="normal" in2="BackgroundImageFix" result="effect1_dropShadow_567_1416"/>
<feBlend mode="normal" in="SourceGraphic" in2="effect1_dropShadow_567_1416" result="shape"/>
</filter>
<filter id="filter5_d_567_1416" x="155" y="413" width="493" height="268" filterUnits="userSpaceOnUse" color-interpolation-filters="sRGB">
<feFlood flood-opacity="0" result="BackgroundImageFix"/>
<feColorMatrix in="SourceAlpha" type="matrix" values="0 0 0 0 0 0 0 0 0 0 0 0 0 0 0 0 0 0 127 0" result="hardAlpha"/>
<feOffset/>
<feGaussianBlur stdDeviation="17.5"/>
<feComposite in2="hardAlpha" operator="out"/>
<feColorMatrix type="matrix" values="0 0 0 0 0 0 0 0 0 0.8875 0 0 0 0 0.567304 0 0 0 1 0"/>
<feBlend mode="normal" in2="BackgroundImageFix" result="effect1_dropShadow_567_1416"/>
<feBlend mode="normal" in="SourceGraphic" in2="effect1_dropShadow_567_1416" result="shape"/>
</filter>
<linearGradient id="paint0_linear_567_1416" x1="1270.94" y1="108.191" x2="1227.15" y2="111.793" gradientUnits="userSpaceOnUse">
<stop stop-color="#E0F01E"/>
<stop offset="1" stop-color="#100F0F" stop-opacity="0"/>
</linearGradient>
<linearGradient id="paint1_linear_567_1416" x1="1365.71" y1="134.062" x2="1149.42" y2="228.891" gradientUnits="userSpaceOnUse">
<stop stop-color="#00E291"/>
<stop offset="1" stop-color="#E0F01E"/>
</linearGradient>
<linearGradient id="paint2_linear_567_1416" x1="228.51" y1="537.635" x2="149.885" y2="264.718" gradientUnits="userSpaceOnUse">
<stop stop-color="#00E291"/>
<stop offset="1" stop-color="#0C62FD"/>
</linearGradient>
<linearGradient id="paint3_linear_567_1416" x1="1804.57" y1="379.433" x2="1806.56" y2="332.077" gradientUnits="userSpaceOnUse">
<stop stop-color="#00E291"/>
<stop offset="1" stop-color="#100F0F" stop-opacity="0"/>
</linearGradient>
<linearGradient id="paint4_linear_567_1416" x1="1720.36" y1="222.786" x2="1733" y2="477.199" gradientUnits="userSpaceOnUse">
<stop stop-color="#00E291"/>
<stop offset="1" stop-color="#E0F01E"/>
</linearGradient>
<linearGradient id="paint5_linear_567_1416" x1="591.379" y1="202.732" x2="873.491" y2="235.566" gradientUnits="userSpaceOnUse">
<stop stop-color="#0C62FD"/>
<stop offset="1" stop-color="#E0F01E"/>
</linearGradient>
<linearGradient id="paint6_linear_567_1416" x1="757.145" y1="311.661" x2="708.859" y2="317.916" gradientUnits="userSpaceOnUse">
<stop stop-color="#0C62FD"/>
<stop offset="1" stop-color="#100F0F" stop-opacity="0"/>
</linearGradient>
<linearGradient id="paint7_linear_567_1416" x1="849.935" y1="571.11" x2="567.823" y2="538.276" gradientUnits="userSpaceOnUse">
<stop stop-color="#0C62FD"/>
<stop offset="0.997917" stop-color="#00E291"/>
</linearGradient>
<linearGradient id="paint8_linear_567_1416" x1="684.169" y1="462.181" x2="732.455" y2="455.926" gradientUnits="userSpaceOnUse">
<stop stop-color="#0C62FD"/>
<stop offset="1" stop-color="#100F0F" stop-opacity="0"/>
</linearGradient>
<linearGradient id="paint9_linear_567_1416" x1="1393.94" y1="589.732" x2="1111.82" y2="622.566" gradientUnits="userSpaceOnUse">
<stop stop-color="#E0F01E"/>
<stop offset="1" stop-color="#0C62FD"/>
</linearGradient>
<linearGradient id="paint10_linear_567_1416" x1="1228.17" y1="698.661" x2="1276.45" y2="704.916" gradientUnits="userSpaceOnUse">
<stop offset="0.0001" stop-color="#E0F01E"/>
<stop offset="1" stop-color="#100F0F" stop-opacity="0"/>
</linearGradient>
</defs>
</svg>
