<svg width="1502" height="86" viewBox="0 0 1502 86" fill="none" xmlns="http://www.w3.org/2000/svg">
<rect x="-164" y="0.449219" width="1666" height="85" rx="42.5" fill="url(#paint0_linear_101_348)"/>
<circle cx="1459.14" cy="43.4492" r="27.5" stroke="#EDEDFF" stroke-width="5"/>
<path d="M891.617 68.4492H864.615L875.108 19.1279H897.975C907.75 19.1279 912.638 23.7422 912.638 29.6211C912.638 36.252 907.818 41.1738 901.017 42.4385L900.982 42.7119C906.178 43.9082 910.143 47.5996 910.143 52.7266C910.143 61.8867 902.35 68.4492 891.617 68.4492ZM887.311 28.1172L885.191 38.1318H891.344C895.479 38.1318 898.214 35.6367 898.214 32.2529C898.214 29.8262 896.437 28.1172 892.916 28.1172H887.311ZM880.885 58.5029H887.926C892.745 58.5029 895.719 55.8711 895.719 51.8037C895.719 48.9668 893.634 47.1211 889.635 47.1211H883.277L880.885 58.5029ZM949.142 56.623L946.612 68.4492H912.057L922.55 19.1279H937.042L929.078 56.623H949.142ZM980.108 29.8262C973.478 29.8262 967.838 37.7217 967.838 47.4287C967.838 53.6836 971.085 57.751 976.075 57.751C982.706 57.751 988.38 49.8896 988.38 40.1143C988.38 33.8252 985.099 29.8262 980.108 29.8262ZM975.631 69.3037C961.549 69.3037 953.141 60.2803 953.141 48.3174C953.141 30.2363 965.309 18.2734 980.45 18.2734C994.908 18.2734 1003.08 27.3311 1003.08 39.2598C1003.08 57.4092 990.738 69.3037 975.631 69.3037ZM1055.82 41.4473L1054.93 46.7109C1052.47 61.374 1043.38 69.3037 1029.4 69.3037C1016.24 69.3037 1007.35 60.9297 1007.35 48.0781C1007.35 30.7148 1018.83 18.2734 1035.24 18.2734C1047.89 18.2734 1056.64 26.1348 1056.64 34.748C1056.64 35.0898 1056.6 35.5684 1056.57 35.8418H1042.69C1042.42 32.3555 1039.34 29.6895 1034.83 29.6895C1027.38 29.6895 1022.08 37.2773 1022.08 47.4629C1022.08 53.8887 1025.26 57.8877 1031.1 57.8877C1035.55 57.8877 1039.14 54.9141 1040.13 51.0859H1032.16L1034.21 41.4473H1055.82Z" fill="#EDEDFF"/>
<path d="M864.615 68.4492L840.163 63.2469C838.593 70.6251 840.438 78.3177 845.185 84.1804C849.932 90.0432 857.072 93.4492 864.615 93.4492V68.4492ZM875.108 19.1279V-5.87207C863.306 -5.87207 853.112 2.38174 850.656 13.9256L875.108 19.1279ZM901.017 42.4385L896.447 17.8597C885.744 19.8496 877.56 28.5359 876.21 39.3376L901.017 42.4385ZM900.982 42.7119L876.175 39.611C874.585 52.3339 882.878 64.1973 895.373 67.0744L900.982 42.7119ZM887.311 28.1172V3.11719C875.498 3.11719 865.298 11.3851 862.852 22.9417L887.311 28.1172ZM885.191 38.1318L860.733 32.9563C859.172 40.3316 861.023 48.0173 865.77 53.8737C870.517 59.7301 877.653 63.1318 885.191 63.1318V38.1318ZM880.885 58.5029L856.419 53.3601C854.87 60.7317 856.727 68.409 861.474 74.2578C866.221 80.1064 873.352 83.5029 880.885 83.5029V58.5029ZM883.277 47.1211V22.1211C871.452 22.1211 861.245 30.4061 858.812 41.9782L883.277 47.1211ZM891.617 43.4492H864.615V93.4492H891.617V43.4492ZM889.068 73.6516L899.561 24.3303L850.656 13.9256L840.163 63.2469L889.068 73.6516ZM875.108 44.1279H897.975V-5.87207H875.108V44.1279ZM897.975 44.1279C899.23 44.1279 896.917 44.4487 893.686 41.952C892.01 40.6572 890.387 38.8021 889.229 36.4138C888.077 34.041 887.638 31.6662 887.638 29.6211H937.638C937.638 19.1165 932.967 9.11769 924.258 2.3878C916.139 -3.88568 906.495 -5.87207 897.975 -5.87207V44.1279ZM887.638 29.6211C887.638 26.5526 888.869 23.3928 891.042 21.0485C893.063 18.8673 895.208 18.0899 896.447 17.8597L905.587 67.0172C921.858 63.9919 937.638 50.5574 937.638 29.6211H887.638ZM876.21 39.3376L876.175 39.611L925.789 45.8128L925.824 45.5393L876.21 39.3376ZM895.373 67.0744C893.999 66.7581 891.698 65.8784 889.454 63.536C886.975 60.9466 885.143 57.076 885.143 52.7266H935.143C935.143 32.2847 919.125 21.2352 906.592 18.3494L895.373 67.0744ZM885.143 52.7266C885.143 51.4089 885.438 49.8841 886.149 48.3777C886.851 46.89 887.804 45.7443 888.749 44.9439C890.625 43.3561 891.979 43.4492 891.617 43.4492V93.4492C912.097 93.4492 935.143 79.4308 935.143 52.7266H885.143ZM862.852 22.9417L860.733 32.9563L909.65 43.3073L911.769 33.2927L862.852 22.9417ZM885.191 63.1318H891.344V13.1318H885.191V63.1318ZM891.344 63.1318C898.389 63.1318 906.263 60.9683 912.759 55.3048C919.465 49.4582 923.214 41.0897 923.214 32.2529H873.214C873.214 26.7999 875.596 21.3709 879.9 17.6178C883.995 14.0479 888.435 13.1318 891.344 13.1318V63.1318ZM923.214 32.2529C923.214 24.4903 920.106 16.0302 912.807 10.001C906.072 4.43744 898.421 3.11719 892.916 3.11719V53.1172C890.932 53.1172 885.929 52.6514 880.963 48.5491C875.433 43.981 873.214 37.5888 873.214 32.2529H923.214ZM892.916 3.11719H887.311V53.1172H892.916V3.11719ZM880.885 83.5029H887.926V33.5029H880.885V83.5029ZM887.926 83.5029C894.719 83.5029 903.014 81.6277 910.003 75.5708C917.374 69.1828 920.719 60.3329 920.719 51.8037H870.719C870.719 47.342 872.577 41.8416 877.256 37.7864C881.553 34.0623 885.952 33.5029 887.926 33.5029V83.5029ZM920.719 51.8037C920.719 43.7198 917.434 34.9828 909.784 28.8689C902.869 23.3429 895.098 22.1211 889.635 22.1211V72.1211C888.17 72.1211 883.441 71.8221 878.569 67.9283C872.961 63.4464 870.719 57.0507 870.719 51.8037H920.719ZM889.635 22.1211H883.277V72.1211H889.635V22.1211ZM858.812 41.9782L856.419 53.3601L905.35 63.6458L907.743 52.264L858.812 41.9782ZM949.142 56.623L973.589 61.8516C975.167 54.4705 973.327 46.7712 968.58 40.9023C963.834 35.0333 956.69 31.623 949.142 31.623V56.623ZM946.612 68.4492V93.4492C958.404 93.4492 968.593 85.2092 971.059 73.6778L946.612 68.4492ZM912.057 68.4492L887.604 63.2469C886.034 70.6251 887.88 78.3177 892.627 84.1804C897.373 90.0432 904.513 93.4492 912.057 93.4492V68.4492ZM922.55 19.1279V-5.87207C910.748 -5.87207 900.553 2.38174 898.097 13.9256L922.55 19.1279ZM937.042 19.1279L961.496 24.322C963.063 16.9447 961.216 9.25423 956.469 3.39344C951.723 -2.46735 944.584 -5.87207 937.042 -5.87207V19.1279ZM929.078 56.623L904.624 51.429C903.057 58.8063 904.904 66.4967 909.651 72.3575C914.397 78.2183 921.536 81.623 929.078 81.623V56.623ZM924.694 51.3945L922.165 63.2206L971.059 73.6778L973.589 61.8516L924.694 51.3945ZM946.612 43.4492H912.057V93.4492H946.612V43.4492ZM936.509 73.6516L947.003 24.3303L898.097 13.9256L887.604 63.2469L936.509 73.6516ZM922.55 44.1279H937.042V-5.87207H922.55V44.1279ZM912.588 13.9339L904.624 51.429L953.533 61.8171L961.496 24.322L912.588 13.9339ZM929.078 81.623H949.142V31.623H929.078V81.623ZM980.108 4.82617C966.238 4.82617 956.366 13.0193 951.029 20.6176C945.551 28.4158 942.838 37.9466 942.838 47.4287H992.838C992.838 47.2038 992.944 47.9334 991.944 49.357C991.085 50.5808 987.348 54.8262 980.108 54.8262V4.82617ZM942.838 47.4287C942.838 54.6375 944.699 63.2044 950.545 70.5302C956.822 78.395 966.133 82.751 976.075 82.751V32.751C981.027 32.751 986.219 35.0732 989.625 39.3407C992.601 43.069 992.838 46.4748 992.838 47.4287H942.838ZM976.075 82.751C989.891 82.751 999.773 74.6248 1005.15 67.0047C1010.66 59.1905 1013.38 49.6333 1013.38 40.1143H963.38C963.38 40.3706 963.267 39.6318 964.282 38.1921C965.161 36.9464 968.89 32.751 976.075 32.751V82.751ZM1013.38 40.1143C1013.38 32.8547 1011.49 24.2341 1005.56 16.8926C999.202 9.03585 989.89 4.82617 980.108 4.82617V54.8262C975.317 54.8262 970.141 52.616 966.676 48.3311C963.627 44.5613 963.38 41.0847 963.38 40.1143H1013.38ZM975.631 44.3037C974.782 44.3037 974.61 44.1702 974.914 44.2838C975.241 44.4059 975.862 44.7215 976.523 45.3629C977.182 46.0035 977.637 46.7324 977.896 47.3823C978.147 48.0119 978.141 48.3723 978.141 48.3174H928.141C928.141 60.2956 932.458 72.267 941.687 81.2303C950.92 90.1981 963.14 94.3037 975.631 94.3037V44.3037ZM978.141 48.3174C978.141 44.9927 979.18 43.8002 979.335 43.6357C979.466 43.4959 979.569 43.4358 979.659 43.3972C979.747 43.3594 979.984 43.2734 980.45 43.2734V-6.72656C950.062 -6.72656 928.141 17.9145 928.141 48.3174H978.141ZM980.45 43.2734C981.457 43.2734 981.701 43.4293 981.411 43.3219C981.09 43.2031 980.432 42.8752 979.728 42.1881C979.025 41.5031 978.56 40.7363 978.303 40.0827C978.058 39.4564 978.077 39.1317 978.077 39.2598H1028.08C1028.08 27.4828 1023.94 15.4678 1014.64 6.39854C1005.33 -2.68868 992.999 -6.72656 980.45 -6.72656V43.2734ZM978.077 39.2598C978.077 42.5388 977.048 43.7068 976.882 43.8819C976.702 44.0714 976.432 44.3037 975.631 44.3037V94.3037C1005.77 94.3037 1028.08 69.9583 1028.08 39.2598H978.077ZM1055.82 41.4473L1080.47 45.6091C1081.69 38.3538 1079.66 30.9273 1074.91 25.308C1070.16 19.6887 1063.17 16.4473 1055.82 16.4473V41.4473ZM1054.93 46.7109L1030.28 42.5491C1030.28 42.557 1030.27 42.565 1030.27 42.573L1054.93 46.7109ZM1056.57 35.8418V60.8418C1069.18 60.8418 1079.81 51.4534 1081.38 38.9427L1056.57 35.8418ZM1042.69 35.8418L1017.77 37.7966C1018.79 50.8056 1029.64 60.8418 1042.69 60.8418V35.8418ZM1040.13 51.0859L1064.33 57.3525C1066.27 49.8642 1064.63 41.9002 1059.9 35.7834C1055.16 29.6666 1047.86 26.0859 1040.13 26.0859V51.0859ZM1032.16 51.0859L1007.71 45.8832C1006.14 53.2615 1007.99 60.9542 1012.73 66.817C1017.48 72.6798 1024.62 76.0859 1032.16 76.0859V51.0859ZM1034.21 41.4473V16.4473C1022.41 16.4473 1012.22 24.7009 1009.76 36.2446L1034.21 41.4473ZM1031.17 37.2854L1030.28 42.5491L1079.58 50.8728L1080.47 45.6091L1031.17 37.2854ZM1030.27 42.573C1030.01 44.1435 1029.67 44.9224 1029.55 45.1567C1029.45 45.3502 1029.54 45.1109 1029.95 44.7525C1030.37 44.3848 1030.75 44.2123 1030.88 44.1694C1030.96 44.1428 1030.53 44.3037 1029.4 44.3037V94.3037C1041.24 94.3037 1053.27 90.8465 1063.01 82.2595C1072.64 73.7747 1077.65 62.3821 1079.58 50.8489L1030.27 42.573ZM1029.4 44.3037C1028.15 44.3037 1029.2 43.9867 1030.72 45.4477C1031.42 46.1149 1031.89 46.8699 1032.15 47.5176C1032.4 48.1418 1032.35 48.3975 1032.35 48.0781H982.35C982.35 60.4846 986.783 72.6055 996.154 81.5728C1005.41 90.4337 1017.48 94.3037 1029.4 94.3037V44.3037ZM1032.35 48.0781C1032.35 44.9421 1033.33 43.8216 1033.43 43.7099C1033.52 43.6154 1033.6 43.5572 1033.74 43.498C1033.88 43.4381 1034.33 43.2734 1035.24 43.2734V-6.72656C1020.41 -6.72656 1006.71 -0.959294 996.854 9.61925C987.115 20.069 982.35 33.8509 982.35 48.0781H1032.35ZM1035.24 43.2734C1036.43 43.2734 1036.09 43.6277 1034.98 42.7334C1033.93 41.8871 1031.64 39.2649 1031.64 34.748H1081.64C1081.64 7.5943 1056.43 -6.72656 1035.24 -6.72656V43.2734ZM1031.64 34.748C1031.64 34.4384 1031.64 34.2022 1031.65 34.0639C1031.66 33.9153 1031.66 33.7923 1031.67 33.6936C1031.67 33.5945 1031.68 33.4827 1031.69 33.3537C1031.71 33.2387 1031.73 33.0259 1031.76 32.7409L1081.38 38.9427C1081.53 37.7406 1081.64 36.2226 1081.64 34.748H1031.64ZM1056.57 10.8418H1042.69V60.8418H1056.57V10.8418ZM1067.61 33.887C1066.09 14.4411 1049.21 4.68945 1034.83 4.68945V54.6895C1032.18 54.6895 1028.32 53.875 1024.66 50.9205C1020.88 47.8752 1018.19 43.1758 1017.77 37.7966L1067.61 33.887ZM1034.83 4.68945C1021.67 4.68945 1011.4 11.6742 1005.29 20.262C999.432 28.4975 997.081 38.2993 997.081 47.4629H1047.08C1047.08 46.4409 1047.38 47.356 1046.03 49.2512C1045.31 50.2682 1044.02 51.658 1041.97 52.8131C1039.84 54.0128 1037.35 54.6895 1034.83 54.6895V4.68945ZM997.081 47.4629C997.081 54.4701 998.796 63.5258 1005.31 71.2315C1012.34 79.5407 1022.08 82.8877 1031.1 82.8877V32.8877C1034.28 32.8877 1039.51 34.2352 1043.49 38.9384C1046.96 43.0382 1047.08 46.8815 1047.08 47.4629H997.081ZM1031.1 82.8877C1046.97 82.8877 1060.49 72.1845 1064.33 57.3525L1015.93 44.8194C1017.78 37.6436 1024.13 32.8877 1031.1 32.8877V82.8877ZM1040.13 26.0859H1032.16V76.0859H1040.13V26.0859ZM1056.62 56.2886L1058.67 46.65L1009.76 36.2446L1007.71 45.8832L1056.62 56.2886ZM1034.21 66.4473H1055.82V16.4473H1034.21V66.4473Z" fill="url(#paint1_linear_101_348)"/>
<defs>
<linearGradient id="paint0_linear_101_348" x1="1502" y1="43.1185" x2="-4.50002" y2="43.118" gradientUnits="userSpaceOnUse">
<stop stop-color="#0C62FD"/>
<stop offset="1" stop-color="#0C62FD" stop-opacity="0"/>
</linearGradient>
<linearGradient id="paint1_linear_101_348" x1="864" y1="1.44922" x2="1063.26" y2="61.2398" gradientUnits="userSpaceOnUse">
<stop stop-color="#0C62FD"/>
<stop offset="1" stop-color="#1035B8"/>
</linearGradient>
</defs>
</svg>
