<svg width="1600" height="1741" viewBox="0 0 1600 1741" fill="none" xmlns="http://www.w3.org/2000/svg">
<path d="M2014.96 857.501L2014.96 857.501L454.325 859.026L454.321 859.026C389.987 858.983 326.9 875.875 271.451 907.99C216.001 940.105 170.157 986.302 138.562 1041.9C106.966 1097.5 90.7396 1160.53 91.5274 1224.6C92.3152 1288.67 110.089 1351.52 143.052 1406.77L478.307 1964.77L478.312 1964.78L478.317 1964.79L940.453 2748.32C973.24 2803.66 1019.99 2849.56 1076.03 2881.41C1132.07 2913.26 1195.42 2929.94 1259.75 2929.79C1324.08 2929.64 1387.12 2912.67 1442.57 2880.57C1498.03 2848.46 1543.94 2802.36 1575.72 2746.87L2338.84 1404.01C2338.84 1404.01 2338.85 1404.01 2338.85 1404M2014.96 857.501L2338.85 1404M2014.96 857.501C2079.29 857.344 2142.65 874.021 2198.69 905.863C2254.73 937.705 2301.49 983.594 2334.28 1038.94C2367.08 1094.28 2384.76 1157.13 2385.56 1221.2C2386.36 1285.26 2370.25 1348.3 2338.85 1404M2014.96 857.501L2338.85 1404" stroke="url(#paint0_linear_2243_6533)" stroke-width="5"/>
<path d="M-426.03 1193.97L-426.028 1193.98L254.284 2409.92L254.286 2409.92C282.224 2460.05 322.812 2501.84 371.936 2531.07C421.06 2560.3 476.976 2575.92 534.02 2576.36C591.064 2576.79 647.213 2562.03 696.777 2533.55C746.343 2505.08 787.565 2463.91 816.266 2414.21L1105.37 1910.04L1105.38 1910.04L1105.38 1910.03L1515.09 1208.81C1543.94 1159.2 1559.36 1102.83 1559.8 1045.34C1560.25 987.838 1545.7 931.236 1517.61 881.193C1489.53 831.151 1448.89 789.425 1399.77 760.191C1350.66 730.957 1294.78 715.239 1237.75 714.609L-141.169 704.071C-141.171 704.071 -141.174 704.071 -141.177 704.071M-426.03 1193.97L-141.177 704.071M-426.03 1193.97C-454.123 1143.93 -468.68 1087.33 -468.245 1029.84C-467.809 972.34 -452.395 915.966 -423.548 866.359C-394.7 816.752 -353.432 775.652 -303.875 747.172C-254.32 718.693 -198.216 703.83 -141.177 704.071M-426.03 1193.97L-141.177 704.071" stroke="url(#paint1_linear_2243_6533)" stroke-width="5"/>
<defs>
<linearGradient id="paint0_linear_2243_6533" x1="485.354" y1="2548.62" x2="1610.48" y2="568.726" gradientUnits="userSpaceOnUse">
<stop stop-color="#0C62FD"/>
<stop offset="1" stop-color="#00E291"/>
</linearGradient>
<linearGradient id="paint1_linear_2243_6533" x1="1641.74" y1="758.275" x2="284.36" y2="1494.67" gradientUnits="userSpaceOnUse">
<stop stop-color="#0C62FD"/>
<stop offset="1" stop-color="#00E291"/>
</linearGradient>
</defs>
</svg>
