<svg width="159" height="47" viewBox="0 0 159 47" fill="none" xmlns="http://www.w3.org/2000/svg">
<path d="M0.577344 42.648C0.429809 42.8814 0.499437 43.1902 0.732863 43.3378C0.96629 43.4853 1.27512 43.4157 1.42266 43.1822L0.577344 42.648ZM158.606 4.90119C158.843 4.75996 158.921 4.45311 158.78 4.21581L156.479 0.348851C156.337 0.111555 156.031 0.0336761 155.793 0.174904C155.556 0.316132 155.478 0.622986 155.619 0.860282L157.665 4.29758L154.228 6.3433C153.99 6.48453 153.913 6.79138 154.054 7.02868C154.195 7.26598 154.502 7.34385 154.739 7.20263L158.606 4.90119ZM1.42266 43.1822C15.2511 21.3033 29.0944 10.8015 41.664 7.2245C54.2225 3.65063 65.6021 6.96337 74.5733 12.9138C83.5559 18.8718 90.0864 27.452 92.9124 34.3204C94.3326 37.7721 94.7792 40.6993 94.2344 42.6262C93.9675 43.5703 93.4692 44.2557 92.741 44.6744C92.0039 45.0982 90.9702 45.2837 89.5744 45.1014L89.4449 46.093C90.9809 46.2936 92.2545 46.1077 93.2395 45.5413C94.2334 44.9698 94.8721 44.0462 95.1967 42.8983C95.8348 40.6411 95.2821 37.4518 93.8372 33.9399C90.9328 26.8809 84.2696 18.1452 75.126 12.0804C65.971 6.00802 54.2919 2.59116 41.3903 6.26268C28.4996 9.93107 14.4812 20.6497 0.577344 42.648L1.42266 43.1822ZM89.5744 45.1014C86.7416 44.7314 84.8855 43.6304 83.8344 42.0826C82.7786 40.528 82.474 38.4333 82.9333 35.9576C83.8544 30.9922 87.8187 24.6974 94.3227 18.8921C107.306 7.30356 130.212 -2.15402 158.227 4.95616L158.473 3.98689C130.103 -3.21347 106.861 6.35998 93.6568 18.146C87.0669 24.028 82.9274 30.5064 81.9501 35.7752C81.46 38.4168 81.7576 40.8045 83.0071 42.6444C84.2614 44.4913 86.4139 45.6971 89.4449 46.093L89.5744 45.1014Z" fill="#0C62FD"/>
</svg>
