<svg width="956" height="558" viewBox="0 0 956 558" fill="none" xmlns="http://www.w3.org/2000/svg">
<path d="M8.59553 159.288C8.43319 159.512 8.48267 159.824 8.70606 159.987C8.92944 160.149 9.24213 160.1 9.40447 159.876L8.59553 159.288ZM299.269 98.383C299.502 98.2344 299.57 97.9253 299.421 97.6925L297 93.8995C296.852 93.6667 296.542 93.5985 296.31 93.7471C296.077 93.8957 296.009 94.2048 296.157 94.4376L298.31 97.8092L294.938 99.9615C294.705 100.11 294.637 100.419 294.786 100.652C294.934 100.885 295.243 100.953 295.476 100.804L299.269 98.383ZM9.40447 159.876C34.9127 124.776 60.4965 107.859 83.8124 102.089C107.126 96.3188 128.242 101.675 144.857 111.259C161.482 120.85 173.564 134.655 178.797 145.715C181.423 151.266 182.273 156.018 181.244 159.183C180.737 160.741 179.775 161.92 178.316 162.65C176.844 163.386 174.824 163.685 172.181 163.385L172.069 164.378C174.83 164.692 177.062 164.395 178.763 163.544C180.479 162.686 181.612 161.286 182.195 159.492C183.346 155.95 182.355 150.898 179.701 145.287C174.372 134.023 162.137 120.073 145.356 110.393C128.563 100.705 107.183 95.2745 83.5722 101.118C59.9644 106.961 34.1985 124.058 8.59553 159.288L9.40447 159.876ZM172.181 163.385C166.857 162.78 163.311 160.969 161.297 158.39C159.289 155.819 158.734 152.39 159.588 148.388C161.301 140.354 168.661 130.21 180.689 120.873C204.709 102.227 247.084 87.0142 298.892 98.4498L299.108 97.4733C246.996 85.9708 204.32 101.263 180.075 120.083C167.97 129.48 160.395 139.809 158.61 148.18C157.714 152.38 158.268 156.136 160.509 159.006C162.745 161.869 166.586 163.755 172.069 164.378L172.181 163.385Z" fill="#0C62FD"/>
<path d="M82.2189 277.33C81.9706 277.209 81.6714 277.312 81.5505 277.561C81.4296 277.809 81.5328 278.108 81.7811 278.229L82.2189 277.33ZM478.499 307.655C478.516 307.379 478.307 307.142 478.031 307.125L473.54 306.845C473.264 306.828 473.027 307.037 473.01 307.313C472.993 307.589 473.202 307.826 473.478 307.843L477.47 308.092L477.221 312.084C477.204 312.36 477.414 312.597 477.689 312.614C477.965 312.631 478.202 312.422 478.219 312.146L478.499 307.655ZM81.7811 278.229C132.465 302.911 170.446 312.97 198.43 314.366C226.419 315.762 244.438 308.491 255.133 298.485C265.82 288.487 269.149 275.793 267.81 266.448C267.141 261.783 265.298 257.899 262.561 255.631C259.793 253.338 256.169 252.75 252.123 254.586L252.537 255.497C256.259 253.807 259.47 254.369 261.923 256.401C264.407 258.459 266.173 262.077 266.82 266.59C268.112 275.603 264.904 287.974 254.45 297.755C244.003 307.529 226.276 314.753 198.479 313.367C170.678 311.98 132.834 301.978 82.2189 277.33L81.7811 278.229ZM252.123 254.586C250.095 255.507 248.89 256.791 248.622 258.43C248.358 260.036 249.024 261.827 250.349 263.71C253.003 267.482 258.545 271.963 266.167 276.737C281.438 286.303 305.29 297.188 331.888 306.046C358.486 314.905 387.865 321.748 414.191 323.21C440.492 324.671 463.866 320.768 478.331 307.998L477.669 307.249C463.511 319.748 440.48 323.669 414.246 322.211C388.038 320.756 358.75 313.939 332.204 305.097C305.656 296.256 281.882 285.401 266.698 275.889C259.091 271.125 253.698 266.732 251.167 263.134C249.899 261.333 249.408 259.814 249.608 258.592C249.803 257.403 250.681 256.339 252.537 255.497L252.123 254.586Z" fill="#0C62FD"/>
<path d="M54.7717 380.111C54.4963 380.09 54.2564 380.297 54.2358 380.572C54.2152 380.847 54.4217 381.087 54.6971 381.108L54.7717 380.111ZM347.859 439.704C348.091 439.554 348.157 439.244 348.007 439.012L345.562 435.235C345.412 435.003 345.103 434.936 344.871 435.087C344.639 435.237 344.573 435.546 344.723 435.778L346.896 439.136L343.538 441.309C343.306 441.459 343.24 441.769 343.39 442.001C343.54 442.233 343.85 442.299 344.081 442.149L347.859 439.704ZM54.6971 381.108C113.94 385.539 153.225 393.319 178.484 402.385C203.771 411.46 214.88 421.781 218.007 431.2C221.119 440.574 216.382 449.282 209.369 455.332C205.869 458.35 201.83 460.679 197.989 462.064C194.134 463.454 190.539 463.872 187.902 463.154L187.639 464.119C190.559 464.914 194.382 464.427 198.328 463.004C202.287 461.577 206.432 459.185 210.022 456.089C217.187 449.909 222.249 440.807 218.956 430.885C215.677 421.007 204.176 410.543 178.822 401.443C153.441 392.334 114.054 384.545 54.7717 380.111L54.6971 381.108ZM187.902 463.154C186.556 462.788 185.646 462.304 185.099 461.763C184.57 461.24 184.367 460.651 184.439 459.983C184.515 459.288 184.896 458.462 185.643 457.522C186.386 456.588 187.464 455.575 188.874 454.509C194.523 450.237 205.263 445.291 220.028 441.224C249.537 433.097 294.965 428.526 347.483 439.773L347.692 438.795C295.01 427.513 249.418 432.092 219.762 440.26C204.945 444.341 194.066 449.329 188.271 453.711C186.819 454.809 185.672 455.879 184.86 456.9C184.052 457.916 183.549 458.918 183.445 459.874C183.338 460.858 183.66 461.745 184.396 462.474C185.114 463.184 186.208 463.729 187.639 464.119L187.902 463.154Z" fill="#0C62FD"/>
</svg>
