<svg width="599" height="165" viewBox="0 0 599 165" fill="none" xmlns="http://www.w3.org/2000/svg">
<path d="M91.7089 61.5709L77.5492 90.4064H93.4861L92.2249 61.5709H91.7089ZM94.9766 124L94.2313 107.547H69.1221L61.039 124H35.4138L80.9315 41.2772H111.429L119.914 124H94.9766ZM169.674 124.917C160.444 124.917 153.049 120.159 150.641 112.707H150.182L147.775 124H125.647L143.303 41.2772H166.062L159.871 69.7114H160.444C164.342 63.4054 171.336 59.7938 179.534 59.7938C192.49 59.7938 200.516 68.9088 200.516 83.7565C200.516 107.261 187.273 124.917 169.674 124.917ZM163.425 107.031C170.935 107.031 177.011 98.3748 177.011 87.5974C177.011 81.1767 173.515 76.9919 168.183 76.9919C160.96 76.9919 154.597 86.0495 154.597 96.4257C154.597 102.846 158.094 107.031 163.425 107.031ZM237.778 108.235C245.46 108.235 251.365 99.5214 251.365 88.2853C251.365 81.1767 247.982 76.4759 242.823 76.4759C234.969 76.4759 229.179 84.9603 229.179 96.4257C229.179 103.477 232.619 108.235 237.778 108.235ZM243.969 59.1059C262.199 59.1059 274.582 70.6859 274.582 87.8267C274.582 109.898 258.874 125.605 236.746 125.605C218.516 125.605 206.134 114.025 206.134 96.8843C206.134 74.8135 221.841 59.1059 243.969 59.1059ZM353.464 60.711L339.992 124H317.921L320.1 113.681H319.641C315.857 121.191 308.462 125.605 299.634 125.605C287.538 125.605 279.799 118.325 279.799 106.974C279.799 104.28 280.085 101.356 280.601 99.0054L288.742 60.711H311.443L304.048 95.2792C303.876 96.3684 303.761 97.4576 303.761 98.6615C303.761 104.05 306.857 107.146 312.246 107.146C317.635 107.146 321.59 103.362 322.966 96.827L330.648 60.711H353.464ZM381.898 124.917C367.796 124.917 359.655 120.102 359.655 110.7C359.655 109.095 359.77 106.573 360.343 103.706L365.445 79.2276H355.986L359.655 62.6028H369.057L372.267 47.5258H394.969L391.758 62.6028H404.141L400.587 79.2276H388.261L383.446 101.757C383.274 102.33 383.159 103.592 383.159 104.28C383.159 107.547 385.28 108.866 390.497 108.866C392.905 108.866 393.994 108.751 394.625 108.522L391.185 124.115C389.465 124.573 385.452 124.917 381.898 124.917ZM501.024 60.711L487.552 124H465.481L467.659 113.681H467.201C463.417 121.191 456.022 125.605 447.194 125.605C435.098 125.605 427.358 118.325 427.358 106.974C427.358 104.28 427.645 101.356 428.161 99.0054L436.301 60.711H459.003L451.608 95.2792C451.436 96.3684 451.321 97.4576 451.321 98.6615C451.321 104.05 454.417 107.146 459.805 107.146C465.194 107.146 469.15 103.362 470.526 96.827L478.207 60.711H501.024ZM506.584 80.4315C506.584 67.4756 517.935 59.1059 535.534 59.1059C551.93 59.1059 563.51 67.8196 563.969 80.4315H543.675C543.446 76.6479 540.121 74.0109 535.19 74.0109C530.834 74.0109 528.082 75.7307 528.082 78.4824C528.082 80.7755 529.744 81.922 535.764 83.9858L542.872 86.3935C555.026 90.521 559.612 95.3365 559.612 103.821C559.612 117.063 547.86 125.605 529.687 125.605C511.285 125.605 499.476 117.063 498.96 103.477H520.4C520.629 107.719 524.47 110.643 530.26 110.643C534.675 110.643 537.14 109.095 537.14 106.458C537.14 104.28 535.362 103.018 529.687 101.069L523.954 99.1201C512.145 95.1072 506.584 89.1452 506.584 80.4315Z" fill="#EDEDFF"/>
<path d="M91.7089 61.5709V28.203C78.9837 28.203 67.3663 35.4407 61.7573 46.8631L91.7089 61.5709ZM77.5492 90.4064L47.5976 75.6986C42.519 86.0408 43.1353 98.2714 49.2279 108.051C55.3205 117.83 66.0272 123.774 77.5492 123.774V90.4064ZM93.4861 90.4064V123.774C102.589 123.774 111.296 120.056 117.591 113.48C123.885 106.904 127.22 98.0424 126.822 88.9483L93.4861 90.4064ZM92.2249 61.5709L125.561 60.1129C124.78 42.2684 110.086 28.203 92.2249 28.203V61.5709ZM94.9766 124L61.6428 125.51C62.4502 143.333 77.1351 157.368 94.9766 157.368V124ZM94.2313 107.547L127.565 106.037C126.758 88.2141 112.073 74.1792 94.2313 74.1792V107.547ZM69.1221 107.547V74.1792C56.3992 74.1792 44.7835 81.4144 39.1733 92.8336L69.1221 107.547ZM61.039 124V157.368C73.7619 157.368 85.3776 150.133 90.9878 138.714L61.039 124ZM35.4138 124L6.17933 107.914C0.491398 118.251 0.685368 130.824 6.68949 140.98C12.6936 151.137 23.6152 157.368 35.4138 157.368V124ZM80.9315 41.2772V7.90924C68.7647 7.90924 57.5623 14.5315 51.697 25.1911L80.9315 41.2772ZM111.429 41.2772L144.623 37.8727C142.877 20.8516 128.54 7.90924 111.429 7.90924V41.2772ZM119.914 124V157.368C129.356 157.368 138.356 153.368 144.683 146.359C151.01 139.35 154.071 129.988 153.108 120.596L119.914 124ZM61.7573 46.8631L47.5976 75.6986L107.501 105.114L121.661 76.2788L61.7573 46.8631ZM77.5492 123.774H93.4861V57.0385H77.5492V123.774ZM126.822 88.9483L125.561 60.1129L58.8888 63.029L60.15 91.8644L126.822 88.9483ZM92.2249 28.203H91.7089V94.9388H92.2249V28.203ZM128.31 122.49L127.565 106.037L60.8976 109.057L61.6428 125.51L128.31 122.49ZM94.2313 74.1792H69.1221V140.915H94.2313V74.1792ZM39.1733 92.8336L31.0902 109.286L90.9878 138.714L99.0709 122.261L39.1733 92.8336ZM61.039 90.6321H35.4138V157.368H61.039V90.6321ZM64.6484 140.086L110.166 57.3632L51.697 25.1911L6.17933 107.914L64.6484 140.086ZM80.9315 74.6451H111.429V7.90924H80.9315V74.6451ZM78.2356 44.6817L86.72 127.404L153.108 120.596L144.623 37.8727L78.2356 44.6817ZM119.914 90.6321H94.9766V157.368H119.914V90.6321ZM150.641 112.707L182.393 102.448C177.943 88.673 165.117 79.3387 150.641 79.3387V112.707ZM150.182 112.707V79.3387C134.435 79.3387 120.831 90.3478 117.548 105.749L150.182 112.707ZM147.775 124V157.368C163.522 157.368 177.126 146.359 180.409 130.958L147.775 124ZM125.647 124L93.0137 117.035C90.9112 126.885 93.3706 137.158 99.7058 144.988C106.041 152.818 115.574 157.368 125.647 157.368V124ZM143.303 41.2772V7.90924C127.559 7.90924 113.957 18.9144 110.67 34.3119L143.303 41.2772ZM166.062 41.2772L198.666 48.3764C200.814 38.5114 198.38 28.2043 192.046 20.3424C185.711 12.4805 176.158 7.90924 166.062 7.90924V41.2772ZM159.871 69.7113L127.267 62.6121C125.119 72.4771 127.553 82.7842 133.887 90.6461C140.221 98.5081 149.775 103.079 159.871 103.079V69.7113ZM160.444 69.7113V103.079C172.007 103.079 182.746 97.0926 188.827 87.2569L160.444 69.7113ZM169.674 91.5493C170.741 91.5493 172.985 91.8314 175.628 93.5283C178.395 95.3049 181.071 98.3549 182.393 102.448L118.889 122.965C126.695 147.124 149.306 158.285 169.674 158.285V91.5493ZM150.641 79.3387H150.182V146.075H150.641V79.3387ZM117.548 105.749L115.14 117.042L180.409 130.958L182.817 119.664L117.548 105.749ZM147.775 90.6321H125.647V157.368H147.775V90.6321ZM158.279 130.965L175.936 48.2425L110.67 34.3119L93.0137 117.035L158.279 130.965ZM143.303 74.6451H166.062V7.90924H143.303V74.6451ZM133.458 34.1779L127.267 62.6121L192.475 76.8106L198.666 48.3764L133.458 34.1779ZM159.871 103.079H160.444V36.3434H159.871V103.079ZM188.827 87.2569C187.509 89.389 185.663 91.0111 183.74 92.0084C181.874 92.9766 180.337 93.1617 179.534 93.1617V26.4259C161.346 26.4259 142.824 34.7563 132.061 52.1658L188.827 87.2569ZM179.534 93.1617C178.843 93.1617 177.294 93.0323 175.303 92.192C173.252 91.3263 171.323 89.9492 169.796 88.2079C166.726 84.7075 167.148 82.0985 167.148 83.7565H233.883C233.883 70.5667 230.292 55.9764 219.971 44.2066C209.194 31.918 194.312 26.4259 179.534 26.4259V93.1617ZM167.148 83.7565C167.148 89.504 165.502 92.4604 164.994 93.1384C164.786 93.4151 165.021 92.9973 165.967 92.4825C166.998 91.9215 168.336 91.5493 169.674 91.5493V158.285C213.984 158.285 233.883 116.136 233.883 83.7565H167.148ZM163.425 140.399C181.009 140.399 193.57 130.206 200.37 120.491C207.229 110.693 210.379 98.9543 210.379 87.5974H143.644C143.644 87.0179 143.755 84.9966 145.698 82.2206C147.583 79.5282 153.351 73.6633 163.425 73.6633V140.399ZM210.379 87.5974C210.379 78.5779 207.913 67.7441 200.231 58.5253C192.063 48.7246 180.295 43.624 168.183 43.624V110.36C161.403 110.36 154.049 107.352 148.963 101.249C144.362 95.7272 143.644 90.1962 143.644 87.5974H210.379ZM168.183 43.624C149.975 43.624 137.602 54.746 131.348 63.6788C124.734 73.1237 121.229 84.7324 121.229 96.4257H187.965C187.965 97.7428 187.641 99.6346 186.015 101.957C184.747 103.767 179.168 110.36 168.183 110.36V43.624ZM121.229 96.4257C121.229 105.445 123.695 116.279 131.378 125.498C139.545 135.299 151.313 140.399 163.425 140.399V73.6633C170.205 73.6633 177.56 76.6715 182.645 82.7746C187.247 88.2958 187.965 93.8268 187.965 96.4257H121.229ZM237.778 141.603C255.473 141.603 268.16 131.361 275.045 121.237C281.863 111.21 284.732 99.4026 284.732 88.2853H217.997C217.997 88.199 218.005 87.8034 218.198 87.1154C218.383 86.4583 218.823 85.2348 219.859 83.7106C221.871 80.7522 227.765 74.8672 237.778 74.8672V141.603ZM284.732 88.2853C284.732 79.8782 282.783 69.4606 276.079 60.1783C268.733 50.0069 256.811 43.108 242.823 43.108V109.844C233.994 109.844 226.343 105.295 221.978 99.2515C218.255 94.0968 217.997 89.5839 217.997 88.2853H284.732ZM242.823 43.108C225.544 43.108 212.712 52.7816 205.507 63.3229C198.535 73.5247 195.811 85.4434 195.811 96.4257H262.547C262.547 95.9426 262.718 97.8865 260.604 100.98C258.258 104.412 252.248 109.844 242.823 109.844V43.108ZM195.811 96.4257C195.811 104.969 197.85 115.37 204.55 124.59C211.833 134.613 223.695 141.603 237.778 141.603V74.8672C246.702 74.8672 254.264 79.4781 258.538 85.3596C262.228 90.4378 262.547 94.9338 262.547 96.4257H195.811ZM243.969 92.4738C245.993 92.4738 245.044 93.0256 243.292 91.3836C242.486 90.6279 241.883 89.7207 241.527 88.8591C241.179 88.0181 241.214 87.5873 241.214 87.8267H307.95C307.95 70.86 301.617 54.5839 288.931 42.6933C276.431 30.9762 260.175 25.7379 243.969 25.7379V92.4738ZM241.214 87.8267C241.214 89.3649 240.946 90.281 240.772 90.7194C240.601 91.1502 240.444 91.3215 240.38 91.3852C240.316 91.449 240.14 91.6108 239.696 91.7868C239.245 91.9657 238.309 92.2372 236.746 92.2372V158.973C277.269 158.973 307.95 128.36 307.95 87.8267H241.214ZM236.746 92.2372C234.722 92.2372 235.671 91.6854 237.423 93.3274C238.229 94.0831 238.832 94.9903 239.189 95.8519C239.536 96.6929 239.502 97.1237 239.502 96.8843H172.766C172.766 113.851 179.099 130.127 191.784 142.018C204.285 153.735 220.54 158.973 236.746 158.973V92.2372ZM239.502 96.8843C239.502 95.3461 239.769 94.43 239.943 93.9916C240.115 93.5608 240.272 93.3895 240.335 93.3258C240.399 93.2621 240.576 93.1002 241.02 92.9243C241.471 92.7453 242.406 92.4738 243.969 92.4738V25.7379C203.446 25.7379 172.766 56.3512 172.766 96.8843H239.502ZM353.464 60.711L386.101 67.6581C388.197 57.8099 385.734 47.5416 379.399 39.7157C373.063 31.8898 363.533 27.3431 353.464 27.3431V60.711ZM339.992 124V157.368C355.743 157.368 369.349 146.353 372.629 130.947L339.992 124ZM317.921 124L285.273 117.108C283.195 126.95 285.668 137.204 292.004 145.017C298.34 152.83 307.862 157.368 317.921 157.368V124ZM320.1 113.681L352.748 120.574C354.826 110.731 352.353 100.477 346.017 92.6641C339.681 84.8511 330.159 80.3132 320.1 80.3132V113.681ZM319.641 113.681V80.3132C307.039 80.3132 295.512 87.4131 289.841 98.6676L319.641 113.681ZM280.601 99.0054L313.193 106.16C313.209 106.088 313.225 106.016 313.24 105.944L280.601 99.0054ZM288.742 60.711V27.3431C272.987 27.3431 259.379 38.3625 256.103 53.7729L288.742 60.711ZM311.443 60.711L344.073 67.6915C346.181 57.8395 343.724 47.5627 337.389 39.7289C331.054 31.8951 321.518 27.3431 311.443 27.3431V60.711ZM304.048 95.2792L271.418 88.2987C271.292 88.8877 271.182 89.4801 271.088 90.075L304.048 95.2792ZM322.966 96.827L290.328 89.885C290.323 89.9076 290.319 89.9302 290.314 89.9529L322.966 96.827ZM330.648 60.711V27.3431C314.895 27.3431 301.287 38.3605 298.01 53.769L330.648 60.711ZM320.827 53.7639L307.355 117.053L372.629 130.947L386.101 67.6581L320.827 53.7639ZM339.992 90.6321H317.921V157.368H339.992V90.6321ZM350.57 130.892L352.748 120.574L287.451 106.789L285.273 117.108L350.57 130.892ZM320.1 80.3132H319.641V147.049H320.1V80.3132ZM289.841 98.6676C290.759 96.8464 292.334 95.0555 294.441 93.7991C296.514 92.5632 298.429 92.2372 299.634 92.2372V158.973C320.303 158.973 339.652 148.123 349.441 128.695L289.841 98.6676ZM299.634 92.2372C300.245 92.2372 304.073 92.5105 308.031 96.2297C312.205 100.152 313.167 104.767 313.167 106.974H246.431C246.431 120.531 251.262 134.462 262.33 144.862C273.182 155.06 286.927 158.973 299.634 158.973V92.2372ZM313.167 106.974C313.167 106.886 313.169 106.762 313.177 106.611C313.184 106.46 313.196 106.313 313.209 106.181C313.222 106.047 313.234 105.962 313.239 105.934C313.244 105.9 313.233 105.977 313.193 106.16L248.009 91.8511C246.9 96.9032 246.431 102.263 246.431 106.974H313.167ZM313.24 105.944L321.38 67.6492L256.103 53.7729L247.963 92.0673L313.24 105.944ZM288.742 94.0789H311.443V27.3431H288.742V94.0789ZM278.814 53.7305L271.418 88.2987L336.678 102.26L344.073 67.6915L278.814 53.7305ZM271.088 90.075C270.728 92.3566 270.394 95.2506 270.394 98.6615H337.129C337.129 99.1337 337.106 99.5585 337.075 99.9099C337.044 100.25 337.011 100.463 337.008 100.483L271.088 90.075ZM270.394 98.6615C270.394 107.677 273.097 119.228 282.388 128.519C291.68 137.811 303.23 140.514 312.246 140.514V73.7779C315.872 73.7779 323.181 74.9334 329.578 81.3298C335.974 87.7261 337.129 95.0349 337.129 98.6615H270.394ZM312.246 140.514C323.335 140.514 334.021 136.386 342.231 128.497C350.018 121.014 353.91 111.816 355.618 103.701L290.314 89.9529C290.646 88.3735 291.873 84.3344 295.991 80.3772C300.531 76.0139 306.545 73.7779 312.246 73.7779V140.514ZM355.604 103.769L363.286 67.653L298.01 53.769L290.328 89.885L355.604 103.769ZM330.648 94.0789H353.464V27.3431H330.648V94.0789ZM360.343 103.706L327.677 96.8977C327.659 96.9858 327.641 97.074 327.623 97.1623L360.343 103.706ZM365.445 79.2276L398.111 86.0362C400.161 76.2034 397.672 65.9706 391.336 58.1773C384.999 50.3841 375.489 45.8597 365.445 45.8597V79.2276ZM355.986 79.2276L323.402 72.0367C321.223 81.9117 323.64 92.2422 329.973 100.126C336.307 108.009 345.874 112.596 355.986 112.596V79.2276ZM359.655 62.6028V29.2349C343.997 29.2349 330.446 40.122 327.071 55.4119L359.655 62.6028ZM369.057 62.6028V95.9707C384.807 95.9707 398.413 84.9571 401.693 69.552L369.057 62.6028ZM372.267 47.5258V14.1579C356.517 14.1579 342.911 25.1715 339.631 40.5766L372.267 47.5258ZM394.969 47.5258L427.605 54.475C429.702 44.6265 427.24 34.3577 420.904 26.5313C414.569 18.7049 405.038 14.1579 394.969 14.1579V47.5258ZM391.758 62.6028L359.122 55.6536C357.025 65.5021 359.487 75.7709 365.823 83.5973C372.158 91.4237 381.689 95.9707 391.758 95.9707V62.6028ZM404.141 62.6028L436.772 69.579C438.878 59.7275 436.42 49.4518 430.085 41.619C423.75 33.7862 414.215 29.2349 404.141 29.2349V62.6028ZM400.587 79.2276V112.596C416.327 112.596 429.926 101.596 433.217 86.2038L400.587 79.2276ZM388.261 79.2276V45.8597C372.521 45.8597 358.921 56.86 355.631 72.2531L388.261 79.2276ZM383.446 101.757L415.407 111.345C415.665 110.484 415.889 109.612 416.077 108.732L383.446 101.757ZM394.625 108.522L427.209 115.709C429.832 103.822 425.772 91.4492 416.616 83.426C407.461 75.4029 394.662 73.0025 383.221 77.1628L394.625 108.522ZM391.185 124.115L399.783 156.356C411.832 153.143 421.084 143.48 423.77 131.302L391.185 124.115ZM381.898 91.5493C377.749 91.5493 379.422 90.6884 383.202 93.0564C385.466 94.4744 388.24 96.9381 390.329 100.706C392.421 104.478 393.023 108.11 393.023 110.7H326.287C326.287 126.931 334.269 141.152 347.775 149.612C359.151 156.738 371.945 158.285 381.898 158.285V91.5493ZM393.023 110.7C393.023 110.685 393.024 110.6 393.034 110.48C393.045 110.355 393.059 110.273 393.063 110.25L327.623 97.1623C326.501 102.775 326.287 107.596 326.287 110.7H393.023ZM393.009 110.515L398.111 86.0362L332.779 72.419L327.677 96.8977L393.009 110.515ZM365.445 45.8597H355.986V112.596H365.445V45.8597ZM388.57 86.4186L392.239 69.7937L327.071 55.4119L323.402 72.0367L388.57 86.4186ZM359.655 95.9707H369.057V29.2349H359.655V95.9707ZM401.693 69.552L404.903 54.475L339.631 40.5766L336.421 55.6536L401.693 69.552ZM372.267 80.8937H394.969V14.1579H372.267V80.8937ZM362.332 40.5766L359.122 55.6536L424.395 69.552L427.605 54.475L362.332 40.5766ZM391.758 95.9707H404.141V29.2349H391.758V95.9707ZM371.51 55.6266L367.956 72.2514L433.217 86.2038L436.772 69.579L371.51 55.6266ZM400.587 45.8597H388.261V112.596H400.587V45.8597ZM355.631 72.2531L350.815 94.7826L416.077 108.732L420.892 86.2022L355.631 72.2531ZM351.485 92.1689C350.453 95.6097 350.139 98.6772 350.056 99.456C349.918 100.763 349.791 102.465 349.791 104.28H416.527C416.527 104.949 416.502 105.434 416.488 105.674C416.471 105.952 416.449 106.22 416.42 106.495C416.393 106.749 416.341 107.192 416.243 107.782C416.174 108.192 415.942 109.561 415.407 111.345L351.485 92.1689ZM349.791 104.28C349.791 114.31 353.876 127.785 367.202 136.104C376.761 142.07 386.689 142.234 390.497 142.234V75.4978C390.532 75.4978 390.787 75.4983 391.218 75.531C391.642 75.5633 392.359 75.6361 393.293 75.8111C395.001 76.131 398.539 76.994 402.542 79.4924C406.954 82.2471 411.008 86.4325 413.645 91.9158C416.105 97.0326 416.527 101.602 416.527 104.28H349.791ZM390.497 142.234C391.919 142.234 398.971 142.447 406.028 139.881L383.221 77.1628C385.117 76.4733 386.739 76.0949 387.88 75.8802C389.003 75.6687 389.863 75.5788 390.305 75.54C391.086 75.4713 391.336 75.4978 390.497 75.4978V142.234ZM362.04 101.334L358.601 116.927L423.77 131.302L427.209 115.709L362.04 101.334ZM382.587 91.8734C383 91.7634 383.344 91.6824 383.599 91.6256C383.859 91.568 384.071 91.5257 384.226 91.4963C384.526 91.4394 384.715 91.4116 384.765 91.4045C384.823 91.3961 384.814 91.3985 384.73 91.4077C384.65 91.4167 384.527 91.4292 384.364 91.4433C384.029 91.4722 383.611 91.5001 383.152 91.5201C382.692 91.5402 382.262 91.5493 381.898 91.5493V158.285C386.032 158.285 393.663 157.988 399.783 156.356L382.587 91.8734ZM501.024 60.711L533.66 67.6581C535.757 57.8099 533.294 47.5416 526.958 39.7157C520.623 31.8898 511.092 27.3431 501.024 27.3431V60.711ZM487.552 124V157.368C503.303 157.368 516.909 146.353 520.188 130.947L487.552 124ZM465.481 124L432.833 117.108C430.755 126.95 433.228 137.204 439.564 145.017C445.899 152.83 455.422 157.368 465.481 157.368V124ZM467.659 113.681L500.308 120.574C502.385 110.731 499.912 100.477 493.576 92.6641C487.241 84.8511 477.718 80.3132 467.659 80.3132V113.681ZM467.201 113.681V80.3132C454.598 80.3132 443.071 87.4131 437.401 98.6676L467.201 113.681ZM428.161 99.0054L460.753 106.16C460.769 106.088 460.784 106.016 460.8 105.944L428.161 99.0054ZM436.301 60.711V27.3431C420.547 27.3431 406.939 38.3625 403.663 53.7729L436.301 60.711ZM459.003 60.711L491.633 67.6915C493.74 57.8395 491.284 47.5627 484.948 39.7289C478.613 31.8951 469.078 27.3431 459.003 27.3431V60.711ZM451.608 95.2792L418.978 88.2987C418.852 88.8877 418.742 89.4801 418.648 90.075L451.608 95.2792ZM470.526 96.827L437.888 89.885C437.883 89.9076 437.878 89.9302 437.873 89.9529L470.526 96.827ZM478.207 60.711V27.3431C462.454 27.3431 448.847 38.3605 445.57 53.769L478.207 60.711ZM468.387 53.7639L454.915 117.053L520.188 130.947L533.66 67.6581L468.387 53.7639ZM487.552 90.6321H465.481V157.368H487.552V90.6321ZM498.129 130.892L500.308 120.574L435.011 106.789L432.833 117.108L498.129 130.892ZM467.659 80.3132H467.201V147.049H467.659V80.3132ZM437.401 98.6676C438.319 96.8464 439.893 95.0555 442.001 93.7991C444.074 92.5632 445.988 92.2372 447.194 92.2372V158.973C467.863 158.973 487.212 148.123 497 128.695L437.401 98.6676ZM447.194 92.2372C447.805 92.2372 451.632 92.5105 455.59 96.2297C459.765 100.152 460.726 104.767 460.726 106.974H393.99C393.99 120.531 398.822 134.462 409.89 144.862C420.741 155.06 434.486 158.973 447.194 158.973V92.2372ZM460.726 106.974C460.726 106.886 460.729 106.762 460.736 106.611C460.744 106.46 460.755 106.313 460.769 106.181C460.782 106.047 460.794 105.962 460.798 105.934C460.804 105.9 460.793 105.977 460.753 106.16L395.569 91.8511C394.46 96.9032 393.99 102.263 393.99 106.974H460.726ZM460.8 105.944L468.94 67.6492L403.663 53.7729L395.522 92.0673L460.8 105.944ZM436.301 94.0789H459.003V27.3431H436.301V94.0789ZM426.373 53.7305L418.978 88.2987L484.237 102.26L491.633 67.6915L426.373 53.7305ZM418.648 90.075C418.288 92.3566 417.953 95.2506 417.953 98.6615H484.689C484.689 99.1337 484.666 99.5585 484.634 99.9099C484.604 100.25 484.57 100.463 484.567 100.483L418.648 90.075ZM417.953 98.6615C417.953 107.677 420.656 119.228 429.948 128.519C439.239 137.811 450.79 140.514 459.805 140.514V73.7779C463.432 73.7779 470.741 74.9334 477.137 81.3298C483.534 87.7261 484.689 95.0349 484.689 98.6615H417.953ZM459.805 140.514C470.895 140.514 481.581 136.386 489.79 128.497C497.577 121.014 501.469 111.816 503.178 103.701L437.873 89.9529C438.206 88.3735 439.432 84.3344 443.55 80.3772C448.091 76.0139 454.105 73.7779 459.805 73.7779V140.514ZM503.163 103.769L510.845 67.653L445.57 53.769L437.888 89.885L503.163 103.769ZM478.207 94.0789H501.024V27.3431H478.207V94.0789ZM563.969 80.4315V113.799C573.029 113.799 581.699 110.115 587.988 103.594C594.277 97.0717 597.644 88.273 597.314 79.2189L563.969 80.4315ZM543.675 80.4315L510.368 82.4501C511.435 100.062 526.03 113.799 543.675 113.799V80.4315ZM535.764 83.9858L524.942 115.55C524.981 115.563 525.02 115.577 525.059 115.59L535.764 83.9858ZM542.872 86.3935L553.603 54.798C553.594 54.7951 553.586 54.7922 553.577 54.7893L542.872 86.3935ZM498.96 103.477V70.109C489.89 70.109 481.212 73.8007 474.922 80.3343C468.631 86.8678 465.272 95.6803 465.616 104.743L498.96 103.477ZM520.4 103.477L553.719 101.676C552.762 83.973 538.129 70.109 520.4 70.109V103.477ZM529.687 101.069L540.525 69.5105C540.493 69.4994 540.461 69.4884 540.428 69.4774L529.687 101.069ZM523.954 99.1201L534.696 67.5282L534.69 67.5264L523.954 99.1201ZM539.952 80.4315C539.952 82.1828 539.537 84.4999 538.313 86.8817C537.103 89.2365 535.526 90.8356 534.253 91.7733C531.96 93.4631 531.58 92.4738 535.534 92.4738V25.7379C521.89 25.7379 507.034 28.9335 494.666 38.0472C481.363 47.849 473.216 63.0195 473.216 80.4315H539.952ZM535.534 92.4738C538.081 92.4738 537.614 93.1654 535.695 91.7244C534.676 90.9598 533.375 89.6563 532.313 87.6987C531.226 85.6972 530.693 83.5632 530.623 81.6441L597.314 79.2189C595.945 41.5539 561.801 25.7379 535.534 25.7379V92.4738ZM563.969 47.0636H543.675V113.799H563.969V47.0636ZM576.982 78.4129C575.333 51.2064 551.284 40.643 535.19 40.643V107.379C531.9 107.379 526.384 106.495 520.888 102.279C514.958 97.7306 510.858 90.5383 510.368 82.4501L576.982 78.4129ZM535.19 40.643C529.246 40.643 520.595 41.7213 512.258 46.9558C502.699 52.9585 494.714 64.0703 494.714 78.4824H561.45C561.45 83.5789 560.112 88.8824 557.259 93.6801C554.48 98.3523 550.899 101.494 547.746 103.474C541.875 107.16 536.778 107.379 535.19 107.379V40.643ZM494.714 78.4824C494.714 83.2931 495.641 89.5221 499.084 95.89C502.412 102.046 506.862 106.047 510.318 108.506C515.972 112.53 522.348 114.661 524.942 115.55L546.586 52.4215C545.42 52.0217 545.117 51.8855 545.271 51.9518C545.304 51.9663 546.906 52.6342 549.013 54.1337C551.301 55.7618 554.959 58.9176 557.788 64.1489C560.731 69.5924 561.45 74.8182 561.45 78.4824H494.714ZM525.059 115.59L532.168 117.998L553.577 54.7893L546.468 52.3815L525.059 115.59ZM532.142 117.989C534.015 118.625 534.697 118.991 534.661 118.971C534.596 118.936 533.319 118.241 531.713 116.566C529.959 114.736 528.364 112.31 527.337 109.476C526.364 106.793 526.244 104.699 526.244 103.821H592.98C592.98 92.6838 589.595 80.508 579.886 70.3805C571.652 61.7927 561.37 57.4359 553.603 54.798L532.142 117.989ZM526.244 103.821C526.244 102.07 526.666 99.7626 527.891 97.4089C529.098 95.0894 530.648 93.5594 531.831 92.698C533.932 91.1696 534.004 92.2372 529.687 92.2372V158.973C543.543 158.973 558.577 155.77 571.097 146.66C584.573 136.854 592.98 121.556 592.98 103.821H526.244ZM529.687 92.2372C525.226 92.2372 525.169 91.1553 527.131 92.5699C528.231 93.3627 529.631 94.7415 530.738 96.7859C531.853 98.8466 532.251 100.812 532.304 102.211L465.616 104.743C466.271 122.003 474.607 136.973 488.101 146.702C500.697 155.784 515.746 158.973 529.687 158.973V92.2372ZM498.96 136.845H520.4V70.109H498.96V136.845ZM487.081 105.278C487.763 117.905 494.168 128.678 503.459 135.519C512.189 141.949 522.026 144.011 530.26 144.011V77.2749C532.704 77.2749 537.726 77.8752 543.031 81.782C548.897 86.1014 553.266 93.2909 553.719 101.676L487.081 105.278ZM530.26 144.011C535.57 144.011 544.28 143.211 552.804 137.981C563.134 131.644 570.508 120.21 570.508 106.458H503.772C503.772 101.737 504.931 96.4529 507.841 91.4486C510.708 86.52 514.497 83.1887 517.906 81.0973C524.094 77.3008 529.364 77.2749 530.26 77.2749V144.011ZM570.508 106.458C570.508 101.069 569.326 94.7966 565.874 88.6447C562.596 82.8019 558.336 78.9738 555.047 76.6048C549.466 72.583 543.303 70.4644 540.525 69.5105L518.849 132.628C519.826 132.963 520.012 133.06 519.757 132.947C519.601 132.878 518.057 132.206 516.036 130.75C513.901 129.213 510.44 126.23 507.672 121.297C504.731 116.055 503.772 110.757 503.772 106.458H570.508ZM540.428 69.4774L534.696 67.5283L513.213 130.712L518.946 132.661L540.428 69.4774ZM534.69 67.5264C531.571 66.4666 532.944 66.3081 535.272 68.8116C536.579 70.2162 537.891 72.1545 538.807 74.5519C539.711 76.9178 539.952 79.0016 539.952 80.4315H473.216C473.216 92.7562 477.49 104.678 486.409 114.266C494.471 122.932 504.528 127.761 513.219 130.714L534.69 67.5264Z" fill="url(#paint0_linear_1549_5617)"/>
<path d="M91.7089 61.5709L77.5492 90.4064H93.4861L92.2249 61.5709H91.7089ZM94.9766 124L94.2313 107.547H69.1221L61.039 124H35.4138L80.9315 41.2772H111.429L119.914 124H94.9766ZM169.674 124.917C160.444 124.917 153.049 120.159 150.641 112.707H150.182L147.775 124H125.647L143.303 41.2772H166.062L159.871 69.7114H160.444C164.342 63.4054 171.336 59.7938 179.534 59.7938C192.49 59.7938 200.516 68.9088 200.516 83.7565C200.516 107.261 187.273 124.917 169.674 124.917ZM163.425 107.031C170.935 107.031 177.011 98.3748 177.011 87.5974C177.011 81.1767 173.515 76.9919 168.183 76.9919C160.96 76.9919 154.597 86.0495 154.597 96.4257C154.597 102.846 158.094 107.031 163.425 107.031ZM237.778 108.235C245.46 108.235 251.365 99.5214 251.365 88.2853C251.365 81.1767 247.982 76.4759 242.823 76.4759C234.969 76.4759 229.179 84.9603 229.179 96.4257C229.179 103.477 232.619 108.235 237.778 108.235ZM243.969 59.1059C262.199 59.1059 274.582 70.6859 274.582 87.8267C274.582 109.898 258.874 125.605 236.746 125.605C218.516 125.605 206.134 114.025 206.134 96.8843C206.134 74.8135 221.841 59.1059 243.969 59.1059ZM353.464 60.711L339.992 124H317.921L320.1 113.681H319.641C315.857 121.191 308.462 125.605 299.634 125.605C287.538 125.605 279.799 118.325 279.799 106.974C279.799 104.28 280.085 101.356 280.601 99.0054L288.742 60.711H311.443L304.048 95.2792C303.876 96.3684 303.761 97.4576 303.761 98.6615C303.761 104.05 306.857 107.146 312.246 107.146C317.635 107.146 321.59 103.362 322.966 96.827L330.648 60.711H353.464ZM381.898 124.917C367.796 124.917 359.655 120.102 359.655 110.7C359.655 109.095 359.77 106.573 360.343 103.706L365.445 79.2276H355.986L359.655 62.6028H369.057L372.267 47.5258H394.969L391.758 62.6028H404.141L400.587 79.2276H388.261L383.446 101.757C383.274 102.33 383.159 103.592 383.159 104.28C383.159 107.547 385.28 108.866 390.497 108.866C392.905 108.866 393.994 108.751 394.625 108.522L391.185 124.115C389.465 124.573 385.452 124.917 381.898 124.917ZM501.024 60.711L487.552 124H465.481L467.659 113.681H467.201C463.417 121.191 456.022 125.605 447.194 125.605C435.098 125.605 427.358 118.325 427.358 106.974C427.358 104.28 427.645 101.356 428.161 99.0054L436.301 60.711H459.003L451.608 95.2792C451.436 96.3684 451.321 97.4576 451.321 98.6615C451.321 104.05 454.417 107.146 459.805 107.146C465.194 107.146 469.15 103.362 470.526 96.827L478.207 60.711H501.024ZM506.584 80.4315C506.584 67.4756 517.935 59.1059 535.534 59.1059C551.93 59.1059 563.51 67.8196 563.969 80.4315H543.675C543.446 76.6479 540.121 74.0109 535.19 74.0109C530.834 74.0109 528.082 75.7307 528.082 78.4824C528.082 80.7755 529.744 81.922 535.764 83.9858L542.872 86.3935C555.026 90.521 559.612 95.3365 559.612 103.821C559.612 117.063 547.86 125.605 529.687 125.605C511.285 125.605 499.476 117.063 498.96 103.477H520.4C520.629 107.719 524.47 110.643 530.26 110.643C534.675 110.643 537.14 109.095 537.14 106.458C537.14 104.28 535.362 103.018 529.687 101.069L523.954 99.1201C512.145 95.1072 506.584 89.1452 506.584 80.4315Z" fill="#EDEDFF"/>
<defs>
<linearGradient id="paint0_linear_1549_5617" x1="40" y1="12" x2="518.825" y2="245.599" gradientUnits="userSpaceOnUse">
<stop stop-color="#0C62FD"/>
<stop offset="1" stop-color="#1035B8"/>
</linearGradient>
</defs>
</svg>
