<svg width="533" height="82" viewBox="0 0 533 82" fill="none" xmlns="http://www.w3.org/2000/svg">
<path d="M57.8613 65.1758H47.539V44.3946H25.3222V65.1758H15V15.8545H25.3222V35.8838H47.539V15.8545H57.8613V65.1758ZM90.4004 65.1758H80.0781V46.7529L62.9199 15.8545H74.165L85.205 36.9092H85.4443L96.5185 15.8545H107.593L90.4004 46.7529V65.1758ZM134.458 65.1758H112.617V15.8545H134.082C143.344 15.8545 149.155 20.6055 149.155 28.1592C149.155 33.5596 145.122 38.0713 139.892 38.8574V39.1309C146.591 39.6436 151.513 44.5313 151.513 51.0596C151.513 59.7412 144.985 65.1758 134.458 65.1758ZM122.939 23.5449V36.3623H130.356C135.859 36.3623 139.003 33.9356 139.003 29.7656C139.003 25.8008 136.235 23.5449 131.416 23.5449H122.939ZM122.939 57.4854H131.826C137.773 57.4854 140.986 54.9561 140.986 50.2393C140.986 45.625 137.67 43.1641 131.586 43.1641H122.939V57.4854ZM167.714 23.9209V39.6436H176.601C181.796 39.6436 184.838 36.6699 184.838 31.7822C184.838 26.9971 181.626 23.9209 176.499 23.9209H167.714ZM167.714 47.1289V65.1758H157.392V15.8545H177.592C188.94 15.8545 195.434 21.836 195.434 31.5772C195.434 37.9004 192.153 43.3692 186.479 45.5908L196.87 65.1758H185.18L175.986 47.1289H167.714ZM212.558 65.1758H202.236V15.8545H212.558V65.1758ZM220.761 15.8545H239.594C254.394 15.8545 263.11 24.6729 263.11 40.3272C263.11 55.9815 254.394 65.1758 239.594 65.1758H220.761V15.8545ZM231.084 24.3653V56.6309H238.364C247.592 56.6309 252.583 51.0254 252.583 40.3613C252.583 30.0391 247.456 24.3653 238.364 24.3653H231.084ZM335.878 65.1758H326.684V31.8848H326.411L313.012 64.6973H306.518L293.12 31.8848H292.846V65.1758H283.652V15.8545H295.615L309.628 50.8203H309.902L323.916 15.8545H335.878V65.1758ZM366.333 15C380.927 15 390.122 24.8096 390.122 40.5322C390.122 56.2207 380.927 66.0303 366.333 66.0303C351.704 66.0303 342.544 56.2207 342.544 40.5322C342.544 24.8096 351.704 15 366.333 15ZM366.333 23.6133C358.266 23.6133 353.071 30.1758 353.071 40.5322C353.071 50.8545 358.232 57.3828 366.333 57.3828C374.399 57.3828 379.56 50.8545 379.56 40.5322C379.56 30.1758 374.399 23.6133 366.333 23.6133ZM396.787 15.8545H415.62C430.419 15.8545 439.135 24.6729 439.135 40.3272C439.135 55.9815 430.419 65.1758 415.62 65.1758H396.787V15.8545ZM407.109 24.3653V56.6309H414.389C423.618 56.6309 428.608 51.0254 428.608 40.3613C428.608 30.0391 423.481 24.3653 414.389 24.3653H407.109ZM478.476 56.6309V65.1758H445.8V15.8545H478.476V24.3653H456.123V36.2598H477.211V44.1895H456.123V56.6309H478.476ZM517.817 56.6309V65.1758H485.927V15.8545H496.25V56.6309H517.817Z" fill="#100F0F"/>
<path d="M57.8613 65.1758V80.1758C66.1456 80.1758 72.8613 73.4601 72.8613 65.1758H57.8613ZM47.539 65.1758H32.539C32.539 73.4601 39.2548 80.1758 47.539 80.1758V65.1758ZM47.539 44.3946H62.539C62.539 36.1103 55.8233 29.3946 47.539 29.3946V44.3946ZM25.3222 44.3946V29.3946C17.038 29.3946 10.3222 36.1103 10.3222 44.3946H25.3222ZM25.3222 65.1758V80.1758C33.6065 80.1758 40.3222 73.4601 40.3222 65.1758H25.3222ZM15 65.1758H0C0 73.4601 6.71569 80.1758 15 80.1758V65.1758ZM15 15.8545V0.85449C6.71569 0.85449 0 7.57022 0 15.8545H15ZM25.3222 15.8545H40.3222C40.3222 7.57022 33.6065 0.85449 25.3222 0.85449V15.8545ZM25.3222 35.8838H10.3222C10.3222 44.1681 17.038 50.8838 25.3222 50.8838V35.8838ZM47.539 35.8838V50.8838C55.8233 50.8838 62.539 44.1681 62.539 35.8838H47.539ZM47.539 15.8545V0.85449C39.2548 0.85449 32.539 7.57022 32.539 15.8545H47.539ZM57.8613 15.8545H72.8613C72.8613 7.57022 66.1456 0.85449 57.8613 0.85449V15.8545ZM57.8613 50.1758H47.539V80.1758H57.8613V50.1758ZM62.539 65.1758V44.3946H32.539V65.1758H62.539ZM47.539 29.3946H25.3222V59.3946H47.539V29.3946ZM10.3222 44.3946V65.1758H40.3222V44.3946H10.3222ZM25.3222 50.1758H15V80.1758H25.3222V50.1758ZM30 65.1758V15.8545H0V65.1758H30ZM15 30.8545H25.3222V0.85449H15V30.8545ZM10.3222 15.8545V35.8838H40.3222V15.8545H10.3222ZM25.3222 50.8838H47.539V20.8838H25.3222V50.8838ZM62.539 35.8838V15.8545H32.539V35.8838H62.539ZM47.539 30.8545H57.8613V0.85449H47.539V30.8545ZM42.8613 15.8545V65.1758H72.8613V15.8545H42.8613ZM90.4004 65.1758V80.1758C98.6846 80.1758 105.4 73.4601 105.4 65.1758H90.4004ZM80.0781 65.1758H65.0781C65.0781 73.4601 71.7938 80.1758 80.0781 80.1758V65.1758ZM80.0781 46.7529H95.0781C95.0781 44.2047 94.4289 41.6985 93.1918 39.4708L80.0781 46.7529ZM62.9199 15.8545V0.85449C57.6056 0.85449 52.688 3.66638 49.9925 8.24636C47.2971 12.8264 47.2262 18.4907 49.8062 23.1367L62.9199 15.8545ZM74.165 15.8545L87.4495 8.88875C84.8594 3.94913 79.7425 0.85449 74.165 0.85449V15.8545ZM85.205 36.9092L71.9205 43.8749C74.5106 48.8146 79.6276 51.9092 85.205 51.9092V36.9092ZM85.4443 36.9092V51.9092C91.0149 51.9092 96.1268 48.8221 98.7199 43.8918L85.4443 36.9092ZM96.5185 15.8545V0.85449C90.9479 0.85449 85.8361 3.9416 83.2429 8.87185L96.5185 15.8545ZM107.593 15.8545L120.7 23.1478C123.285 18.502 123.218 12.8349 120.523 8.25182C117.828 3.66875 112.909 0.85449 107.593 0.85449V15.8545ZM90.4004 46.7529L77.2928 39.4597C76.0517 41.6902 75.4004 44.2004 75.4004 46.7529H90.4004ZM90.4004 50.1758H80.0781V80.1758H90.4004V50.1758ZM95.0781 65.1758V46.7529H65.0781V65.1758H95.0781ZM93.1918 39.4708L76.0336 8.57231L49.8062 23.1367L66.9644 54.0351L93.1918 39.4708ZM62.9199 30.8545H74.165V0.85449H62.9199V30.8545ZM60.8805 22.8203L71.9205 43.8749L98.4896 29.9435L87.4495 8.88875L60.8805 22.8203ZM85.205 51.9092H85.4443V21.9092H85.205V51.9092ZM98.7199 43.8918L109.794 22.8372L83.2429 8.87185L72.1687 29.9266L98.7199 43.8918ZM96.5185 30.8545H107.593V0.85449H96.5185V30.8545ZM94.4852 8.56123L77.2928 39.4597L103.508 54.0462L120.7 23.1478L94.4852 8.56123ZM75.4004 46.7529V65.1758H105.4V46.7529H75.4004ZM112.617 65.1758H97.6172C97.6172 73.4601 104.333 80.1758 112.617 80.1758V65.1758ZM112.617 15.8545V0.85449C104.333 0.85449 97.6172 7.57022 97.6172 15.8545H112.617ZM139.892 38.8574L137.662 24.0241C130.322 25.1276 124.892 31.4343 124.892 38.8574H139.892ZM139.892 39.1309H124.892C124.892 46.9712 130.93 53.4889 138.748 54.0871L139.892 39.1309ZM122.939 23.5449V8.54492C114.655 8.54492 107.939 15.2607 107.939 23.5449H122.939ZM122.939 36.3623H107.939C107.939 44.6466 114.655 51.3623 122.939 51.3623V36.3623ZM122.939 57.4854H107.939C107.939 65.7696 114.655 72.4854 122.939 72.4854V57.4854ZM122.939 43.1641V28.1641C114.655 28.1641 107.939 34.8798 107.939 43.1641H122.939ZM134.458 50.1758H112.617V80.1758H134.458V50.1758ZM127.617 65.1758V15.8545H97.6172V65.1758H127.617ZM112.617 30.8545H134.082V0.85449H112.617V30.8545ZM134.082 30.8545C136.303 30.8545 136.384 31.4296 135.604 30.792C135.187 30.4521 134.756 29.9328 134.461 29.2882C134.173 28.6588 134.155 28.2175 134.155 28.1592H164.155C164.155 20.1945 160.916 12.7311 154.58 7.55637C148.578 2.65486 141.123 0.85449 134.082 0.85449V30.8545ZM134.155 28.1592C134.155 25.9378 135.749 24.3117 137.662 24.0241L142.122 53.6908C154.494 51.8309 164.155 41.1813 164.155 28.1592H134.155ZM124.892 38.8574V39.1309H154.892V38.8574H124.892ZM138.748 54.0871C138.75 54.0873 138.61 54.0759 138.373 53.9691C138.136 53.8626 137.83 53.6721 137.522 53.3587C136.823 52.6489 136.513 51.7224 136.513 51.0596H166.513C166.513 35.8866 154.725 25.2222 141.037 24.1746L138.748 54.0871ZM136.513 51.0596C136.513 51.3309 136.468 51.1768 136.644 50.7864C136.827 50.3767 137.108 50.0341 137.36 49.8253C137.822 49.4421 137.29 50.1758 134.458 50.1758V80.1758C142.153 80.1758 150.148 78.1922 156.506 72.9213C163.184 67.3857 166.513 59.472 166.513 51.0596H136.513ZM107.939 23.5449V36.3623H137.939V23.5449H107.939ZM122.939 51.3623H130.356V21.3623H122.939V51.3623ZM130.356 51.3623C135.042 51.3623 140.862 50.3642 145.859 46.5401C151.41 42.2926 154.003 36.0375 154.003 29.7656H124.003C124.003 28.9047 124.173 27.6246 124.84 26.1991C125.522 24.7411 126.528 23.5571 127.628 22.7153C129.677 21.147 131.173 21.3623 130.356 21.3623V51.3623ZM154.003 29.7656C154.003 24.012 151.819 17.8999 146.517 13.5608C141.652 9.57884 135.931 8.54492 131.416 8.54492V38.5449C131.72 38.5449 129.792 38.639 127.516 36.7761C126.333 35.8078 125.366 34.5399 124.743 33.1092C124.139 31.723 124.003 30.5235 124.003 29.7656H154.003ZM131.416 8.54492H122.939V38.5449H131.416V8.54492ZM122.939 72.4854H131.826V42.4854H122.939V72.4854ZM131.826 72.4854C136.605 72.4854 142.727 71.5153 147.935 67.401C153.726 62.8255 155.986 56.2977 155.986 50.2393H125.986C125.986 49.7206 126.076 48.6566 126.65 47.3465C127.251 45.974 128.197 44.7621 129.337 43.8612C131.451 42.1908 132.994 42.4854 131.826 42.4854V72.4854ZM155.986 50.2393C155.986 43.9329 153.477 37.4031 147.568 32.9713C142.356 29.0628 136.302 28.1641 131.586 28.1641V58.1641C132.955 58.1641 131.6 58.4958 129.568 56.9713C128.441 56.1261 127.425 54.9274 126.753 53.472C126.107 52.0716 125.986 50.8869 125.986 50.2393H155.986ZM131.586 28.1641H122.939V58.1641H131.586V28.1641ZM107.939 43.1641V57.4854H137.939V43.1641H107.939ZM167.714 23.9209V8.9209C159.43 8.9209 152.714 15.6366 152.714 23.9209H167.714ZM167.714 39.6436H152.714C152.714 47.9278 159.43 54.6436 167.714 54.6436V39.6436ZM167.714 47.1289V32.1289C159.43 32.1289 152.714 38.8447 152.714 47.1289H167.714ZM167.714 65.1758V80.1758C175.999 80.1758 182.714 73.4601 182.714 65.1758H167.714ZM157.392 65.1758H142.392C142.392 73.4601 149.108 80.1758 157.392 80.1758V65.1758ZM157.392 15.8545V0.85449C149.108 0.85449 142.392 7.57022 142.392 15.8545H157.392ZM186.479 45.5908L181.01 31.6234C177.027 33.1828 173.9 36.368 172.414 40.3784C170.928 44.3887 171.224 48.8428 173.228 52.6208L186.479 45.5908ZM196.87 65.1758V80.1758C202.133 80.1758 207.011 77.4174 209.724 72.9072C212.436 68.3971 212.587 62.7951 210.12 58.1458L196.87 65.1758ZM185.18 65.1758L171.815 71.9851C174.375 77.0112 179.539 80.1758 185.18 80.1758V65.1758ZM175.986 47.1289L189.351 40.3197C186.791 35.2935 181.627 32.1289 175.986 32.1289V47.1289ZM152.714 23.9209V39.6436H182.714V23.9209H152.714ZM167.714 54.6436H176.601V24.6436H167.714V54.6436ZM176.601 54.6436C182.017 54.6436 188.177 53.053 193.059 48.3633C198.015 43.6027 199.838 37.392 199.838 31.7822H169.838C169.838 31.0602 170.141 28.7801 172.277 26.7283C174.339 24.7473 176.38 24.6436 176.601 24.6436V54.6436ZM199.838 31.7822C199.838 25.9157 197.779 19.7804 192.904 15.1645C188.113 10.6289 182.05 8.9209 176.499 8.9209V38.9209C176.075 38.9209 174.181 38.751 172.279 36.9498C170.291 35.0682 169.838 32.8636 169.838 31.7822H199.838ZM176.499 8.9209H167.714V38.9209H176.499V8.9209ZM152.714 47.1289V65.1758H182.714V47.1289H152.714ZM167.714 50.1758H157.392V80.1758H167.714V50.1758ZM172.392 65.1758V15.8545H142.392V65.1758H172.392ZM157.392 30.8545H177.592V0.85449H157.392V30.8545ZM177.592 30.8545C180.757 30.8545 181.256 31.6775 180.785 31.2575C180.559 31.0567 180.407 30.8096 180.35 30.6678C180.307 30.564 180.434 30.8065 180.434 31.5772H210.434C210.434 23.2171 207.529 14.9119 200.753 8.86822C194.198 3.02219 185.776 0.85449 177.592 0.85449V30.8545ZM180.434 31.5772C180.434 32.1551 180.288 32.2935 180.382 32.1441C180.428 32.0701 180.516 31.9577 180.653 31.8435C180.793 31.7264 180.926 31.6562 181.01 31.6234L191.948 59.5582C204.203 54.7597 210.434 43.1288 210.434 31.5772H180.434ZM173.228 52.6208L183.619 72.2058L210.12 58.1458L199.73 38.5608L173.228 52.6208ZM196.87 50.1758H185.18V80.1758H196.87V50.1758ZM198.546 58.3665L189.351 40.3197L162.62 53.9382L171.815 71.9851L198.546 58.3665ZM175.986 32.1289H167.714V62.1289H175.986V32.1289ZM212.558 65.1758V80.1758C220.842 80.1758 227.558 73.4601 227.558 65.1758H212.558ZM202.236 65.1758H187.236C187.236 73.4601 193.952 80.1758 202.236 80.1758V65.1758ZM202.236 15.8545V0.85449C193.952 0.85449 187.236 7.57022 187.236 15.8545H202.236ZM212.558 15.8545H227.558C227.558 7.57022 220.842 0.85449 212.558 0.85449V15.8545ZM212.558 50.1758H202.236V80.1758H212.558V50.1758ZM217.236 65.1758V15.8545H187.236V65.1758H217.236ZM202.236 30.8545H212.558V0.85449H202.236V30.8545ZM197.558 15.8545V65.1758H227.558V15.8545H197.558ZM220.761 15.8545V0.85449C212.477 0.85449 205.761 7.57022 205.761 15.8545H220.761ZM220.761 65.1758H205.761C205.761 73.4601 212.477 80.1758 220.761 80.1758V65.1758ZM231.084 24.3653V9.36523C222.799 9.36523 216.084 16.081 216.084 24.3653H231.084ZM231.084 56.6309H216.084C216.084 64.9151 222.799 71.6309 231.084 71.6309V56.6309ZM220.761 30.8545H239.594V0.85449H220.761V30.8545ZM239.594 30.8545C244.002 30.8545 245.589 32.1001 246.125 32.6542C246.724 33.273 248.11 35.2173 248.11 40.3272H278.11C278.11 29.7828 275.138 19.4907 267.679 11.7867C260.157 4.01804 249.986 0.85449 239.594 0.85449V30.8545ZM248.11 40.3272C248.11 45.4446 246.717 47.5623 246.01 48.309C245.407 48.9458 243.824 50.1758 239.594 50.1758V80.1758C250.164 80.1758 260.34 76.8086 267.794 68.9347C275.145 61.1707 278.11 50.864 278.11 40.3272H248.11ZM239.594 50.1758H220.761V80.1758H239.594V50.1758ZM235.761 65.1758V15.8545H205.761V65.1758H235.761ZM216.084 24.3653V56.6309H246.084V24.3653H216.084ZM231.084 71.6309H238.364V41.6309H231.084V71.6309ZM238.364 71.6309C246.1 71.6309 254.253 69.1711 260.205 62.3926C265.868 55.9442 267.583 47.7825 267.583 40.3613H237.583C237.583 41.896 237.399 42.7362 237.3 43.063C237.213 43.3505 237.247 43.071 237.663 42.5976C237.862 42.3706 238.101 42.1559 238.363 41.9738C238.623 41.793 238.851 41.6833 239.004 41.6231C239.302 41.5063 239.174 41.6309 238.364 41.6309V71.6309ZM267.583 40.3613C267.583 32.9047 265.734 24.8452 260.072 18.5029C254.176 11.8986 246.132 9.36523 238.364 9.36523V39.3653C239.091 39.3653 239.202 39.4791 238.922 39.3687C238.78 39.3128 238.573 39.2123 238.336 39.0487C238.097 38.884 237.878 38.6894 237.693 38.482C237.305 38.0471 237.258 37.7781 237.328 38.0002C237.409 38.2581 237.583 38.9911 237.583 40.3613H267.583ZM238.364 9.36523H231.084V39.3653H238.364V9.36523ZM335.878 65.1758V80.1758C344.163 80.1758 350.878 73.4601 350.878 65.1758H335.878ZM326.684 65.1758H311.684C311.684 73.4601 318.4 80.1758 326.684 80.1758V65.1758ZM326.684 31.8848H341.684C341.684 23.6005 334.968 16.8848 326.684 16.8848V31.8848ZM326.411 31.8848V16.8848C320.316 16.8848 314.828 20.5721 312.524 26.2143L326.411 31.8848ZM313.012 64.6973V79.6973C319.107 79.6973 324.595 76.0099 326.899 70.3678L313.012 64.6973ZM306.518 64.6973L292.631 70.3678C294.935 76.0099 300.424 79.6973 306.518 79.6973V64.6973ZM293.12 31.8848L307.007 26.2143C304.703 20.5721 299.214 16.8848 293.12 16.8848V31.8848ZM292.846 31.8848V16.8848C284.562 16.8848 277.846 23.6005 277.846 31.8848H292.846ZM292.846 65.1758V80.1758C301.131 80.1758 307.846 73.4601 307.846 65.1758H292.846ZM283.652 65.1758H268.652C268.652 73.4601 275.368 80.1758 283.652 80.1758V65.1758ZM283.652 15.8545V0.85449C275.368 0.85449 268.652 7.57022 268.652 15.8545H283.652ZM295.615 15.8545L309.538 10.2743C307.258 4.58433 301.745 0.85449 295.615 0.85449V15.8545ZM309.628 50.8203L295.705 56.4006C297.985 62.0905 303.499 65.8203 309.628 65.8203V50.8203ZM309.902 50.8203V65.8203C316.032 65.8203 321.545 62.0905 323.825 56.4006L309.902 50.8203ZM323.916 15.8545V0.85449C317.786 0.85449 312.273 4.58433 309.992 10.2743L323.916 15.8545ZM335.878 15.8545H350.878C350.878 7.57022 344.163 0.85449 335.878 0.85449V15.8545ZM335.878 50.1758H326.684V80.1758H335.878V50.1758ZM341.684 65.1758V31.8848H311.684V65.1758H341.684ZM326.684 16.8848H326.411V46.8848H326.684V16.8848ZM312.524 26.2143L299.125 59.0268L326.899 70.3678L340.298 37.5553L312.524 26.2143ZM313.012 49.6973H306.518V79.6973H313.012V49.6973ZM320.405 59.0268L307.007 26.2143L279.233 37.5553L292.631 70.3678L320.405 59.0268ZM293.12 16.8848H292.846V46.8848H293.12V16.8848ZM277.846 31.8848V65.1758H307.846V31.8848H277.846ZM292.846 50.1758H283.652V80.1758H292.846V50.1758ZM298.652 65.1758V15.8545H268.652V65.1758H298.652ZM283.652 30.8545H295.615V0.85449H283.652V30.8545ZM281.691 21.4348L295.705 56.4006L323.552 45.2401L309.538 10.2743L281.691 21.4348ZM309.628 65.8203H309.902V35.8203H309.628V65.8203ZM323.825 56.4006L337.839 21.4348L309.992 10.2743L295.979 45.2401L323.825 56.4006ZM323.916 30.8545H335.878V0.85449H323.916V30.8545ZM320.878 15.8545V65.1758H350.878V15.8545H320.878ZM366.333 30C370.139 30 371.873 31.1819 372.734 32.1045C373.703 33.1425 375.122 35.5574 375.122 40.5322H405.122C405.122 29.7845 401.943 19.4332 394.666 11.6357C387.282 3.72291 377.121 0 366.333 0V30ZM375.122 40.5322C375.122 45.482 373.707 47.8881 372.739 48.9248C371.877 49.8478 370.139 51.0303 366.333 51.0303V81.0303C377.121 81.0303 387.278 77.308 394.661 69.4041C401.939 61.6139 405.122 51.271 405.122 40.5322H375.122ZM366.333 51.0303C362.501 51.0303 360.77 49.8431 359.919 48.9304C358.958 47.9005 357.544 45.4965 357.544 40.5322H327.544C327.544 51.2564 330.71 61.6015 337.986 69.3985C345.371 77.3127 355.535 81.0303 366.333 81.0303V51.0303ZM357.544 40.5322C357.544 35.5428 358.962 33.1302 359.924 32.0989C360.774 31.1866 362.502 30 366.333 30V0C355.535 0 345.368 3.71821 337.981 11.6414C330.705 19.4455 327.544 29.799 327.544 40.5322H357.544ZM366.333 8.61328C357.818 8.61328 350.109 12.2723 344.884 18.9195C339.945 25.2026 338.071 33.0142 338.071 40.5322H368.071C368.071 39.1782 368.242 38.2814 368.392 37.7763C368.54 37.2763 368.639 37.2435 368.47 37.4587C368.278 37.7024 367.899 38.0595 367.34 38.3273C366.786 38.593 366.385 38.6133 366.333 38.6133V8.61328ZM338.071 40.5322C338.071 48.0216 339.931 55.8295 344.882 62.1124C350.126 68.7665 357.845 72.3828 366.333 72.3828V42.3828C366.33 42.3828 366.432 42.383 366.615 42.4227C366.801 42.463 367.036 42.5366 367.295 42.6601C367.854 42.9266 368.243 43.2872 368.446 43.5443C368.625 43.7721 368.532 43.7535 368.388 43.265C368.242 42.7707 368.071 41.8824 368.071 40.5322H338.071ZM366.333 72.3828C374.824 72.3828 382.532 68.7502 387.761 62.1018C392.7 55.8233 394.56 48.0221 394.56 40.5322H364.56C364.56 41.8822 364.389 42.7719 364.243 43.2684C364.098 43.7594 364.004 43.7808 364.181 43.555C364.382 43.3 364.77 42.9372 365.335 42.6675C365.893 42.4006 366.292 42.3828 366.333 42.3828V72.3828ZM394.56 40.5322C394.56 33.0358 392.705 25.2285 387.781 18.9408C382.564 12.2786 374.853 8.61328 366.333 8.61328V38.6133C366.28 38.6133 365.873 38.5928 365.309 38.3223C364.741 38.0495 364.356 37.6857 364.162 37.4374C363.99 37.2185 364.09 37.2508 364.238 37.7558C364.388 38.2659 364.56 39.1695 364.56 40.5322H394.56ZM396.787 15.8545V0.85449C388.502 0.85449 381.787 7.57022 381.787 15.8545H396.787ZM396.787 65.1758H381.787C381.787 73.4601 388.502 80.1758 396.787 80.1758V65.1758ZM407.109 24.3653V9.36523C398.825 9.36523 392.109 16.081 392.109 24.3653H407.109ZM407.109 56.6309H392.109C392.109 64.9151 398.825 71.6309 407.109 71.6309V56.6309ZM396.787 30.8545H415.62V0.85449H396.787V30.8545ZM415.62 30.8545C420.028 30.8545 421.614 32.1001 422.151 32.6542C422.75 33.273 424.135 35.2173 424.135 40.3272H454.135C454.135 29.7828 451.163 19.4907 443.704 11.7867C436.183 4.01804 426.011 0.85449 415.62 0.85449V30.8545ZM424.135 40.3272C424.135 45.4446 422.742 47.5623 422.035 48.309C421.432 48.9458 419.85 50.1758 415.62 50.1758V80.1758C426.19 80.1758 436.365 76.8086 443.82 68.9347C451.171 61.1707 454.135 50.864 454.135 40.3272H424.135ZM415.62 50.1758H396.787V80.1758H415.62V50.1758ZM411.787 65.1758V15.8545H381.787V65.1758H411.787ZM392.109 24.3653V56.6309H422.109V24.3653H392.109ZM407.109 71.6309H414.389V41.6309H407.109V71.6309ZM414.389 71.6309C422.125 71.6309 430.278 69.1711 436.23 62.3926C441.893 55.9442 443.608 47.7825 443.608 40.3613H413.608C413.608 41.896 413.424 42.7362 413.325 43.063C413.239 43.3505 413.272 43.071 413.688 42.5976C413.887 42.3706 414.126 42.1559 414.389 41.9738C414.649 41.793 414.876 41.6833 415.03 41.6231C415.328 41.5063 415.2 41.6309 414.389 41.6309V71.6309ZM443.608 40.3613C443.608 32.9047 441.76 24.8452 436.098 18.5029C430.202 11.8986 422.158 9.36523 414.389 9.36523V39.3653C415.117 39.3653 415.228 39.4791 414.947 39.3687C414.805 39.3128 414.598 39.2123 414.361 39.0487C414.123 38.884 413.903 38.6894 413.718 38.482C413.33 38.0471 413.284 37.7781 413.354 38.0002C413.434 38.2581 413.608 38.9911 413.608 40.3613H443.608ZM414.389 9.36523H407.109V39.3653H414.389V9.36523ZM478.476 56.6309H493.476C493.476 48.3466 486.76 41.6309 478.476 41.6309V56.6309ZM478.476 65.1758V80.1758C486.76 80.1758 493.476 73.4601 493.476 65.1758H478.476ZM445.8 65.1758H430.8C430.8 73.4601 437.516 80.1758 445.8 80.1758V65.1758ZM445.8 15.8545V0.85449C437.516 0.85449 430.8 7.57022 430.8 15.8545H445.8ZM478.476 15.8545H493.476C493.476 7.57022 486.76 0.85449 478.476 0.85449V15.8545ZM478.476 24.3653V39.3653C486.76 39.3653 493.476 32.6495 493.476 24.3653H478.476ZM456.123 24.3653V9.36523C447.838 9.36523 441.123 16.081 441.123 24.3653H456.123ZM456.123 36.2598H441.123C441.123 44.5441 447.838 51.2598 456.123 51.2598V36.2598ZM477.211 36.2598H492.211C492.211 27.9755 485.496 21.2598 477.211 21.2598V36.2598ZM477.211 44.1895V59.1895C485.496 59.1895 492.211 52.4737 492.211 44.1895H477.211ZM456.123 44.1895V29.1895C447.838 29.1895 441.123 35.9052 441.123 44.1895H456.123ZM456.123 56.6309H441.123C441.123 64.9151 447.838 71.6309 456.123 71.6309V56.6309ZM463.476 56.6309V65.1758H493.476V56.6309H463.476ZM478.476 50.1758H445.8V80.1758H478.476V50.1758ZM460.8 65.1758V15.8545H430.8V65.1758H460.8ZM445.8 30.8545H478.476V0.85449H445.8V30.8545ZM463.476 15.8545V24.3653H493.476V15.8545H463.476ZM478.476 9.36523H456.123V39.3653H478.476V9.36523ZM441.123 24.3653V36.2598H471.123V24.3653H441.123ZM456.123 51.2598H477.211V21.2598H456.123V51.2598ZM462.211 36.2598V44.1895H492.211V36.2598H462.211ZM477.211 29.1895H456.123V59.1895H477.211V29.1895ZM441.123 44.1895V56.6309H471.123V44.1895H441.123ZM456.123 71.6309H478.476V41.6309H456.123V71.6309ZM517.817 56.6309H532.817C532.817 48.3466 526.101 41.6309 517.817 41.6309V56.6309ZM517.817 65.1758V80.1758C526.101 80.1758 532.817 73.4601 532.817 65.1758H517.817ZM485.927 65.1758H470.927C470.927 73.4601 477.643 80.1758 485.927 80.1758V65.1758ZM485.927 15.8545V0.85449C477.643 0.85449 470.927 7.57022 470.927 15.8545H485.927ZM496.25 15.8545H511.25C511.25 7.57022 504.534 0.85449 496.25 0.85449V15.8545ZM496.25 56.6309H481.25C481.25 64.9151 487.965 71.6309 496.25 71.6309V56.6309ZM502.817 56.6309V65.1758H532.817V56.6309H502.817ZM517.817 50.1758H485.927V80.1758H517.817V50.1758ZM500.927 65.1758V15.8545H470.927V65.1758H500.927ZM485.927 30.8545H496.25V0.85449H485.927V30.8545ZM481.25 15.8545V56.6309H511.25V15.8545H481.25ZM496.25 71.6309H517.817V41.6309H496.25V71.6309Z" fill="url(#paint0_linear_517_1378)"/>
<path d="M57.8613 65.1758H47.539V44.3946H25.3222V65.1758H15V15.8545H25.3222V35.8838H47.539V15.8545H57.8613V65.1758ZM90.4004 65.1758H80.0781V46.7529L62.9199 15.8545H74.165L85.205 36.9092H85.4443L96.5185 15.8545H107.593L90.4004 46.7529V65.1758ZM134.458 65.1758H112.617V15.8545H134.082C143.344 15.8545 149.155 20.6055 149.155 28.1592C149.155 33.5596 145.122 38.0713 139.892 38.8574V39.1309C146.591 39.6436 151.513 44.5313 151.513 51.0596C151.513 59.7412 144.985 65.1758 134.458 65.1758ZM122.939 23.5449V36.3623H130.356C135.859 36.3623 139.003 33.9356 139.003 29.7656C139.003 25.8008 136.235 23.5449 131.416 23.5449H122.939ZM122.939 57.4854H131.826C137.773 57.4854 140.986 54.9561 140.986 50.2393C140.986 45.625 137.67 43.1641 131.586 43.1641H122.939V57.4854ZM167.714 23.9209V39.6436H176.601C181.796 39.6436 184.838 36.6699 184.838 31.7822C184.838 26.9971 181.626 23.9209 176.499 23.9209H167.714ZM167.714 47.1289V65.1758H157.392V15.8545H177.592C188.94 15.8545 195.434 21.836 195.434 31.5772C195.434 37.9004 192.153 43.3692 186.479 45.5908L196.87 65.1758H185.18L175.986 47.1289H167.714ZM212.558 65.1758H202.236V15.8545H212.558V65.1758ZM220.761 15.8545H239.594C254.394 15.8545 263.11 24.6729 263.11 40.3272C263.11 55.9815 254.394 65.1758 239.594 65.1758H220.761V15.8545ZM231.084 24.3653V56.6309H238.364C247.592 56.6309 252.583 51.0254 252.583 40.3613C252.583 30.0391 247.456 24.3653 238.364 24.3653H231.084ZM335.878 65.1758H326.684V31.8848H326.411L313.012 64.6973H306.518L293.12 31.8848H292.846V65.1758H283.652V15.8545H295.615L309.628 50.8203H309.902L323.916 15.8545H335.878V65.1758ZM366.333 15C380.927 15 390.122 24.8096 390.122 40.5322C390.122 56.2207 380.927 66.0303 366.333 66.0303C351.704 66.0303 342.544 56.2207 342.544 40.5322C342.544 24.8096 351.704 15 366.333 15ZM366.333 23.6133C358.266 23.6133 353.071 30.1758 353.071 40.5322C353.071 50.8545 358.232 57.3828 366.333 57.3828C374.399 57.3828 379.56 50.8545 379.56 40.5322C379.56 30.1758 374.399 23.6133 366.333 23.6133ZM396.787 15.8545H415.62C430.419 15.8545 439.135 24.6729 439.135 40.3272C439.135 55.9815 430.419 65.1758 415.62 65.1758H396.787V15.8545ZM407.109 24.3653V56.6309H414.389C423.618 56.6309 428.608 51.0254 428.608 40.3613C428.608 30.0391 423.481 24.3653 414.389 24.3653H407.109ZM478.476 56.6309V65.1758H445.8V15.8545H478.476V24.3653H456.123V36.2598H477.211V44.1895H456.123V56.6309H478.476ZM517.817 56.6309V65.1758H485.927V15.8545H496.25V56.6309H517.817Z" fill="#100F0F"/>
<defs>
<linearGradient id="paint0_linear_517_1378" x1="10.8984" y1="2.17578" x2="328.161" y2="290.125" gradientUnits="userSpaceOnUse">
<stop stop-color="#00E291"/>
<stop offset="1" stop-color="#E0F01E"/>
</linearGradient>
</defs>
</svg>
