<svg width="32" height="32" viewBox="0 0 32 32" fill="none" xmlns="http://www.w3.org/2000/svg">
<path fill-rule="evenodd" clip-rule="evenodd" d="M9.39145 0.196366C6.78684 0.313886 4.5293 0.950678 2.70639 2.76589C0.877112 4.59063 0.248226 6.8571 0.130413 9.43461C0.0571782 11.0434 -0.371063 23.1972 0.870746 26.3846C1.70817 28.5348 3.35751 30.1882 5.52748 31.0283C6.54004 31.4221 7.6959 31.6887 9.39145 31.7666C23.5688 32.4082 28.8241 32.0589 31.0403 26.3846C31.4335 25.3745 31.7042 24.2197 31.779 22.5283C32.427 8.3147 31.674 5.23382 29.2031 2.76589C27.2432 0.810919 24.9379 -0.519871 9.39145 0.196366ZM9.52197 28.908C7.96971 28.8381 7.12752 28.5795 6.56552 28.3619C5.15177 27.8124 4.08987 26.7549 3.54379 25.3494C2.59811 22.9275 2.91176 11.4248 2.99614 9.56352C3.07892 7.74036 3.44828 6.07412 4.73466 4.78776C6.32672 3.19963 8.38365 2.42131 22.389 3.05339C24.2167 3.13596 25.8868 3.50456 27.1764 4.78776C28.7684 6.37586 29.5581 8.44861 28.9149 22.4002C28.8448 23.9486 28.5853 24.7888 28.3672 25.3494C26.9264 29.0418 23.6117 29.5543 9.52197 28.908ZM22.5435 7.50337C22.5435 8.55471 23.3984 9.40961 24.454 9.40961C25.5095 9.40961 26.366 8.55471 26.366 7.50337C26.366 6.45205 25.5095 5.59791 24.454 5.59791C23.3984 5.59791 22.5435 6.45205 22.5435 7.50337ZM7.78027 15.9807C7.78027 20.4846 11.4404 24.1361 15.9555 24.1361C20.4706 24.1361 24.1308 20.4846 24.1308 15.9807C24.1308 11.4768 20.4706 7.82759 15.9555 7.82759C11.4404 7.82759 7.78027 11.4768 7.78027 15.9807ZM10.6492 15.9807C10.6492 13.0586 13.0245 10.6877 15.9555 10.6877C18.8865 10.6877 21.2619 13.0586 21.2619 15.9807C21.2619 18.9044 18.8865 21.276 15.9555 21.276C13.0245 21.276 10.6492 18.9044 10.6492 15.9807Z" fill="#EDEDFF"/>
</svg>
