<svg width="162" height="54" viewBox="0 0 162 54" fill="none" xmlns="http://www.w3.org/2000/svg">
<path d="M1.04258 0.501816C0.767441 0.4783 0.525333 0.682281 0.501816 0.95742C0.4783 1.23256 0.682281 1.47467 0.95742 1.49818L1.04258 0.501816ZM161.327 38.0723C161.563 37.9291 161.638 37.6216 161.495 37.3855L159.16 33.5384C159.017 33.3023 158.71 33.227 158.474 33.3703C158.237 33.5135 158.162 33.821 158.305 34.0571L160.381 37.4768L156.961 39.5518C156.725 39.6951 156.65 40.0026 156.793 40.2387C156.936 40.4748 157.244 40.55 157.48 40.4068L161.327 38.0723ZM0.95742 1.49818C33.326 4.26475 54.7689 9.12003 68.5415 14.7683C82.3282 20.4224 88.3332 26.8293 90.0204 32.6369C91.7022 38.4259 89.1434 43.8065 85.3474 47.5478C83.4528 49.4151 81.2698 50.8513 79.202 51.7032C77.119 52.5613 75.2221 52.7995 73.8635 52.3767L73.5664 53.3316C75.2447 53.8538 77.4021 53.5263 79.5829 52.6278C81.7789 51.7231 84.0692 50.2116 86.0494 48.26C90.0031 44.3633 92.8002 38.6206 90.9807 32.3579C89.1667 26.1137 82.8133 19.5405 68.9209 13.8431C55.0144 8.13989 33.4577 3.27236 1.04258 0.501816L0.95742 1.49818ZM73.8635 52.3767C73.1548 52.1562 72.7008 51.8731 72.437 51.5747C72.1857 51.2904 72.0837 50.9676 72.12 50.5856C72.1581 50.1854 72.352 49.6965 72.7485 49.1268C73.1426 48.5603 73.7189 47.9402 74.48 47.2827C77.5345 44.6436 83.3697 41.5671 91.4234 39.0325C107.51 33.9697 132.292 31.1181 160.949 38.1305L161.186 37.1592C132.343 30.101 107.375 32.9641 91.1232 38.0786C83.0079 40.6326 77.027 43.7605 73.8262 46.526C73.0234 47.2197 72.3834 47.9007 71.9277 48.5556C71.4743 49.2071 71.1846 49.8596 71.1245 50.4909C71.0627 51.1404 71.2478 51.7393 71.6878 52.237C72.1152 52.7205 72.7566 53.0796 73.5664 53.3316L73.8635 52.3767Z" fill="#0C62FD"/>
</svg>
