<svg width="1848" height="484" viewBox="0 0 1848 484" fill="none" xmlns="http://www.w3.org/2000/svg">
<mask id="mask0_945_2200" style="mask-type:alpha" maskUnits="userSpaceOnUse" x="39" y="0" width="1846" height="484">
<path d="M237.616 484H95.581L174.303 113.168H39.9729L64.092 0.611588H474.788L450.669 113.168H316.338L237.616 484ZM755.455 371.444L731.671 484H390.652L493.494 0.611588H834.177L810.058 113.168H611.41L594.995 191.555H781.249L759.475 293.392H573.221L556.472 371.444H755.455ZM1060.58 119.198L977.833 287.697H1070.96L1063.59 119.198H1060.58ZM1079.67 484L1075.32 387.858H928.59L881.357 484H731.617L997.598 0.611588H1175.81L1225.39 484H1079.67ZM1359.67 484H1234.38L1336.89 0.611588H1501.37L1541.23 303.776H1543.91L1707.05 0.611588H1884.26L1781.42 484H1655.8L1721.12 179.83H1717.1L1548.94 484H1467.2L1427 179.83H1424.32L1359.67 484Z" fill="url(#paint0_linear_945_2200)"/>
<path d="M237.616 484V485H238.426L238.594 484.208L237.616 484ZM95.581 484L94.6028 483.792L94.3464 485H95.581V484ZM174.303 113.168L175.281 113.375L175.538 112.168H174.303V113.168ZM39.9729 113.168L38.9951 112.958L38.7359 114.168H39.9729V113.168ZM64.092 0.611588V-0.388412H63.2836L63.1142 0.402059L64.092 0.611588ZM474.788 0.611588L475.766 0.821117L476.025 -0.388412H474.788V0.611588ZM450.669 113.168V114.168H451.477L451.647 113.377L450.669 113.168ZM316.338 113.168V112.168H315.528L315.36 112.96L316.338 113.168ZM237.616 483H95.581V485H237.616V483ZM96.5592 484.208L175.281 113.375L173.325 112.96L94.6028 483.792L96.5592 484.208ZM174.303 112.168H39.9729V114.168H174.303V112.168ZM40.9507 113.377L65.0698 0.821117L63.1142 0.402059L38.9951 112.958L40.9507 113.377ZM64.092 1.61159H474.788V-0.388412H64.092V1.61159ZM473.81 0.402059L449.691 112.958L451.647 113.377L475.766 0.821117L473.81 0.402059ZM450.669 112.168H316.338V114.168H450.669V112.168ZM315.36 112.96L236.638 483.792L238.594 484.208L317.317 113.375L315.36 112.96ZM755.455 371.444L756.433 371.651L756.688 370.444H755.455V371.444ZM731.671 484V485H732.481L732.649 484.207L731.671 484ZM390.652 484L389.674 483.792L389.417 485H390.652V484ZM493.494 0.611588V-0.388412H492.684L492.516 0.403494L493.494 0.611588ZM834.177 0.611588L835.155 0.821117L835.414 -0.388412H834.177V0.611588ZM810.058 113.168V114.168H810.866L811.036 113.377L810.058 113.168ZM611.41 113.168V112.168H610.597L610.431 112.963L611.41 113.168ZM594.995 191.555L594.016 191.35L593.764 192.555H594.995V191.555ZM781.249 191.555L782.227 191.764L782.485 190.555H781.249V191.555ZM759.475 293.392V294.392H760.283L760.453 293.601L759.475 293.392ZM573.221 293.392V292.392H572.413L572.243 293.182L573.221 293.392ZM556.472 371.444L555.494 371.234L555.234 372.444H556.472V371.444ZM754.476 371.237L730.692 483.793L732.649 484.207L756.433 371.651L754.476 371.237ZM731.671 483H390.652V485H731.671V483ZM391.63 484.208L494.472 0.819682L492.516 0.403494L389.674 483.792L391.63 484.208ZM493.494 1.61159H834.177V-0.388412H493.494V1.61159ZM833.199 0.402059L809.08 112.958L811.036 113.377L835.155 0.821117L833.199 0.402059ZM810.058 112.168H611.41V114.168H810.058V112.168ZM610.431 112.963L594.016 191.35L595.974 191.76L612.388 113.373L610.431 112.963ZM594.995 192.555H781.249V190.555H594.995V192.555ZM780.271 191.346L758.497 293.182L760.453 293.601L782.227 191.764L780.271 191.346ZM759.475 292.392H573.221V294.392H759.475V292.392ZM572.243 293.182L555.494 371.234L557.449 371.654L574.199 293.601L572.243 293.182ZM556.472 372.444H755.455V370.444H556.472V372.444ZM1060.58 119.198V118.198H1059.95L1059.68 118.757L1060.58 119.198ZM977.833 287.697L976.936 287.256L976.228 288.697H977.833V287.697ZM1070.96 287.697V288.697H1072.01L1071.96 287.653L1070.96 287.697ZM1063.59 119.198L1064.59 119.154L1064.55 118.198H1063.59V119.198ZM1079.67 484L1078.67 484.045L1078.71 485H1079.67V484ZM1075.32 387.858L1076.31 387.813L1076.27 386.858H1075.32V387.858ZM928.59 387.858V386.858H927.967L927.693 387.417L928.59 387.858ZM881.357 484V485H881.98L882.254 484.441L881.357 484ZM731.617 484L730.741 483.518L729.925 485H731.617V484ZM997.598 0.611588V-0.388412H997.007L996.722 0.129506L997.598 0.611588ZM1175.81 0.611588L1176.81 0.509559L1176.71 -0.388412H1175.81V0.611588ZM1225.39 484V485H1226.5L1226.38 483.898L1225.39 484ZM1059.68 118.757L976.936 287.256L978.731 288.138L1061.47 119.638L1059.68 118.757ZM977.833 288.697H1070.96V286.697H977.833V288.697ZM1071.96 287.653L1064.59 119.154L1062.59 119.241L1069.96 287.74L1071.96 287.653ZM1063.59 118.198H1060.58V120.198H1063.59V118.198ZM1080.67 483.955L1076.31 387.813L1074.32 387.904L1078.67 484.045L1080.67 483.955ZM1075.32 386.858H928.59V388.858H1075.32V386.858ZM927.693 387.417L880.459 483.559L882.254 484.441L929.488 388.299L927.693 387.417ZM881.357 483H731.617V485H881.357V483ZM732.493 484.482L998.474 1.09367L996.722 0.129506L730.741 483.518L732.493 484.482ZM997.598 1.61159H1175.81V-0.388412H997.598V1.61159ZM1174.82 0.713617L1224.4 484.102L1226.38 483.898L1176.81 0.509559L1174.82 0.713617ZM1225.39 483H1079.67V485H1225.39V483ZM1359.67 484V485H1360.48L1360.65 484.208L1359.67 484ZM1234.38 484L1233.4 483.793L1233.15 485H1234.38V484ZM1336.89 0.611588V-0.388412H1336.08L1335.91 0.404143L1336.89 0.611588ZM1501.37 0.611588L1502.36 0.481218L1502.24 -0.388412H1501.37V0.611588ZM1541.23 303.776L1540.24 303.907L1540.35 304.776H1541.23V303.776ZM1543.91 303.776V304.776H1544.51L1544.79 304.25L1543.91 303.776ZM1707.05 0.611588V-0.388412H1706.45L1706.17 0.13772L1707.05 0.611588ZM1884.26 0.611588L1885.24 0.819682L1885.49 -0.388412H1884.26V0.611588ZM1781.42 484V485H1782.23L1782.4 484.208L1781.42 484ZM1655.8 484L1654.82 483.79L1654.56 485H1655.8V484ZM1721.12 179.83L1722.1 180.04L1722.36 178.83H1721.12V179.83ZM1717.1 179.83V178.83H1716.51L1716.22 179.347L1717.1 179.83ZM1548.94 484V485H1549.53L1549.81 484.484L1548.94 484ZM1467.2 484L1466.21 484.131L1466.32 485H1467.2V484ZM1427 179.83L1427.99 179.699L1427.88 178.83H1427V179.83ZM1424.32 179.83V178.83H1423.51L1423.34 179.623L1424.32 179.83ZM1359.67 483H1234.38V485H1359.67V483ZM1235.36 484.207L1337.87 0.819033L1335.91 0.404143L1233.4 483.793L1235.36 484.207ZM1336.89 1.61159H1501.37V-0.388412H1336.89V1.61159ZM1500.38 0.741957L1540.24 303.907L1542.22 303.646L1502.36 0.481218L1500.38 0.741957ZM1541.23 304.776H1543.91V302.776H1541.23V304.776ZM1544.79 304.25L1707.93 1.08546L1706.17 0.13772L1543.03 303.302L1544.79 304.25ZM1707.05 1.61159H1884.26V-0.388412H1707.05V1.61159ZM1883.28 0.403494L1780.44 483.792L1782.4 484.208L1885.24 0.819682L1883.28 0.403494ZM1781.42 483H1655.8V485H1781.42V483ZM1656.77 484.21L1722.1 180.04L1720.14 179.62L1654.82 483.79L1656.77 484.21ZM1721.12 178.83H1717.1V180.83H1721.12V178.83ZM1716.22 179.347L1548.06 483.516L1549.81 484.484L1717.97 180.314L1716.22 179.347ZM1548.94 483H1467.2V485H1548.94V483ZM1468.19 483.869L1427.99 179.699L1426.01 179.961L1466.21 484.131L1468.19 483.869ZM1427 178.83H1424.32V180.83H1427V178.83ZM1423.34 179.623L1358.69 483.792L1360.65 484.208L1425.3 180.038L1423.34 179.623Z" fill="black"/>
</mask>
<g mask="url(#mask0_945_2200)">
<g filter="url(#filter0_d_945_2200)">
<path d="M522.094 142.671C525.295 146.919 530.904 157.172 527.74 164.202C529.905 164.737 534.217 166.872 534.141 171.138C534.046 176.472 514.747 184.389 522.372 187.491C529.997 190.593 548.355 184.546 547.601 189.784C546.998 193.975 538.563 199.623 534.42 201.923C534.232 203.233 534.382 205.928 536.491 206.231C539.127 206.611 545.246 201.476 549.389 196.057C553.532 190.637 572.264 200.684 574.146 206.302C576.029 211.92 578.289 205.561 579.889 208.465C581.169 210.788 582.053 216.797 582.335 219.511C584.532 218.267 589.716 215.894 592.879 216.349C596.833 216.918 603.045 225.164 609.823 224.802C616.601 224.441 622.72 223.984 625.827 225.768C628.933 227.552 645.593 252.004 653.595 252.487C661.597 252.97 665.645 252.884 665.927 255.598C666.209 258.312 677.314 288.65 644.74 304.682C642.481 309.481 636.68 319.563 631.559 321.5C625.157 323.921 621.674 324.756 620.45 328.59C619.226 332.425 615.645 366.664 613.103 370.309C610.561 373.953 608.961 371.049 608.395 374.978C607.83 378.907 608.865 381.061 605.664 384.611C602.463 388.16 599.733 388.436 599.45 390.4C599.168 392.365 598.131 399.568 592.483 401.428C592.42 401.865 591.918 403.486 590.411 406.477C588.528 410.217 585.328 409.088 582.126 412.637C579.566 415.477 579.176 417.56 579.302 418.246L568.758 416.729C567.597 415.448 564.88 412.83 563.299 412.602C561.717 412.374 562.137 415.999 562.545 417.84C560.85 417.151 556.897 415.958 554.637 416.703C551.813 417.633 550.683 420.812 546.729 420.244C546.949 421.835 547.105 425.11 545.976 425.482C544.564 425.947 543.905 421.174 539.763 421.915C535.621 422.655 519.333 433.011 513.685 434.872C508.036 436.733 505.775 452.448 508.411 452.827C511.047 453.207 511.611 463.313 495.229 474.323C491.683 478.715 483.95 489.142 481.389 495.725C478.827 502.307 470.97 501.132 467.362 499.722C465.981 501.528 463.219 506.077 463.218 509.82C459.524 512.566 451.97 518.744 450.758 521.874C450.736 521.935 450.715 521.995 450.694 522.053C450.713 521.995 450.734 521.935 450.758 521.874C452.279 517.561 455.036 508.605 454.367 505.873C453.69 503.102 443.041 491.099 437.801 485.444L431.87 484.59C431.211 484.496 425.376 473.631 419.351 473.432C422.489 470.319 429.519 463.533 432.532 461.293C436.298 458.493 448.537 448.223 456.727 447.396C464.917 446.57 459.553 427.752 453.999 428.958C456.541 423.754 461.174 412.747 459.367 410.348C457.108 407.35 451.93 410.615 448.824 408.831C445.717 407.047 451.272 396.485 447.695 393.296C444.119 390.108 427.079 391.667 426.232 388.203C425.385 384.74 430.188 374.737 428.964 369.214C427.741 363.691 434.424 354.627 434.896 346.675C435.367 338.722 429.528 341.892 428.87 337.119C428.212 332.346 430.847 332.725 428.683 329.072C426.518 325.418 416.162 331.949 411.456 322.583C406.75 313.217 417.011 312.02 414.094 304.248C411.176 296.477 394.418 296.071 392.442 286.429C388.52 285.642 379.866 283.15 376.628 279.476C372.58 274.883 373.711 262.347 369.946 260.469C366.18 258.59 362.32 262.045 356.484 260.537C350.647 259.029 348.765 258.09 346.599 259.115C344.434 260.14 343.586 266.033 340.95 265.654C338.314 265.275 336.338 260.312 332.384 259.743C328.43 259.174 323.911 262.534 321.464 260.845C319.016 259.157 324.666 247.939 321.56 246.155C318.453 244.372 312.709 256.244 308.379 253.616C304.049 250.988 305.368 246.499 301.414 245.93C297.46 245.361 297.083 247.981 296.142 245.172C295.201 242.363 297.931 242.087 297.273 237.314C296.614 232.541 290.778 231.033 291.343 227.104C291.909 223.175 296.333 220.47 300.57 214.396C304.807 208.322 302.078 203.919 306.408 201.869C310.739 199.818 321.94 201.43 328.343 199.009C334.745 196.588 338.887 195.847 340.394 190.049C341.901 184.251 345.95 174.808 344.538 170.594C343.126 166.381 339.832 165.907 341.244 160.763C342.657 155.62 344.257 153.845 345.011 153.285C345.764 152.725 348.211 154.414 348.682 151.14C349.153 147.866 344.07 150.476 343.223 147.012C342.545 144.242 345.074 143.491 346.424 143.463C348.338 144.184 352.599 145.421 354.331 144.601C356.497 143.575 357.344 142.361 359.227 143.3C361.109 144.239 358.661 147.229 361.58 145.643C364.498 144.058 365.44 142.189 367.228 143.783C369.017 145.377 370.804 156.328 378.241 156.061C385.678 155.794 406.202 148.721 405.919 146.007C405.637 143.293 400.648 145.249 399.707 142.44C398.766 139.631 401.59 134.022 399.896 131.773C398.202 129.525 397.731 128.12 399.897 127.095C402.062 126.07 406.674 131.412 410.816 130.671C414.959 129.93 431.809 129.681 438.871 122.677C441.663 125.084 446.853 130.776 445.271 134.291C443.293 138.686 439.34 138.117 439.528 141.486C439.716 144.854 443.105 144.674 441.88 148.508C440.656 152.342 441.879 162.543 449.316 162.276C456.753 162.01 461.272 158.65 463.814 159.684C466.355 160.718 468.708 163.061 471.533 162.131C474.357 161.2 480.006 154.661 482.642 155.04C485.278 155.42 490.737 164.225 496.95 163.114C503.164 162.003 514.945 159.688 522.094 142.671Z" fill="#100F0F"/>
</g>
<g filter="url(#filter1_d_945_2200)">
<path d="M276.118 277.229C275.587 276.22 274.524 275.609 273.391 275.649L242.693 276.822C241.43 276.869 240.287 276.114 239.826 274.944L231.332 253.25C231.232 252.995 231.102 252.755 230.931 252.543L221.225 239.807C220.962 239.462 220.782 239.064 220.686 238.635L212.978 202.516C212.947 202.334 212.893 202.161 212.817 201.996L206.818 187.638C206.805 187.6 206.791 187.569 206.777 187.537L198.803 166.223C198.539 165.504 198.55 164.705 198.867 164.001L199.609 162.306C199.962 161.498 200.657 160.89 201.503 160.646C202.359 160.404 203.268 160.554 203.995 161.056L205.673 162.224C206.613 162.88 207.854 162.926 208.846 162.341C209.831 161.761 210.394 160.661 210.292 159.521L209.64 152.558C209.545 151.512 208.901 150.597 207.943 150.156L188.342 141.075C187.926 140.886 187.461 140.791 187.009 140.805L169.713 141.324C169.203 141.339 168.695 141.221 168.242 140.975L154.771 133.829C154.272 133.567 153.854 133.166 153.583 132.67L150.778 127.671C150.387 126.98 149.74 126.474 148.975 126.271L140.169 123.878C138.706 123.488 137.175 124.258 136.639 125.68L134.001 132.613C133.71 133.366 133.135 133.971 132.4 134.282C131.657 134.591 130.821 134.591 130.087 134.283L111.95 126.576C110.961 126.149 110.281 125.234 110.17 124.17L109.696 119.742C109.562 118.518 108.68 117.502 107.487 117.2L92.5485 113.397C91.6746 113.178 90.9567 112.571 90.5859 111.759L87.1283 104.184C86.7801 103.426 86.7744 102.553 87.1031 101.789C87.4328 101.017 88.0741 100.432 88.8639 100.162L90.3137 99.6701C91.8009 99.1718 92.63 97.5953 92.2206 96.0858L89.4303 85.9021C89.0934 84.7034 88.045 83.8414 86.7991 83.7521L28.9396 79.4241C28.6989 79.3996 28.4555 79.4169 28.2154 79.4559L10.3632 82.5538C10.0402 82.6163 9.70959 82.6147 9.38454 82.5581L-1.24441 80.8138C-1.95778 80.7005 -2.67784 80.8454 -3.2821 81.2272L-26.9436 95.8946C-27.4796 96.2279 -27.8971 96.7194 -28.1292 97.3019L-31.6904 106.205C-31.9947 106.99 -32.6266 107.597 -33.414 107.89L-53.1752 115.091C-53.6409 115.257 -54.062 115.545 -54.3821 115.917L-76.3876 141.001C-76.7518 141.413 -76.993 141.909 -77.0842 142.451L-81.5802 168.903C-81.6231 169.132 -81.6853 169.351 -81.7804 169.563L-86.5489 180.748C-86.8964 181.565 -86.8549 182.502 -86.4447 183.295L-54.9675 242.925C-54.4439 243.911 -53.4092 244.516 -52.288 244.502L-32.4801 244.039C-32.1771 244.034 -31.8759 244.072 -31.5781 244.158L-5.64012 251.747C-5.28488 251.86 -4.90448 251.887 -4.5254 251.858L16.4481 249.792C17.4464 249.694 18.4236 250.111 19.0478 250.893L28.7974 263.203C29.2731 263.792 29.9669 264.189 30.725 264.292L41.8982 265.769C42.7169 265.884 43.4502 266.325 43.9197 267.004C44.3993 267.678 44.5742 268.517 44.3968 269.33L42.0746 279.966C42.0425 280.113 41.9979 280.252 41.9471 280.389L37.7988 291.274C37.5119 292.04 37.5474 292.906 37.9221 293.641L46.8009 311.357C46.9862 311.734 47.0915 312.151 47.1121 312.571L48.6185 352.722C48.6437 353.282 48.5021 353.835 48.2218 354.315L33.1538 380.406C32.793 381.03 32.6731 381.77 32.814 382.476L40.6238 420.031C40.6822 420.31 40.7039 420.596 40.6744 420.893L38.5473 445.091C38.4958 445.649 38.6193 446.211 38.8696 446.709L49.7169 467.546C50.0324 468.164 50.126 468.859 49.9779 469.537L47.1737 482.381C46.9935 483.207 47.1763 484.076 47.6873 484.764C48.1844 485.45 48.9631 485.873 49.8128 485.945L76.5418 488.238L99.0274 489.969C99.7339 490.018 100.438 489.82 101.01 489.389L142.444 458.593C142.848 458.288 143.178 457.874 143.378 457.405L146.572 450.123C146.882 449.41 147.47 448.843 148.2 448.559L152.188 447.005C153.083 446.644 153.754 445.884 153.979 444.949L159.69 421.532C159.855 420.873 160.244 420.283 160.79 419.875L169.602 413.291C170.056 412.954 170.583 412.76 171.148 412.715L186.368 411.594C187.676 411.5 188.759 410.563 189.039 409.28L195.292 380.639C195.345 380.397 195.369 380.155 195.359 379.914L194.35 351.108C194.302 349.719 195.225 348.487 196.573 348.141L199.193 347.476C199.669 347.355 200.099 347.125 200.451 346.801L227.595 322.039C227.983 321.681 228.464 321.441 228.973 321.328L247.34 317.484C248.041 317.335 248.67 316.931 249.098 316.357L275.869 280.362C276.548 279.446 276.652 278.231 276.118 277.229Z" fill="#100F0F"/>
</g>
<g filter="url(#filter2_d_945_2200)">
<path d="M241.15 402.917C240.886 401.966 240.174 401.206 239.242 400.897C238.313 400.582 237.284 400.751 236.506 401.355L218.921 414.853C218.564 415.133 218.15 415.325 217.702 415.41L209.123 417.13C207.97 417.356 207.071 418.249 206.821 419.398L203.285 435.59C203.233 435.832 203.148 436.058 203.037 436.274L198.812 444.808C198.57 445.303 198.472 445.852 198.52 446.403L200.201 463.658C200.28 464.455 200.672 465.174 201.293 465.675C201.91 466.169 202.71 466.4 203.491 466.303L214.712 464.948C215.665 464.832 216.499 464.27 216.962 463.436L238.523 423.674L243.492 414.6C243.855 413.934 243.95 413.146 243.753 412.406L241.15 402.917Z" fill="#100F0F"/>
</g>
<g filter="url(#filter3_d_945_2200)">
<path d="M1205.54 350.082L1162.74 365.599L1160.68 333.745L1110.67 333.745L1087.31 353.353L1078.9 353.353L1072.36 361.288L1085.44 365.021L1085.44 373.892L1056.93 381.362L1037.77 354.752L1024.69 357.552L991.977 385.563L973.753 393.033L963.005 382.301L963.005 339.348L977.024 338.414L977.024 326.74L987.772 320.669L987.303 311.798L980.761 305.262L1003.43 282.619L1017.21 282.619L1036.84 252.038L1076.56 252.038L1087.31 263.244L1133.57 239.902L1153.67 243.635L1163.95 226.827L1176.57 224.492L1209.74 187.144L1214.42 197.417C1214.42 197.417 1246.66 170.338 1247.6 171.737C1248.53 173.135 1263.02 186.211 1263.02 186.211L1256.01 208.151L1229.84 203.482L1226.1 224.492L1203.67 221.692L1203.67 242.702L1215.36 237.567L1210.68 291.724L1191.99 292.657L1179.37 287.054L1194.79 310.865L1176.1 327.205L1205.54 350.082ZM1332.18 199.286L1337.44 178.449L1328.32 159.716L1305.01 152.362L1298.18 156.913L1298.18 166.368L1307.99 179.675L1311.85 204.537L1332.18 199.286ZM1408.82 204.54L1421.43 247.84L1426.57 255.775L1439.19 248.77L1457.41 212.356L1516.76 265.579L1537.32 245.037L1541.06 204.537L1557.42 216.56L1557.19 234.536L1568.17 245.508L1575.65 269.318L1573.77 282.364L1598.08 300.133L1606.49 295.932L1603.22 275.855L1588.73 278.655L1587.79 257.179L1600.41 260.912L1617.7 245.037L1610.22 231.499L1592 231.499L1591.53 215.159L1565.36 208.154L1555.96 171.685L1541.06 156.798L1555.55 139.524L1558.82 155.399L1569.57 166.605L1575.17 155.867L1567.23 145.13L1560.69 121.319L1571.91 104.046L1586.63 101.477L1602.28 117.115L1629.85 104.042L1633.58 117.115L1651.34 126.919L1650.87 150.261L1662.09 166.602L1675.64 162.06L1677.04 181.541L1683.58 187.612L1712.56 147.461L1708.35 133.924L1725.17 133.924L1720.04 107.779L1703.68 88.17L1717.23 59.2251L1742.01 68.0961L1738.74 34.9467L1700.89 30.7453L1696.68 8.80473L1685.46 0.401842L1676.58 26.5469L1676.58 55.4918L1669.57 54.5585L1662.1 34.9497L1654.62 42.8844L1646.68 30.2801L1654.62 18.6091L1651.35 -2.86932L1636.4 -6.1344L1642.94 -20.6084L1634.53 -29.4795L1571.44 24.212L1588.73 50.357L1570.51 59.6932L1564.43 76.499L1556.49 45.6844L1517.24 39.1481L1485.93 88.17L1477.05 90.0397L1478.45 59.2251L1418.17 17.2076L1466.31 0.86699L1479.39 -18.2766L1487.8 -11.7404L1506.96 -15.9418L1529.39 11.2247L1553.22 2.26544L1558.36 -14.0752L1610.23 -33.6839L1651.35 -71.5L1648.55 -77.1029L1599.48 -63.0971L1573.31 -78.9726L1570.98 -103.248L1553.69 -103.248L1553.69 -113.986L1537.33 -119.589L1540.13 -134.528L1525.18 -136.862L1507.89 -109.319L1476.58 -95.7783L1477.51 -113.052L1510.69 -144.797L1439.19 -143.396L1426.11 -156L1408.35 -149.929L1392.46 -116.314L1366.29 -116.314L1348.07 -100.907L1337.43 -110.243L1312.08 -110.243L1304.61 -94.3677L1229.84 -53.7518L1231.24 -31.8112L1201.1 -21.0735L1203.21 -39.749L1184.51 -42.5489L1156.01 2.27153L1122.36 16.7455L1106.47 48.9586L1059.74 64.3659L1044.32 76.9702L1074.23 107.785L1068.62 125.059L1108.34 146.069L1125.17 132.997L1147.13 130.662L1135.91 119.456L1145.26 107.782L1163.01 139.995L1208.81 152.368L1215.35 162.066L1298.18 139.527L1322.36 143.263L1333.58 133.459L1344.8 158.67L1357.88 178.455L1408.82 204.54ZM1615.83 175.944L1643.4 175.944L1643.4 164.27L1630.79 152.365L1620.51 124.585L1608.36 141.858L1612.56 152.362L1612.56 171.685L1615.83 175.944ZM1646.68 199.286L1643.41 184.812L1636.86 179.678L1625.88 187.147L1631.26 204.537L1646.68 199.286ZM1599.94 324.171L1596.67 309.931L1578.92 316.468L1578.92 332.808L1585.93 338.411L1599.94 324.171ZM1559.76 443.459L1559.76 431.323L1556.02 422.452L1541.07 431.32L1536.39 448.129L1541.07 457L1559.76 443.459ZM1386.85 420.114L1379.38 402.375L1400.41 384.636L1393.17 380.903L1361.62 380.903L1371.9 372.968L1371.9 367.365L1361.62 370.162L1343.87 342.15L1337.44 338.417L1333.12 364.562L1346.2 365.964L1346.2 409.383L1341.99 422.455L1386.85 420.114ZM1524.71 385.566L1540.6 382.766L1532.66 356.621L1536.39 352.888L1524.71 327.208L1536.39 317.404L1536.39 302.93L1524.71 294.995L1514.42 273.985L1504.61 268.85L1493.86 271.185L1485.45 262.782L1460.22 252.044L1437.79 269.784L1415.36 271.185L1380.31 256.711L1345.26 273.052L1345.26 282.364L1371.43 318.805L1400.4 321.14L1411.15 327.676L1416.29 345.884L1442.92 326.743L1442.92 338.417L1454.61 342.619L1457.88 351.955L1449.94 359.89L1459.28 366.426L1454.61 374.829L1457.18 377.398L1473.3 371.564L1478.44 380.435L1474.94 383.937L1475.64 405.178L1490.59 401.445L1483.58 390.239L1489.19 380.435L1479.84 365.027L1489.19 354.29L1494.33 353.822L1492.45 341.217L1486.38 338.417L1494.32 331.881L1504.6 338.417L1510.68 373.433L1524.71 385.566Z" fill="#100F0F"/>
</g>
<g filter="url(#filter4_d_945_2200)">
<circle cx="475" cy="14" r="32" transform="rotate(90 475 14)" fill="#100F0F"/>
</g>
<g filter="url(#filter5_d_945_2200)">
<ellipse cx="870" cy="243" rx="54" ry="54" transform="rotate(90 870 243)" fill="#100F0F"/>
</g>
<g filter="url(#filter6_d_945_2200)">
<ellipse cx="401" cy="45.9985" rx="15" ry="15" transform="rotate(90 401 45.9985)" fill="#100F0F"/>
</g>
</g>
<defs>
<filter id="filter0_d_945_2200" x="291.305" y="122.677" width="383.67" height="400.377" filterUnits="userSpaceOnUse" color-interpolation-filters="sRGB">
<feFlood flood-opacity="0" result="BackgroundImageFix"/>
<feColorMatrix in="SourceAlpha" type="matrix" values="0 0 0 0 0 0 0 0 0 0 0 0 0 0 0 0 0 0 127 0" result="hardAlpha"/>
<feOffset dx="7" dy="1"/>
<feComposite in2="hardAlpha" operator="out"/>
<feColorMatrix type="matrix" values="0 0 0 0 0.0470588 0 0 0 0 0.384314 0 0 0 0 0.992157 0 0 0 1 0"/>
<feBlend mode="normal" in2="BackgroundImageFix" result="effect1_dropShadow_945_2200"/>
<feBlend mode="normal" in="SourceGraphic" in2="effect1_dropShadow_945_2200" result="shape"/>
</filter>
<filter id="filter1_d_945_2200" x="-86.7832" y="79.4126" width="370.241" height="411.563" filterUnits="userSpaceOnUse" color-interpolation-filters="sRGB">
<feFlood flood-opacity="0" result="BackgroundImageFix"/>
<feColorMatrix in="SourceAlpha" type="matrix" values="0 0 0 0 0 0 0 0 0 0 0 0 0 0 0 0 0 0 127 0" result="hardAlpha"/>
<feOffset dx="7" dy="1"/>
<feComposite in2="hardAlpha" operator="out"/>
<feColorMatrix type="matrix" values="0 0 0 0 0.0470588 0 0 0 0 0.384314 0 0 0 0 0.992157 0 0 0 1 0"/>
<feBlend mode="normal" in2="BackgroundImageFix" result="effect1_dropShadow_945_2200"/>
<feBlend mode="normal" in="SourceGraphic" in2="effect1_dropShadow_945_2200" result="shape"/>
</filter>
<filter id="filter2_d_945_2200" x="198.508" y="400.742" width="52.3462" height="66.5825" filterUnits="userSpaceOnUse" color-interpolation-filters="sRGB">
<feFlood flood-opacity="0" result="BackgroundImageFix"/>
<feColorMatrix in="SourceAlpha" type="matrix" values="0 0 0 0 0 0 0 0 0 0 0 0 0 0 0 0 0 0 127 0" result="hardAlpha"/>
<feOffset dx="7" dy="1"/>
<feComposite in2="hardAlpha" operator="out"/>
<feColorMatrix type="matrix" values="0 0 0 0 0.0470588 0 0 0 0 0.384314 0 0 0 0 0.992157 0 0 0 1 0"/>
<feBlend mode="normal" in2="BackgroundImageFix" result="effect1_dropShadow_945_2200"/>
<feBlend mode="normal" in="SourceGraphic" in2="effect1_dropShadow_945_2200" result="shape"/>
</filter>
<filter id="filter3_d_945_2200" x="963.005" y="-156" width="786" height="614" filterUnits="userSpaceOnUse" color-interpolation-filters="sRGB">
<feFlood flood-opacity="0" result="BackgroundImageFix"/>
<feColorMatrix in="SourceAlpha" type="matrix" values="0 0 0 0 0 0 0 0 0 0 0 0 0 0 0 0 0 0 127 0" result="hardAlpha"/>
<feOffset dx="7" dy="1"/>
<feComposite in2="hardAlpha" operator="out"/>
<feColorMatrix type="matrix" values="0 0 0 0 0.0470588 0 0 0 0 0.384314 0 0 0 0 0.992157 0 0 0 1 0"/>
<feBlend mode="normal" in2="BackgroundImageFix" result="effect1_dropShadow_945_2200"/>
<feBlend mode="normal" in="SourceGraphic" in2="effect1_dropShadow_945_2200" result="shape"/>
</filter>
<filter id="filter4_d_945_2200" x="443" y="-18" width="71" height="65" filterUnits="userSpaceOnUse" color-interpolation-filters="sRGB">
<feFlood flood-opacity="0" result="BackgroundImageFix"/>
<feColorMatrix in="SourceAlpha" type="matrix" values="0 0 0 0 0 0 0 0 0 0 0 0 0 0 0 0 0 0 127 0" result="hardAlpha"/>
<feOffset dx="7" dy="1"/>
<feComposite in2="hardAlpha" operator="out"/>
<feColorMatrix type="matrix" values="0 0 0 0 0.0470588 0 0 0 0 0.384314 0 0 0 0 0.992157 0 0 0 1 0"/>
<feBlend mode="normal" in2="BackgroundImageFix" result="effect1_dropShadow_945_2200"/>
<feBlend mode="normal" in="SourceGraphic" in2="effect1_dropShadow_945_2200" result="shape"/>
</filter>
<filter id="filter5_d_945_2200" x="816" y="189" width="115" height="109" filterUnits="userSpaceOnUse" color-interpolation-filters="sRGB">
<feFlood flood-opacity="0" result="BackgroundImageFix"/>
<feColorMatrix in="SourceAlpha" type="matrix" values="0 0 0 0 0 0 0 0 0 0 0 0 0 0 0 0 0 0 127 0" result="hardAlpha"/>
<feOffset dx="7" dy="1"/>
<feComposite in2="hardAlpha" operator="out"/>
<feColorMatrix type="matrix" values="0 0 0 0 0.0470588 0 0 0 0 0.384314 0 0 0 0 0.992157 0 0 0 1 0"/>
<feBlend mode="normal" in2="BackgroundImageFix" result="effect1_dropShadow_945_2200"/>
<feBlend mode="normal" in="SourceGraphic" in2="effect1_dropShadow_945_2200" result="shape"/>
</filter>
<filter id="filter6_d_945_2200" x="386" y="30.9985" width="37" height="31" filterUnits="userSpaceOnUse" color-interpolation-filters="sRGB">
<feFlood flood-opacity="0" result="BackgroundImageFix"/>
<feColorMatrix in="SourceAlpha" type="matrix" values="0 0 0 0 0 0 0 0 0 0 0 0 0 0 0 0 0 0 127 0" result="hardAlpha"/>
<feOffset dx="7" dy="1"/>
<feComposite in2="hardAlpha" operator="out"/>
<feColorMatrix type="matrix" values="0 0 0 0 0.0470588 0 0 0 0 0.384314 0 0 0 0 0.992157 0 0 0 1 0"/>
<feBlend mode="normal" in2="BackgroundImageFix" result="effect1_dropShadow_945_2200"/>
<feBlend mode="normal" in="SourceGraphic" in2="effect1_dropShadow_945_2200" result="shape"/>
</filter>
<linearGradient id="paint0_linear_945_2200" x1="-22" y1="1" x2="1635.39" y2="882.026" gradientUnits="userSpaceOnUse">
<stop stop-color="#00E291"/>
<stop offset="1" stop-color="#E0F01E"/>
</linearGradient>
</defs>
</svg>
