<svg width="32" height="32" viewBox="0 0 32 32" fill="none" xmlns="http://www.w3.org/2000/svg">
<path d="M30.5586 0C31.5447 0 32.2886 1.03104 31.8907 2.94878L27.064 30.0652C26.7266 31.9933 25.7491 32.4572 24.3997 31.5602L12.8865 21.4251C12.8419 21.3869 12.8055 21.3366 12.7804 21.2783C12.7553 21.22 12.7422 21.1555 12.7422 21.09C12.7422 21.0245 12.7553 20.9599 12.7804 20.9017C12.8055 20.8434 12.8419 20.7931 12.8865 20.7549L26.1816 6.44402C26.7872 5.80477 26.0519 5.49546 25.2561 6.07284L8.57016 18.6206C8.51955 18.66 8.4621 18.6851 8.40215 18.694C8.3422 18.7029 8.28133 18.6955 8.22416 18.6722L1.13977 16.0018C-0.434537 15.4553 -0.434537 14.1665 1.49442 13.2489L29.8406 0.216519C30.0654 0.0879697 30.3095 0.0143508 30.5586 0Z" stroke="black
" />
</svg>
