<svg width="189" height="189" viewBox="0 0 189 189" fill="none" xmlns="http://www.w3.org/2000/svg">
<g filter="url(#filter0_d_3333_10452)">
<circle cx="93.8363" cy="93.7802" r="74.2827" transform="rotate(6.56894 93.8363 93.7802)" fill="url(#paint0_linear_3333_10452)"/>
</g>
<g clip-path="url(#clip0_3333_10452)">
<path d="M89.8484 37.9948L88.6408 35.5668L85.1121 36.0063L84.5368 38.6563L83.3749 38.801L85.5407 29.5226L86.635 29.3863L91.0103 37.8501L89.8484 37.9948ZM86.2371 30.8031L85.3207 35.0251L88.1979 34.6668L86.274 30.7985L86.2371 30.8031Z" fill="white"/>
<path d="M93.0052 37.8225L91.8833 37.8151L91.9426 28.8208L97.4027 28.8569L97.3961 29.8666L93.0579 29.838L93.0375 32.9296L97.0204 32.9559L97.0138 33.9531L93.0309 33.9268L93.0052 37.8225Z" fill="white"/>
<path d="M99.5386 38.1443L98.4314 38.0066L99.535 29.1304L104.923 29.8003L104.8 30.7968L100.518 30.2645L100.139 33.3155L104.07 33.8043L103.947 34.7885L100.017 34.2997L99.5386 38.1443Z" fill="white"/>
<path d="M105.141 36.2973L106.234 36.5768C106.096 37.5456 106.831 38.3964 108.076 38.7145C109.254 39.0156 110.271 38.6126 110.49 37.7547C110.679 37.0176 110.281 36.4332 109.186 35.8315L108.142 35.2559C106.64 34.4343 106.108 33.5452 106.411 32.361C106.781 30.911 108.31 30.2202 110.122 30.6835C111.856 31.1267 112.85 32.4749 112.525 33.9494L111.437 33.6714C111.58 32.7103 110.972 31.9433 109.836 31.653C108.706 31.3642 107.771 31.7495 107.553 32.6014C107.385 33.26 107.768 33.7762 108.873 34.387L109.724 34.8618C111.414 35.7767 111.968 36.6583 111.648 37.909C111.24 39.504 109.729 40.1797 107.723 39.667C105.874 39.1945 104.85 37.8642 105.141 36.2973Z" fill="white"/>
<path d="M115.213 41.9851L114.172 41.5727L117.106 34.1622L114.474 33.12L114.845 32.1828L121.15 34.6796L120.779 35.6168L118.147 34.5745L115.213 41.9851Z" fill="white"/>
<path d="M123.566 37.0013L121.911 40.0211L123.795 41.0535C124.805 41.6071 125.678 41.3752 126.208 40.4087C126.725 39.464 126.422 38.5663 125.406 38.0098L123.566 37.0013ZM121.435 40.8894L119.727 44.0075L118.744 43.4688L123.062 35.5889L126.016 37.2078C127.534 38.0397 128.019 39.5127 127.241 40.9325C126.64 42.0301 125.578 42.5558 124.419 42.3254L124.45 46.5959L123.298 45.9645L123.319 41.9218L121.435 40.8894Z" fill="white"/>
<path d="M130.292 49.6767L129.696 50.4896L125.21 47.2011L130.518 39.9599L135.004 43.2484L134.408 44.0613L130.825 41.4349L129.122 43.7584L132.519 46.2486L131.931 47.0515L128.533 44.5613L126.709 47.0503L130.292 49.6767Z" fill="white"/>
<path d="M134.905 55.3374L136.031 52.8578L133.452 50.3871L131.023 51.6186L130.174 50.8051L138.775 46.6117L139.575 47.3778L135.754 56.151L134.905 55.3374ZM138.219 47.9658L134.349 49.9278L136.452 51.9422L138.246 47.9916L138.219 47.9658Z" fill="white"/>
<path d="M141.64 63.8076L141.012 62.9717L146.544 58.8167L146.518 58.7819L139.317 60.611L138.749 59.8548L142.513 53.4487L142.486 53.4138L136.954 57.5688L136.326 56.733L143.505 51.3412L144.286 52.381L140.157 59.3574L140.187 59.3972L148.038 57.376L148.819 58.4158L141.64 63.8076Z" fill="white"/>
<path d="M147.284 75.4017L146.861 74.4443L153.198 71.6448L153.18 71.6049L145.742 71.758L145.36 70.8919L150.481 65.4963L150.464 65.4564L144.127 68.2559L143.704 67.2986L151.927 63.6657L152.453 64.8567L146.846 70.7256L146.866 70.7712L154.981 70.5779L155.507 71.7688L147.284 75.4017Z" fill="white"/>
<path d="M150.024 81.9994L149.051 82.2586L147.621 76.8888L156.288 74.5799L157.718 79.9498L156.745 80.209L155.603 75.9203L152.822 76.6611L153.905 80.7276L152.944 80.9836L151.861 76.9171L148.882 77.7107L150.024 81.9994Z" fill="white"/>
<path d="M158.307 82.3269L158.705 85.3219C159.056 87.965 157.615 89.7466 154.812 90.1195C152.002 90.4932 150.146 89.1563 149.794 86.5071L149.396 83.512L158.307 82.3269ZM157.454 83.5715L150.544 84.4905L150.784 86.2999C151.053 88.3193 152.438 89.2789 154.648 88.9849C156.878 88.6884 157.964 87.4064 157.695 85.3809L157.454 83.5715Z" fill="white"/>
<path d="M150.239 93.0793L150.206 91.9625L159.16 91.7007L159.192 92.8176L150.239 93.0793Z" fill="white"/>
<path d="M149.889 100.479L152.503 99.7608L152.75 96.2145L150.261 95.1407L150.343 93.973L159.029 97.8815L158.952 98.9813L149.807 101.646L149.889 100.479ZM157.638 98.3185L153.673 96.6078L153.471 99.4993L157.636 98.3556L157.638 98.3185Z" fill="white"/>
<path d="M156.571 108.65L154.008 106.666L154.243 105.657L157.612 108.338L157.345 109.486L153.138 110.406L153.373 109.397L156.549 108.747L156.571 108.65Z" fill="white"/>
<path d="M144.929 118.111L147.648 118.266L149.022 114.97L146.997 113.148L147.449 112.063L154.464 118.572L154.038 119.594L144.477 119.196L144.929 118.111ZM153 118.542L149.774 115.64L148.654 118.328L152.986 118.576L153 118.542Z" fill="white"/>
<path d="M143.457 120.895L144.014 119.924L151.801 124.393L149.088 129.12L148.214 128.619L150.369 124.863L147.693 123.327L145.714 126.775L144.85 126.279L146.829 122.831L143.457 120.895Z" fill="white"/>
<path d="M140.014 126.458L140.681 125.558L147.897 130.9L144.654 135.281L143.844 134.681L146.42 131.201L143.94 129.365L141.574 132.56L140.774 131.968L143.14 128.772L140.014 126.458Z" fill="white"/>
<path d="M138.809 132.178L138.031 132.992C137.256 132.399 136.157 132.622 135.272 133.55C134.434 134.427 134.288 135.509 134.927 136.119C135.476 136.643 136.179 136.583 137.237 135.924L138.248 135.298C139.697 134.393 140.73 134.364 141.612 135.206C142.693 136.237 142.547 137.904 141.258 139.254C140.025 140.546 138.366 140.752 137.243 139.748L138.016 138.938C138.782 139.532 139.747 139.377 140.555 138.531C141.358 137.69 141.48 136.688 140.845 136.082C140.354 135.614 139.718 135.695 138.647 136.358L137.818 136.866C136.196 137.889 135.159 137.94 134.227 137.051C133.039 135.917 133.189 134.272 134.615 132.777C135.93 131.4 137.588 131.159 138.809 132.178Z" fill="white"/>
<path d="M128.911 138.174L129.784 137.472L134.783 143.679L136.988 141.903L137.62 142.688L132.338 146.943L131.706 146.158L133.911 144.382L128.911 138.174Z" fill="white"/>
<path d="M129.065 147.898L127.274 144.96L125.441 146.077C124.458 146.676 124.224 147.547 124.797 148.487C125.357 149.406 126.286 149.591 127.274 148.989L129.065 147.898ZM126.759 144.115L124.911 141.081L125.867 140.498L130.539 148.165L127.665 149.917C126.188 150.817 124.67 150.503 123.828 149.121C123.178 148.053 123.252 146.872 124.029 145.983L120.315 143.882L121.436 143.198L124.926 145.232L126.759 144.115Z" fill="white"/>
<path d="M114.777 147.467L114.366 146.547L119.444 144.276L123.108 152.473L118.03 154.743L117.619 153.823L121.674 152.01L120.499 149.38L116.653 151.099L116.247 150.19L120.092 148.471L118.833 145.654L114.777 147.467Z" fill="white"/>
<path d="M107.568 148.64L109.161 150.842L112.576 149.828L112.709 147.114L113.834 146.78L113.218 156.306L112.159 156.621L106.443 148.974L107.568 148.64ZM112.319 155.155L112.531 150.832L109.746 151.658L112.283 155.166L112.319 155.155Z" fill="white"/>
<path d="M96.8814 150.419L97.9189 150.281L98.8322 157.148L98.8754 157.142L100.811 149.959L101.75 149.834L105.495 156.262L105.539 156.256L104.625 149.389L105.663 149.251L106.848 158.162L105.557 158.334L101.493 151.308L101.444 151.314L99.3572 159.158L98.0666 159.33L96.8814 150.419Z" fill="white"/>
<path d="M84.0267 149.554L85.0667 149.658L84.3745 156.542L84.4179 156.547L87.9516 150.011L88.8926 150.106L91.0544 157.214L91.0977 157.218L91.7899 150.334L92.8299 150.439L91.9317 159.372L90.6378 159.242L88.3043 151.478L88.2548 151.473L84.4223 158.617L83.1285 158.487L84.0267 149.554Z" fill="white"/>
<path d="M76.9136 148.729L77.1668 147.754L82.5508 149.151L80.295 157.842L74.911 156.444L75.1643 155.469L79.4642 156.585L80.188 153.796L76.1109 152.738L76.361 151.774L80.4382 152.833L81.2135 149.846L76.9136 148.729Z" fill="white"/>
<path d="M72.5076 155.68L69.7166 154.532C67.2537 153.519 66.4296 151.384 67.5038 148.772C68.5804 146.154 70.6623 145.213 73.131 146.228L75.9219 147.376L72.5076 155.68ZM71.8551 154.322L74.5028 147.882L72.8167 147.189C70.935 146.415 69.4145 147.136 68.5674 149.196C67.7132 151.273 68.2815 152.852 70.169 153.628L71.8551 154.322Z" fill="white"/>
<path d="M67.1746 143.419L68.1625 143.948L63.9248 151.868L62.9369 151.339L67.1746 143.419Z" fill="white"/>
<path d="M60.854 139.497L60.1949 142.139L63.1781 144.103L65.3445 142.452L66.3268 143.099L58.6258 148.779L57.7006 148.17L59.8718 138.85L60.854 139.497ZM58.9279 147.346L62.3793 144.717L59.947 143.116L58.8967 147.326L58.9279 147.346Z" fill="white"/>
<path d="M50.4564 141.255L53.4586 140.005L54.2216 140.711L50.2119 142.317L49.3438 141.514L50.6305 137.391L51.3935 138.096L50.3833 141.187L50.4564 141.255Z" fill="white"/>
<path d="M48.027 126.439L46.5503 128.728L48.7401 131.549L51.3232 130.686L52.0443 131.615L42.9222 134.505L42.2431 133.63L47.306 125.51L48.027 126.439ZM43.6705 133.247L47.7859 131.872L46.0005 129.572L43.6476 133.218L43.6705 133.247Z" fill="white"/>
<path d="M46.3373 123.796L46.9051 124.761L39.1667 129.314L36.403 124.616L37.2717 124.105L39.4675 127.837L42.1275 126.272L40.1115 122.846L40.9695 122.341L42.9855 125.768L46.3373 123.796Z" fill="white"/>
<path d="M43.2024 118.032L43.6545 119.056L35.4403 122.681L33.2401 117.694L34.1622 117.287L35.9104 121.249L38.7338 120.003L37.1289 116.366L38.0397 115.964L39.6446 119.601L43.2024 118.032Z" fill="white"/>
<path d="M38.8674 114.14L38.5476 113.063C39.4458 112.686 39.7972 111.623 39.4332 110.397C39.0887 109.237 38.2249 108.574 37.3799 108.825C36.654 109.04 36.3579 109.679 36.4031 110.921L36.4443 112.107C36.5097 113.81 36.022 114.719 34.8557 115.065C33.4275 115.489 32.0568 114.537 31.5267 112.751C31.0196 111.044 31.6637 109.506 33.0896 109.03L33.4077 110.101C32.5136 110.471 32.1692 111.382 32.5013 112.501C32.8317 113.614 33.6386 114.216 34.4776 113.967C35.1263 113.774 35.3717 113.183 35.3289 111.927L35.3001 110.958C35.2181 109.046 35.6886 108.123 36.9204 107.757C38.4913 107.29 39.8407 108.237 40.4273 110.212C40.9679 112.033 40.3547 113.588 38.8674 114.14Z" fill="white"/>
<path d="M38.4999 102.594L38.6818 103.699L30.8173 104.994L31.2772 107.787L30.2826 107.951L29.181 101.259L30.1756 101.096L30.6354 103.889L38.4999 102.594Z" fill="white"/>
<path d="M29.9537 97.936L33.3926 97.8232L33.3223 95.6778C33.2845 94.5274 32.6413 93.8948 31.5406 93.9309C30.4647 93.9662 29.8471 94.6837 29.885 95.8403L29.9537 97.936ZM34.3814 97.7908L37.9322 97.6743L37.9689 98.7937L28.9954 99.088L28.8851 95.7237C28.8284 93.9949 29.8485 92.8285 31.4653 92.7754C32.7153 92.7345 33.7076 93.3805 34.099 94.4944L37.7558 92.2952L37.7988 93.6074L34.311 95.6454L34.3814 97.7908Z" fill="white"/>
<path d="M37.37 85.7122L38.3734 85.8079L37.8449 91.3452L28.9072 90.4922L29.4357 84.9549L30.4391 85.0507L30.017 89.4731L32.8847 89.7468L33.2849 85.5536L34.276 85.6482L33.8758 89.8414L36.9479 90.1346L37.37 85.7122Z" fill="white"/>
<path d="M39.8771 78.8422L37.1704 79.1431L36.3669 82.623L38.6677 84.0801L38.4031 85.2259L30.3997 79.9808L30.6489 78.9017L40.1417 77.6964L39.8771 78.8422ZM31.8478 79.766L35.5135 82.0875L36.1686 79.2502L31.8562 79.7296L31.8478 79.766Z" fill="white"/>
<path d="M43.6936 68.7275L43.2976 69.6949L36.8945 67.0738L36.878 67.1141L42.1393 72.3604L41.781 73.2357L34.3512 73.2869L34.3347 73.3272L40.7378 75.9483L40.3418 76.9157L32.0327 73.5144L32.5254 72.3109L40.6321 72.2813L40.6509 72.2352L34.8919 66.5297L35.3845 65.3262L43.6936 68.7275Z" fill="white"/>
<path d="M50.7487 57.9465L50.1454 58.8002L44.4953 54.8068L44.4702 54.8424L48.4175 61.1371L47.8716 61.9094L40.6205 60.2892L40.5953 60.3248L46.2454 64.3181L45.6421 65.1717L38.3102 59.9897L39.0608 58.9278L46.9667 60.7212L46.9954 60.6805L42.6662 53.8265L43.4168 52.7645L50.7487 57.9465Z" fill="white"/>
<path d="M54.9783 52.1559L55.7026 52.8569L51.8343 56.854L45.3826 50.6102L49.2509 46.6131L49.9752 47.3141L46.8858 50.5064L48.9559 52.5098L51.8852 49.4829L52.6006 50.1752L49.6712 53.2021L51.8889 55.3483L54.9783 52.1559Z" fill="white"/>
<path d="M51.1344 44.943L53.5052 43.0886C55.5975 41.4522 57.8551 41.79 59.5909 44.0094C61.3306 46.2336 61.1196 48.5023 59.0225 50.1426L56.6516 51.9969L51.1344 44.943ZM52.6337 45.0467L56.9121 50.5168L58.3444 49.3965C59.9429 48.1462 60.0679 46.4727 58.6991 44.7227C57.3189 42.9579 55.6694 42.6723 54.066 43.9264L52.6337 45.0467Z" fill="white"/>
<path d="M64.363 46.2528L63.4128 46.8561L58.5768 39.2384L59.527 38.6352L64.363 46.2528Z" fill="white"/>
<path d="M70.9303 42.7618L68.9612 40.8804L65.7778 42.4994L66.1386 45.1989L65.0905 45.732L63.9706 36.2287L64.9578 35.7266L71.9784 42.2287L70.9303 42.7618ZM65.0653 37.2007L65.6402 41.5014L68.2357 40.1813L65.0986 37.1837L65.0653 37.2007Z" fill="white"/>
<path d="M74.5017 32.7748L74.1099 36.0167L73.1162 36.335L73.6943 32.0362L74.8249 31.6741L77.7931 34.8369L76.7994 35.1552L74.5969 32.7443L74.5017 32.7748Z" fill="white"/>
<path d="M56.7188 102.527L50.1853 101.501L60.1234 79.2484L65.2857 80.0592L68.8893 93.6953L69.0184 93.7156L74.4488 81.4982L80.9823 82.5242L71.0442 104.777L65.8819 103.966L62.2783 90.3302L62.1492 90.3099L56.7188 102.527ZM93.2738 102.723L90.9675 107.906L74.5449 105.327L84.483 83.074L100.889 85.6505L98.5671 90.8307L89.0007 89.3284L87.4018 92.939L96.3713 94.3476L94.2724 99.0348L85.3029 97.6262L83.6912 101.218L93.2738 102.723ZM114.114 97.9922L105.035 110.115L98.5658 109.099L102.487 85.9013L109.52 87.0059L106.027 101.293L106.156 101.314L115.812 87.994L121.103 88.8249L118.546 103.259L118.675 103.28L127.427 89.8181L134.461 90.9227L118.537 112.236L112.149 111.232L114.244 98.0125L114.114 97.9922Z" fill="white"/>
</g>
<defs>
<filter id="filter0_d_3333_10452" x="12.5469" y="13.4902" width="168.578" height="168.579" filterUnits="userSpaceOnUse" color-interpolation-filters="sRGB">
<feFlood flood-opacity="0" result="BackgroundImageFix"/>
<feColorMatrix in="SourceAlpha" type="matrix" values="0 0 0 0 0 0 0 0 0 0 0 0 0 0 0 0 0 0 127 0" result="hardAlpha"/>
<feOffset dx="3" dy="4"/>
<feGaussianBlur stdDeviation="5"/>
<feComposite in2="hardAlpha" operator="out"/>
<feColorMatrix type="matrix" values="0 0 0 0 0 0 0 0 0 0 0 0 0 0 0 0 0 0 0.25 0"/>
<feBlend mode="normal" in2="BackgroundImageFix" result="effect1_dropShadow_3333_10452"/>
<feBlend mode="normal" in="SourceGraphic" in2="effect1_dropShadow_3333_10452" result="shape"/>
</filter>
<linearGradient id="paint0_linear_3333_10452" x1="122.616" y1="49.4154" x2="122.313" y2="132.506" gradientUnits="userSpaceOnUse">
<stop stop-color="#005BFF"/>
<stop offset="1" stop-color="#F0CE1E"/>
</linearGradient>
<clipPath id="clip0_3333_10452">
<rect width="132.633" height="132.633" fill="white" transform="translate(64.1953 5.15527) rotate(26.4317)"/>
</clipPath>
</defs>
</svg>
