<svg width="253" height="95" viewBox="0 0 253 95" fill="none" xmlns="http://www.w3.org/2000/svg">
<rect x="0.0566406" width="252" height="95" rx="47.5" fill="#EDEDFF"/>
<circle cx="47.5566" cy="47.5" r="47.5" fill="url(#paint0_linear_101_494)"/>
<path d="M70.8812 47.1779C70.8812 34.2826 60.4275 23.829 47.5323 23.829C34.637 23.829 24.1833 34.2826 24.1833 47.1779C24.1834 60.0732 34.637 70.5268 47.5323 70.5268" stroke="#100F0F" stroke-width="4.35843"/>
<rect x="46.0885" y="18.7119" width="3.19848" height="12.1542" rx="1.59924" fill="#100F0F"/>
<rect x="52.9697" y="58.0789" width="6.82589" height="18.6568" rx="3.41295" transform="rotate(-45 52.9697 58.0789)" fill="#100F0F"/>
<rect x="46.0885" y="64.7726" width="3.19848" height="12.1542" rx="1.59924" fill="#100F0F"/>
<rect x="76.9725" y="46.0605" width="3.19848" height="12.1542" rx="1.59924" transform="rotate(90 76.9725 46.0605)" fill="#100F0F"/>
<rect x="30.9174" y="46.0605" width="3.19848" height="12.1542" rx="1.59924" transform="rotate(90 30.9174 46.0605)" fill="#100F0F"/>
<circle cx="47.5226" cy="47.1782" r="13.3739" stroke="#100F0F" stroke-width="4.35843"/>
<path d="M126.898 54.1699H133.15C133.451 56.7266 136.115 58.4023 139.553 58.4023C143.012 58.4023 145.375 56.748 145.375 54.4707C145.375 52.4512 143.893 51.334 140.154 50.4961L136.115 49.6152C130.4 48.3906 127.586 45.4902 127.586 40.957C127.586 35.2422 132.527 31.4609 139.445 31.4609C146.664 31.4609 151.197 35.1777 151.305 40.7852H145.225C145.01 38.1641 142.711 36.5742 139.467 36.5742C136.266 36.5742 134.117 38.0996 134.117 40.3984C134.117 42.3105 135.621 43.3848 139.188 44.2012L142.947 44.9961C149.156 46.3281 151.863 48.9922 151.863 53.7188C151.863 59.7344 146.986 63.5371 139.295 63.5371C131.84 63.5371 127.092 59.9922 126.898 54.1699ZM176.398 57.6289V63H155.859V31.998H176.398V37.3477H162.348V44.8242H175.604V49.8086H162.348V57.6289H176.398ZM195.068 31.4609C204.242 31.4609 210.021 37.627 210.021 47.5098C210.021 57.3711 204.242 63.5371 195.068 63.5371C185.873 63.5371 180.115 57.3711 180.115 47.5098C180.115 37.627 185.873 31.4609 195.068 31.4609ZM195.068 36.875C189.998 36.875 186.732 41 186.732 47.5098C186.732 53.998 189.977 58.1016 195.068 58.1016C200.139 58.1016 203.383 53.998 203.383 47.5098C203.383 41 200.139 36.875 195.068 36.875Z" fill="#100F0F"/>
<defs>
<linearGradient id="paint0_linear_101_494" x1="0.0436198" y1="48.0053" x2="95.0436" y2="48.0053" gradientUnits="userSpaceOnUse">
<stop stop-color="#EDEDFF"/>
<stop offset="1" stop-color="#E0F01E"/>
</linearGradient>
</defs>
</svg>
