<svg width="444" height="95" viewBox="0 0 444 95" fill="none" xmlns="http://www.w3.org/2000/svg">
<rect x="0.0566406" width="443" height="95" rx="47.5" fill="#EDEDFF"/>
<circle cx="47.5566" cy="47.5" r="47.5" fill="url(#paint0_linear_101_507)"/>
<path d="M70.7029 48.92C70.6223 47.0542 69.0312 45.75 67.1637 45.75H50.8441C48.9594 45.75 47.4316 47.2778 47.4316 49.1625C47.4316 51.0472 48.9594 52.575 50.8441 52.575H59.3451C61.6905 52.575 63.5948 54.628 62.7635 56.821C60.298 63.3251 53.7287 66.175 47.4566 66.175C37.8816 66.175 29.4816 58.625 29.4816 48C29.4816 37.75 37.4816 29.825 47.4816 29.825C51.5634 29.825 54.7518 31.2001 56.8513 32.4971C58.5413 33.541 60.8947 33.5379 62.27 32.1047C63.5173 30.8049 63.5215 28.7828 62.0654 27.7222C59.32 25.7225 54.2867 23 47.2316 23C33.0316 23 22.0566 35 22.0566 48C22.0566 60.625 32.3816 73 47.6066 73C60.9816 73 70.7316 63.825 70.7316 50.275C70.7316 49.7874 70.7208 49.3351 70.7029 48.92Z" fill="#EDEDFF"/>
<path d="M155.797 49.9805C155.797 58.4238 150.684 63.5371 142.047 63.5371C132.787 63.5371 127.115 57.4785 127.115 47.4023C127.115 37.4766 132.787 31.4609 141.896 31.4609C149.137 31.4609 154.594 35.7363 155.518 42.0098H149.008C148.062 38.7656 145.42 36.832 141.918 36.832C136.805 36.832 133.732 40.7207 133.732 47.3164C133.732 54.041 136.998 58.1445 142.154 58.1445C146.387 58.1445 149.33 55.5449 149.459 51.6992L149.48 51.2051H142.734V46.4785H155.797V49.9805ZM174.08 31.4609C183.254 31.4609 189.033 37.627 189.033 47.5098C189.033 57.3711 183.254 63.5371 174.08 63.5371C164.885 63.5371 159.127 57.3711 159.127 47.5098C159.127 37.627 164.885 31.4609 174.08 31.4609ZM174.08 36.875C169.01 36.875 165.744 41 165.744 47.5098C165.744 53.998 168.988 58.1016 174.08 58.1016C179.15 58.1016 182.395 53.998 182.395 47.5098C182.395 41 179.15 36.875 174.08 36.875ZM207.209 31.4609C216.383 31.4609 222.162 37.627 222.162 47.5098C222.162 57.3711 216.383 63.5371 207.209 63.5371C198.014 63.5371 192.256 57.3711 192.256 47.5098C192.256 37.627 198.014 31.4609 207.209 31.4609ZM207.209 36.875C202.139 36.875 198.873 41 198.873 47.5098C198.873 53.998 202.117 58.1016 207.209 58.1016C212.279 58.1016 215.523 53.998 215.523 47.5098C215.523 41 212.279 36.875 207.209 36.875ZM254.066 49.9805C254.066 58.4238 248.953 63.5371 240.316 63.5371C231.057 63.5371 225.385 57.4785 225.385 47.4023C225.385 37.4766 231.057 31.4609 240.166 31.4609C247.406 31.4609 252.863 35.7363 253.787 42.0098H247.277C246.332 38.7656 243.689 36.832 240.188 36.832C235.074 36.832 232.002 40.7207 232.002 47.3164C232.002 54.041 235.268 58.1445 240.424 58.1445C244.656 58.1445 247.6 55.5449 247.729 51.6992L247.75 51.2051H241.004V46.4785H254.066V49.9805ZM278.408 57.6289V63H258.363V31.998H264.852V57.6289H278.408ZM302.793 57.6289V63H282.254V31.998H302.793V37.3477H288.742V44.8242H301.998V49.8086H288.742V57.6289H302.793ZM336.502 63L334.139 55.4805H323.246L320.883 63H314.223L324.986 31.998H332.613L343.398 63H336.502ZM328.617 37.9277L324.643 50.625H332.742L328.768 37.9277H328.617ZM346.578 31.998H358.416C367.719 31.998 373.197 37.541 373.197 47.3809C373.197 57.2207 367.719 63 358.416 63H346.578V31.998ZM353.066 37.3477V57.6289H357.643C363.443 57.6289 366.58 54.1055 366.58 47.4023C366.58 40.9141 363.357 37.3477 357.643 37.3477H353.066ZM376.227 54.1699H382.479C382.779 56.7266 385.443 58.4023 388.881 58.4023C392.34 58.4023 394.703 56.748 394.703 54.4707C394.703 52.4512 393.221 51.334 389.482 50.4961L385.443 49.6152C379.729 48.3906 376.914 45.4902 376.914 40.957C376.914 35.2422 381.855 31.4609 388.773 31.4609C395.992 31.4609 400.525 35.1777 400.633 40.7852H394.553C394.338 38.1641 392.039 36.5742 388.795 36.5742C385.594 36.5742 383.445 38.0996 383.445 40.3984C383.445 42.3105 384.949 43.3848 388.516 44.2012L392.275 44.9961C398.484 46.3281 401.191 48.9922 401.191 53.7188C401.191 59.7344 396.314 63.5371 388.623 63.5371C381.168 63.5371 376.42 59.9922 376.227 54.1699Z" fill="#100F0F"/>
<defs>
<linearGradient id="paint0_linear_101_507" x1="0.0566406" y1="0" x2="105.707" y2="13.8693" gradientUnits="userSpaceOnUse">
<stop stop-color="#0C62FD"/>
<stop offset="1" stop-color="#1035B8"/>
</linearGradient>
</defs>
</svg>
