<svg width="70" height="73" viewBox="0 0 70 73" fill="none" xmlns="http://www.w3.org/2000/svg">
<path d="M21.9068 68.8146L21.9124 68.8114L44.1157 56.2979L60.0519 47.4622L60.0572 47.4592C62.0217 46.3638 63.6622 44.7771 64.8065 42.8535C65.9512 40.9294 66.5566 38.7394 66.5566 36.506C66.5566 34.2726 65.9511 32.0826 64.8065 30.1585C63.6627 28.2357 62.0231 26.6495 60.0597 25.5542C60.0589 25.5537 60.0581 25.5532 60.0572 25.5528L21.9111 4.19529C21.9103 4.19481 21.9094 4.19434 21.9086 4.19387C13.4308 -0.57492 2.55664 5.28829 2.55664 15.146L2.55664 57.866C2.55664 67.7288 13.4386 73.5583 21.9068 68.8146Z" stroke="url(#paint0_linear_101_513)" stroke-width="5"/>
<defs>
<linearGradient id="paint0_linear_101_513" x1="5.04855" y1="36.8351" x2="64.0486" y2="36.8351" gradientUnits="userSpaceOnUse">
<stop stop-color="#EDEDFF"/>
<stop offset="1" stop-color="#E0F01E"/>
</linearGradient>
</defs>
</svg>
