<svg width="257" height="95" viewBox="0 0 257 95" fill="none" xmlns="http://www.w3.org/2000/svg">
<rect x="0.0566406" width="256" height="95" rx="47.5" fill="#EDEDFF"/>
<circle cx="47.5566" cy="47.5" r="47.5" fill="url(#paint0_linear_101_514)"/>
<path d="M51.5032 73.4089L63.6709 73.4089C67.6828 73.4089 70.935 70.1567 70.935 66.1449L70.935 28.8548C70.935 24.843 67.6828 21.5908 63.671 21.5908L39.3354 21.5908C35.3236 21.5908 32.0714 24.843 32.0714 28.8548L32.0714 31.6665" stroke="#100F0F" stroke-width="4.35843" stroke-linecap="round"/>
<path d="M38.3733 71.4484L38.3733 71.4484L38.3469 71.5869C38.3469 71.5869 38.3469 71.5869 38.3469 71.5869C38.2273 72.2149 37.6783 72.6692 37.0391 72.6692L34.5977 72.6692L32.1256 72.6692C31.4862 72.6692 30.9349 72.2198 30.8058 71.5936C30.1423 68.3725 26.9003 66.3778 23.7259 67.2373L23.4756 67.3051C22.7764 67.4945 22.0374 67.1876 21.678 66.5586L20.4509 64.4111L19.2479 62.306L17.3558 63.3872L19.2479 62.306C18.9071 61.7095 19.0337 60.9554 19.5508 60.503C22.1927 58.1913 22.1927 54.0813 19.5508 51.7696C19.0337 51.3172 18.9071 50.5631 19.2479 49.9665L20.4509 47.8614L21.6569 45.7508C21.9856 45.1757 22.6779 44.9171 23.303 45.1359C26.6312 46.3008 30.181 44.1904 30.8322 40.7717C30.9619 40.0908 31.5602 39.6034 32.2245 39.6034L34.5977 39.6034L36.971 39.6034C37.6353 39.6034 38.2336 40.0908 38.3633 40.7717C39.0145 44.1904 42.5642 46.3008 45.8924 45.1359C46.5176 44.9171 47.2099 45.1757 47.5385 45.7508L48.7446 47.8614L49.9147 49.909C50.2747 50.539 50.1409 51.3354 49.5949 51.8132C46.9833 54.0983 46.9067 58.1356 49.4296 60.5182L49.5041 60.5886C50.0471 61.1014 50.1685 61.9192 49.798 62.5677L48.4692 64.8931L47.3915 66.7791C47.092 67.3032 46.4531 67.5278 45.8916 67.3065C42.6412 66.0252 39.027 68.0163 38.3733 71.4484Z" stroke="#100F0F" stroke-width="4.35843" stroke-linejoin="round"/>
<path d="M28.1387 56.1365C28.1387 52.5703 31.0297 49.6793 34.5959 49.6793C38.1621 49.6793 41.053 52.5703 41.053 56.1365C41.053 59.7026 38.1621 62.5936 34.5959 62.5936C31.0297 62.5936 28.1387 59.7026 28.1387 56.1365Z" stroke="#100F0F" stroke-width="4.35843"/>
<rect x="46.1117" y="25.9088" width="10.0758" height="2.87879" rx="1.43939" fill="#100F0F"/>
<path d="M134.248 31.998V51.3984C134.248 55.373 136.59 57.9727 140.758 57.9727C144.904 57.9727 147.246 55.373 147.246 51.3984V31.998H153.734V52.043C153.734 58.875 148.686 63.5371 140.758 63.5371C132.809 63.5371 127.76 58.875 127.76 52.043V31.998H134.248ZM178.57 63L176.207 55.4805H165.314L162.951 63H156.291L167.055 31.998H174.682L185.467 63H178.57ZM170.686 37.9277L166.711 50.625H174.811L170.836 37.9277H170.686ZM200.85 63.5371C191.826 63.5371 186.176 57.5 186.176 47.4883C186.176 37.498 191.869 31.4609 200.85 31.4609C208.305 31.4609 213.977 36.1875 214.471 43.127H208.154C207.553 39.3242 204.631 36.832 200.85 36.832C195.951 36.832 192.793 40.9355 192.793 47.4668C192.793 54.084 195.908 58.166 200.871 58.166C204.717 58.166 207.488 55.9102 208.176 52.2363H214.492C213.762 59.1543 208.455 63.5371 200.85 63.5371Z" fill="#100F0F"/>
<defs>
<linearGradient id="paint0_linear_101_514" x1="0.0566406" y1="0" x2="106.05" y2="14.5528" gradientUnits="userSpaceOnUse">
<stop stop-color="#00E291"/>
<stop offset="1" stop-color="#E0F01E"/>
</linearGradient>
</defs>
</svg>
