<svg width="257" height="95" viewBox="0 0 257 95" fill="none" xmlns="http://www.w3.org/2000/svg">
<rect x="0.5" width="256" height="95" rx="47.5" fill="#EDEDFF"/>
<circle cx="48" cy="47.5" r="47.5" fill="url(#paint0_linear_101_527)"/>
<path d="M45.8465 23.0309H33.6787C29.6669 23.0309 26.4147 26.2831 26.4147 30.2949V67.585C26.4147 71.5968 29.6669 74.8491 33.6787 74.8491H58.0143C62.0261 74.8491 65.2783 71.5968 65.2783 67.585V48.94" stroke="#100F0F" stroke-width="4.35843" stroke-linecap="round"/>
<circle cx="46.5627" cy="64.7733" r="2.8922" fill="#100F0F" stroke="#100F0F" stroke-width="2.90562"/>
<path d="M24.4362 63.8605C23.9318 64.9532 24.4088 66.248 25.5016 66.7523C26.5943 67.2567 27.8891 66.7797 28.3934 65.6869L24.4362 63.8605ZM39.3693 36.7055L40.619 34.9202C40.0901 34.55 39.4243 34.4333 38.801 34.6017C38.1778 34.77 37.6612 35.2061 37.3907 35.7923L39.3693 36.7055ZM53.7633 46.7812L52.5136 48.5665C53.404 49.1898 54.6176 49.0617 55.3582 48.2662L53.7633 46.7812ZM75.3729 25.8323C75.33 24.6295 74.3201 23.6892 73.1173 23.7322L53.5169 24.4322C52.3141 24.4752 51.3739 25.485 51.4168 26.6878C51.4598 27.8906 52.4696 28.8308 53.6724 28.7879L71.0951 28.1656L71.7173 45.5883C71.7602 46.791 72.7701 47.7313 73.9729 47.6883C75.1757 47.6454 76.1159 46.6355 76.0729 45.4327L75.3729 25.8323ZM28.3934 65.6869L41.348 37.6187L37.3907 35.7923L24.4362 63.8605L28.3934 65.6869ZM38.1196 38.4908L52.5136 48.5665L55.013 44.996L40.619 34.9202L38.1196 38.4908ZM55.3582 48.2662L74.7901 27.395L71.6001 24.4251L52.1683 45.2963L55.3582 48.2662Z" fill="#100F0F"/>
<path d="M148.549 63L146.186 55.4805H135.293L132.93 63H126.27L137.033 31.998H144.66L155.445 63H148.549ZM140.664 37.9277L136.689 50.625H144.789L140.814 37.9277H140.664ZM156.82 54.1699H163.072C163.373 56.7266 166.037 58.4023 169.475 58.4023C172.934 58.4023 175.297 56.748 175.297 54.4707C175.297 52.4512 173.814 51.334 170.076 50.4961L166.037 49.6152C160.322 48.3906 157.508 45.4902 157.508 40.957C157.508 35.2422 162.449 31.4609 169.367 31.4609C176.586 31.4609 181.119 35.1777 181.227 40.7852H175.146C174.932 38.1641 172.633 36.5742 169.389 36.5742C166.188 36.5742 164.039 38.0996 164.039 40.3984C164.039 42.3105 165.543 43.3848 169.109 44.2012L172.869 44.9961C179.078 46.3281 181.785 48.9922 181.785 53.7188C181.785 59.7344 176.908 63.5371 169.217 63.5371C161.762 63.5371 157.014 59.9922 156.82 54.1699ZM199.768 31.4609C208.941 31.4609 214.721 37.627 214.721 47.5098C214.721 57.3711 208.941 63.5371 199.768 63.5371C190.572 63.5371 184.814 57.3711 184.814 47.5098C184.814 37.627 190.572 31.4609 199.768 31.4609ZM199.768 36.875C194.697 36.875 191.432 41 191.432 47.5098C191.432 53.998 194.676 58.1016 199.768 58.1016C204.838 58.1016 208.082 53.998 208.082 47.5098C208.082 41 204.838 36.875 199.768 36.875Z" fill="#100F0F"/>
<defs>
<linearGradient id="paint0_linear_101_527" x1="0.486979" y1="48.0053" x2="95.487" y2="48.0053" gradientUnits="userSpaceOnUse">
<stop stop-color="#EDEDFF"/>
<stop offset="1" stop-color="#E0F01E"/>
</linearGradient>
</defs>
</svg>
