<svg width="69" height="69" viewBox="0 0 69 69" fill="none" xmlns="http://www.w3.org/2000/svg">
<path d="M32.6499 36.552C30.0754 33.9776 25.9014 33.9776 23.3269 36.552L4.67307 55.2058C2.09858 57.7803 2.09859 61.9544 4.67307 64.5289C7.24755 67.1033 11.4216 67.1033 13.9961 64.5289L32.6499 45.875C35.2244 43.3006 35.2244 39.1265 32.6499 36.552ZM4.52835 4.62195L5.87363 5.96723L4.52835 4.62195C1.95387 7.19643 1.95387 11.3705 4.52835 13.945L23.1822 32.5988C25.7566 35.1733 29.9307 35.1733 32.5052 32.5988C35.0797 30.0243 35.0797 25.8502 32.5052 23.2758L13.8514 4.62195C11.2769 2.04747 7.10283 2.04747 4.52835 4.62195ZM64.4449 4.47122C61.8705 1.89674 57.6964 1.89674 55.1219 4.47123L36.4681 23.125C33.8936 25.6995 33.8936 29.8736 36.4681 32.4481C39.0426 35.0225 43.2166 35.0225 45.7911 32.4481L64.4449 13.7942C67.0194 11.2198 67.0194 7.0457 64.4449 4.47122ZM64.585 64.3812C67.1595 61.8067 67.1595 57.6326 64.585 55.0581L45.9312 36.4043C43.3567 33.8298 39.1827 33.8298 36.6082 36.4043C34.0337 38.9788 34.0337 43.1529 36.6082 45.7273L55.262 64.3812C57.8365 66.9556 62.0105 66.9556 64.585 64.3812Z" stroke="url(#paint0_radial_101_535)" stroke-width="3.80501"/>
<defs>
<radialGradient id="paint0_radial_101_535" cx="0" cy="0" r="1" gradientUnits="userSpaceOnUse" gradientTransform="translate(34.5567 34.5) rotate(89.4596) scale(47.002 47.0013)">
<stop stop-color="#EDEDFF"/>
<stop offset="1" stop-color="#E0F01E"/>
</radialGradient>
</defs>
</svg>
