<svg width="701" height="95" viewBox="0 0 701 95" fill="none" xmlns="http://www.w3.org/2000/svg">
<rect x="0.613342" width="700" height="95" rx="47.5" fill="#EDEDFF"/>
<circle cx="48.1133" cy="47.5" r="47.5" fill="url(#paint0_linear_101_536)"/>
<circle cx="66.8239" cy="31.6667" r="2.8922" fill="#EDEDFF" stroke="#EDEDFF" stroke-width="2.90562"/>
<path d="M74.0228 46.7803L74.0228 58.9481C74.0228 62.9599 70.7705 66.2122 66.7587 66.2122L29.4686 66.2122C25.4568 66.2122 22.2046 62.9599 22.2046 58.9481L22.2046 34.6126C22.2046 30.6008 25.4568 27.3485 29.4686 27.3485L48.1137 27.3485" stroke="#EDEDFF" stroke-width="4.35843" stroke-linecap="round"/>
<path d="M52.0787 50.1189L58.5957 52.8273C58.8094 52.915 59.0414 52.949 59.2713 52.9262C59.5012 52.9033 59.722 52.8243 59.9142 52.6962C60.1065 52.568 60.2643 52.3946 60.3738 52.1912C60.4833 51.9877 60.5412 51.7605 60.5424 51.5295V40.2446C60.5412 40.0136 60.4833 39.7864 60.3738 39.583C60.2643 39.3795 60.1065 39.2061 59.9142 39.078C59.722 38.9498 59.5012 38.8708 59.2713 38.848C59.0414 38.8251 58.8094 38.8591 58.5957 38.9469L52.0787 41.6553V50.1189Z" stroke="#EDEDFF" stroke-width="3.66108" stroke-linecap="round" stroke-linejoin="round"/>
<path d="M50.6674 37.4243H36.5614C35.7823 37.4243 35.1508 38.0559 35.1508 38.8349V52.941C35.1508 53.72 35.7823 54.3516 36.5614 54.3516H50.6674C51.4465 54.3516 52.078 53.72 52.078 52.941V38.8349C52.078 38.0559 51.4465 37.4243 50.6674 37.4243Z" stroke="#EDEDFF" stroke-width="3.66108" stroke-linecap="round" stroke-linejoin="round"/>
<path d="M127.18 54.1699H133.432C133.732 56.7266 136.397 58.4023 139.834 58.4023C143.293 58.4023 145.656 56.748 145.656 54.4707C145.656 52.4512 144.174 51.334 140.436 50.4961L136.397 49.6152C130.682 48.3906 127.867 45.4902 127.867 40.957C127.867 35.2422 132.809 31.4609 139.727 31.4609C146.945 31.4609 151.479 35.1777 151.586 40.7852H145.506C145.291 38.1641 142.992 36.5742 139.748 36.5742C136.547 36.5742 134.398 38.0996 134.398 40.3984C134.398 42.3105 135.902 43.3848 139.469 44.2012L143.229 44.9961C149.438 46.3281 152.145 48.9922 152.145 53.7188C152.145 59.7344 147.268 63.5371 139.576 63.5371C132.121 63.5371 127.373 59.9922 127.18 54.1699ZM170.041 63H163.553V37.3477H154.594V31.998H179.022V37.3477H170.041V63ZM189.098 37.0684V46.9512H194.684C197.949 46.9512 199.861 45.082 199.861 42.0098C199.861 39.002 197.842 37.0684 194.619 37.0684H189.098ZM189.098 51.6562V63H182.609V31.998H195.307C202.44 31.998 206.522 35.7578 206.522 41.8809C206.522 45.8555 204.459 49.293 200.893 50.6895L207.424 63H200.076L194.297 51.6562H189.098ZM231.336 57.6289V63H210.797V31.998H231.336V37.3477H217.285V44.8242H230.541V49.8086H217.285V57.6289H231.336ZM256.322 63L253.959 55.4805H243.066L240.703 63H234.043L244.807 31.998H252.434L263.219 63H256.322ZM248.438 37.9277L244.463 50.625H252.563L248.588 37.9277H248.438ZM299.227 63H293.447V42.0742H293.275L284.854 62.6992H280.772L272.35 42.0742H272.178V63H266.398V31.998H273.918L282.727 53.9766H282.898L291.707 31.998H299.227V63ZM324.922 57.6289V63H304.383V31.998H324.922V37.3477H310.871V44.8242H324.127V49.8086H310.871V57.6289H324.922ZM336.094 37.0684V46.9512H341.68C344.945 46.9512 346.857 45.082 346.857 42.0098C346.857 39.002 344.838 37.0684 341.615 37.0684H336.094ZM336.094 51.6562V63H329.606V31.998H342.303C349.436 31.998 353.518 35.7578 353.518 41.8809C353.518 45.8555 351.455 49.293 347.889 50.6895L354.42 63H347.072L341.293 51.6562H336.094ZM356.633 54.1699H362.885C363.186 56.7266 365.85 58.4023 369.287 58.4023C372.746 58.4023 375.109 56.748 375.109 54.4707C375.109 52.4512 373.627 51.334 369.889 50.4961L365.85 49.6152C360.135 48.3906 357.32 45.4902 357.32 40.957C357.32 35.2422 362.262 31.4609 369.18 31.4609C376.398 31.4609 380.932 35.1777 381.039 40.7852H374.959C374.744 38.1641 372.445 36.5742 369.201 36.5742C366 36.5742 363.852 38.0996 363.852 40.3984C363.852 42.3105 365.356 43.3848 368.922 44.2012L372.682 44.9961C378.891 46.3281 381.598 48.9922 381.598 53.7188C381.598 59.7344 376.721 63.5371 369.029 63.5371C361.574 63.5371 356.826 59.9922 356.633 54.1699ZM415.994 63L413.609 60.4219C411.311 62.3984 407.766 63.5586 404.006 63.5586C397.432 63.5586 393.199 60.1426 393.199 54.8789C393.199 51.3555 394.982 48.7988 398.936 46.6289C399.258 46.457 400.246 45.9199 400.332 45.877C397.539 42.998 396.486 41.0645 396.486 38.7871C396.486 34.6406 400.225 31.5898 405.273 31.5898C410.344 31.5898 413.91 34.5117 413.91 38.6797C413.91 41.8594 411.934 44.3945 407.637 46.7363L413.523 53.0957C414.275 51.7637 414.641 49.8945 414.641 47.2305V45.5977H419.861V47.5957C419.861 51.377 418.916 54.6426 417.24 56.9629L423.02 63H415.994ZM402.352 49.6152C400.01 51.0977 399.065 52.4727 399.065 54.3848C399.065 57.1562 401.32 59.0039 404.65 59.0039C406.885 59.0039 409.119 58.166 410.322 56.8555L403.211 49.1641C402.975 49.2715 402.545 49.5078 402.352 49.6152ZM404.736 43.8145C407.551 42.3535 408.69 40.9785 408.69 39.1094C408.69 37.1328 407.315 35.7578 405.295 35.7578C403.297 35.7578 401.857 37.1758 401.857 39.1094C401.857 40.5488 402.631 41.7734 404.736 43.8145ZM447.662 63H433.934V31.998H447.426C453.248 31.998 456.9 34.9844 456.9 39.7324C456.9 43.127 454.365 45.9629 451.078 46.457V46.6289C455.289 46.9512 458.383 50.0234 458.383 54.127C458.383 59.584 454.279 63 447.662 63ZM440.422 36.832V44.8887H445.084C448.543 44.8887 450.52 43.3633 450.52 40.7422C450.52 38.25 448.779 36.832 445.75 36.832H440.422ZM440.422 58.166H446.008C449.746 58.166 451.766 56.5762 451.766 53.6113C451.766 50.7109 449.682 49.1641 445.857 49.1641H440.422V58.166ZM482.123 57.6289V63H462.078V31.998H468.566V57.6289H482.123ZM498.666 31.4609C507.84 31.4609 513.619 37.627 513.619 47.5098C513.619 57.3711 507.84 63.5371 498.666 63.5371C489.471 63.5371 483.713 57.3711 483.713 47.5098C483.713 37.627 489.471 31.4609 498.666 31.4609ZM498.666 36.875C493.596 36.875 490.33 41 490.33 47.5098C490.33 53.998 493.574 58.1016 498.666 58.1016C503.736 58.1016 506.981 53.998 506.981 47.5098C506.981 41 503.736 36.875 498.666 36.875ZM545.523 49.9805C545.523 58.4238 540.41 63.5371 531.773 63.5371C522.514 63.5371 516.842 57.4785 516.842 47.4023C516.842 37.4766 522.514 31.4609 531.623 31.4609C538.863 31.4609 544.32 35.7363 545.244 42.0098H538.734C537.789 38.7656 535.147 36.832 531.645 36.832C526.531 36.832 523.459 40.7207 523.459 47.3164C523.459 54.041 526.725 58.1445 531.881 58.1445C536.113 58.1445 539.057 55.5449 539.186 51.6992L539.207 51.2051H532.461V46.4785H545.523V49.9805ZM577.535 49.9805C577.535 58.4238 572.422 63.5371 563.785 63.5371C554.525 63.5371 548.854 57.4785 548.854 47.4023C548.854 37.4766 554.525 31.4609 563.635 31.4609C570.875 31.4609 576.332 35.7363 577.256 42.0098H570.746C569.801 38.7656 567.158 36.832 563.656 36.832C558.543 36.832 555.471 40.7207 555.471 47.3164C555.471 54.041 558.736 58.1445 563.893 58.1445C568.125 58.1445 571.068 55.5449 571.197 51.6992L571.219 51.2051H564.473V46.4785H577.535V49.9805ZM602.371 57.6289V63H581.832V31.998H602.371V37.3477H588.32V44.8242H601.576V49.8086H588.32V57.6289H602.371ZM613.543 37.0684V46.9512H619.129C622.395 46.9512 624.307 45.082 624.307 42.0098C624.307 39.002 622.287 37.0684 619.065 37.0684H613.543ZM613.543 51.6562V63H607.055V31.998H619.752C626.885 31.998 630.967 35.7578 630.967 41.8809C630.967 45.8555 628.904 49.293 625.338 50.6895L631.869 63H624.522L618.742 51.6562H613.543ZM634.082 54.1699H640.334C640.635 56.7266 643.299 58.4023 646.736 58.4023C650.195 58.4023 652.559 56.748 652.559 54.4707C652.559 52.4512 651.076 51.334 647.338 50.4961L643.299 49.6152C637.584 48.3906 634.77 45.4902 634.77 40.957C634.77 35.2422 639.711 31.4609 646.629 31.4609C653.848 31.4609 658.381 35.1777 658.488 40.7852H652.408C652.193 38.1641 649.895 36.5742 646.65 36.5742C643.449 36.5742 641.301 38.0996 641.301 40.3984C641.301 42.3105 642.805 43.3848 646.371 44.2012L650.131 44.9961C656.34 46.3281 659.047 48.9922 659.047 53.7188C659.047 59.7344 654.17 63.5371 646.479 63.5371C639.023 63.5371 634.275 59.9922 634.082 54.1699Z" fill="#100F0F"/>
<defs>
<linearGradient id="paint0_linear_101_536" x1="0.613342" y1="0" x2="106.264" y2="13.8693" gradientUnits="userSpaceOnUse">
<stop stop-color="#0C62FD"/>
<stop offset="1" stop-color="#1035B8"/>
</linearGradient>
</defs>
</svg>
