<svg width="396" height="95" viewBox="0 0 396 95" fill="none" xmlns="http://www.w3.org/2000/svg">
<rect width="396" height="95" rx="47.5" fill="#EDEDFF"/>
<circle cx="47.5" cy="47.5" r="47.5" fill="url(#paint0_linear_101_550)"/>
<path d="M47.5 76C63.2402 76 76 63.2402 76 47.5C76 31.7599 63.2402 19 47.5 19C31.7599 19 19 31.7599 19 47.5C19 63.2402 31.7599 76 47.5 76ZM47.5 76V54.7647M47.5 54.7647V45.2647C47.5 39.0072 51.7867 35.8791 58.5833 36.349M47.5 54.7647H57M47.5 54.7647H38" stroke="#EDEDFF" stroke-width="5" stroke-linecap="round" stroke-linejoin="round"/>
<path d="M134.088 63H127.6V31.998H147.902V37.3477H134.088V45.6621H146.699V50.7969H134.088V63ZM169.902 63L167.539 55.4805H156.646L154.283 63H147.623L158.387 31.998H166.014L176.799 63H169.902ZM162.018 37.9277L158.043 50.625H166.143L162.168 37.9277H162.018ZM192.182 63.5371C183.158 63.5371 177.508 57.5 177.508 47.4883C177.508 37.498 183.201 31.4609 192.182 31.4609C199.637 31.4609 205.309 36.1875 205.803 43.127H199.486C198.885 39.3242 195.963 36.832 192.182 36.832C187.283 36.832 184.125 40.9355 184.125 47.4668C184.125 54.084 187.24 58.166 192.203 58.166C196.049 58.166 198.82 55.9102 199.508 52.2363H205.824C205.094 59.1543 199.787 63.5371 192.182 63.5371ZM230.381 57.6289V63H209.842V31.998H230.381V37.3477H216.33V44.8242H229.586V49.8086H216.33V57.6289H230.381ZM248.793 63H235.064V31.998H248.557C254.379 31.998 258.031 34.9844 258.031 39.7324C258.031 43.127 255.496 45.9629 252.209 46.457V46.6289C256.42 46.9512 259.514 50.0234 259.514 54.127C259.514 59.584 255.41 63 248.793 63ZM241.553 36.832V44.8887H246.215C249.674 44.8887 251.65 43.3633 251.65 40.7422C251.65 38.25 249.91 36.832 246.881 36.832H241.553ZM241.553 58.166H247.139C250.877 58.166 252.896 56.5762 252.896 53.6113C252.896 50.7109 250.812 49.1641 246.988 49.1641H241.553V58.166ZM277.195 31.4609C286.369 31.4609 292.148 37.627 292.148 47.5098C292.148 57.3711 286.369 63.5371 277.195 63.5371C268 63.5371 262.242 57.3711 262.242 47.5098C262.242 37.627 268 31.4609 277.195 31.4609ZM277.195 36.875C272.125 36.875 268.859 41 268.859 47.5098C268.859 53.998 272.104 58.1016 277.195 58.1016C282.266 58.1016 285.51 53.998 285.51 47.5098C285.51 41 282.266 36.875 277.195 36.875ZM310.324 31.4609C319.498 31.4609 325.277 37.627 325.277 47.5098C325.277 57.3711 319.498 63.5371 310.324 63.5371C301.129 63.5371 295.371 57.3711 295.371 47.5098C295.371 37.627 301.129 31.4609 310.324 31.4609ZM310.324 36.875C305.254 36.875 301.988 41 301.988 47.5098C301.988 53.998 305.232 58.1016 310.324 58.1016C315.395 58.1016 318.639 53.998 318.639 47.5098C318.639 41 315.395 36.875 310.324 36.875ZM335.955 63H329.467V31.998H335.955V46.1348H336.148L347.793 31.998H355.012L343.539 45.748L355.807 63H348.051L338.855 50.0449L335.955 53.5254V63Z" fill="#100F0F"/>
<defs>
<linearGradient id="paint0_linear_101_550" x1="0" y1="0" x2="105.65" y2="13.8693" gradientUnits="userSpaceOnUse">
<stop stop-color="#0C62FD"/>
<stop offset="1" stop-color="#1035B8"/>
</linearGradient>
</defs>
</svg>
