<svg width="69" height="73" viewBox="0 0 69 73" fill="none" xmlns="http://www.w3.org/2000/svg">
<path d="M21.8501 68.8146L21.8558 68.8114L44.0591 56.2979L59.9953 47.4622L60.0006 47.4592C61.965 46.3638 63.6056 44.7771 64.7499 42.8535C65.8945 40.9294 66.5 38.7394 66.5 36.506C66.5 34.2726 65.8945 32.0826 64.7499 30.1585C63.6061 28.2357 61.9664 26.6495 60.0031 25.5542C60.0023 25.5537 60.0014 25.5532 60.0006 25.5528L21.8545 4.19529C21.8536 4.19481 21.8528 4.19434 21.852 4.19387C13.3742 -0.57492 2.5 5.28829 2.5 15.146L2.5 57.866C2.5 67.7288 13.3819 73.5583 21.8501 68.8146Z" stroke="url(#paint0_linear_101_556)" stroke-width="5"/>
<defs>
<linearGradient id="paint0_linear_101_556" x1="5" y1="5" x2="70.9774" y2="13.4835" gradientUnits="userSpaceOnUse">
<stop stop-color="#00E291"/>
<stop offset="1" stop-color="#E0F01E"/>
</linearGradient>
</defs>
</svg>
