<svg width="284" height="95" viewBox="0 0 284 95" fill="none" xmlns="http://www.w3.org/2000/svg">
<rect width="284" height="95" rx="47.5" fill="#EDEDFF"/>
<circle cx="47.5" cy="47.5" r="47.5" fill="url(#paint0_linear_101_557)"/>
<path d="M46.7861 21.5913H34.6183C30.6065 21.5913 27.3542 24.8435 27.3542 28.8554V66.1454C27.3542 70.1573 30.6065 73.4095 34.6183 73.4095H58.9538C62.9657 73.4095 66.2179 70.1573 66.2179 66.1454V47.5004" stroke="#100F0F" stroke-width="4.35843" stroke-linecap="round"/>
<path d="M71.9119 22.3308C74.7201 22.3308 76.9967 24.6074 76.9967 27.4157L76.9967 35.9179C76.9967 38.7261 74.7201 41.0027 71.9118 41.0027L61.8769 41.0027C59.4933 41.0027 57.1979 41.9041 55.4512 43.526L52.3485 46.4071C51.8837 46.8387 51.1278 46.509 51.1278 45.8748L51.1278 31.6668L51.1278 27.4157C51.1278 24.6074 53.4044 22.3308 56.2127 22.3308L71.9119 22.3308Z" stroke="#100F0F" stroke-width="4.35843" stroke-linejoin="round"/>
<circle cx="47.5021" cy="63.3333" r="2.8922" fill="#100F0F" stroke="#100F0F" stroke-width="2.90562"/>
<path d="M127.953 31.998H140.564C146.924 31.998 151.307 36.2305 151.307 42.6113C151.307 48.9707 146.773 53.2246 140.242 53.2246H134.441V63H127.953V31.998ZM134.441 37.1328V48.1543H138.824C142.541 48.1543 144.711 46.1777 144.711 42.6328C144.711 39.1094 142.562 37.1328 138.846 37.1328H134.441ZM161.641 31.998V51.3984C161.641 55.373 163.982 57.9727 168.15 57.9727C172.297 57.9727 174.639 55.373 174.639 51.3984V31.998H181.127V52.043C181.127 58.875 176.078 63.5371 168.15 63.5371C160.201 63.5371 155.152 58.875 155.152 52.043V31.998H161.641ZM185.145 54.1699H191.396C191.697 56.7266 194.361 58.4023 197.799 58.4023C201.258 58.4023 203.621 56.748 203.621 54.4707C203.621 52.4512 202.139 51.334 198.4 50.4961L194.361 49.6152C188.646 48.3906 185.832 45.4902 185.832 40.957C185.832 35.2422 190.773 31.4609 197.691 31.4609C204.91 31.4609 209.443 35.1777 209.551 40.7852H203.471C203.256 38.1641 200.957 36.5742 197.713 36.5742C194.512 36.5742 192.363 38.0996 192.363 40.3984C192.363 42.3105 193.867 43.3848 197.434 44.2012L201.193 44.9961C207.402 46.3281 210.109 48.9922 210.109 53.7188C210.109 59.7344 205.232 63.5371 197.541 63.5371C190.086 63.5371 185.338 59.9922 185.145 54.1699ZM241.047 63H234.559V49.9375H220.594V63H214.105V31.998H220.594V44.5879H234.559V31.998H241.047V63Z" fill="#100F0F"/>
<defs>
<linearGradient id="paint0_linear_101_557" x1="0" y1="0" x2="105.993" y2="14.5528" gradientUnits="userSpaceOnUse">
<stop stop-color="#00E291"/>
<stop offset="1" stop-color="#E0F01E"/>
</linearGradient>
</defs>
</svg>
