<svg width="68" height="69" viewBox="0 0 68 69" fill="none" xmlns="http://www.w3.org/2000/svg">
<path d="M32.1499 36.552C29.5754 33.9776 25.4014 33.9776 22.8269 36.552L4.17307 55.2058C1.59858 57.7803 1.59859 61.9544 4.17307 64.5289C6.74755 67.1033 10.9216 67.1033 13.4961 64.5289L32.1499 45.875C34.7244 43.3006 34.7244 39.1265 32.1499 36.552ZM4.02835 4.62195L5.37363 5.96723L4.02835 4.62195C1.45387 7.19643 1.45387 11.3705 4.02835 13.945L22.6822 32.5988C25.2566 35.1733 29.4307 35.1733 32.0052 32.5988C34.5797 30.0243 34.5797 25.8502 32.0052 23.2758L13.3514 4.62195C10.7769 2.04747 6.60283 2.04747 4.02835 4.62195ZM63.9449 4.47122C61.3705 1.89674 57.1964 1.89674 54.6219 4.47123L35.9681 23.125C33.3936 25.6995 33.3936 29.8736 35.9681 32.4481C38.5426 35.0225 42.7166 35.0225 45.2911 32.4481L63.9449 13.7942C66.5194 11.2198 66.5194 7.0457 63.9449 4.47122ZM64.085 64.3812C66.6595 61.8067 66.6595 57.6326 64.085 55.0581L45.4312 36.4043C42.8567 33.8298 38.6827 33.8298 36.1082 36.4043C33.5337 38.9788 33.5337 43.1529 36.1082 45.7273L54.762 64.3812C57.3365 66.9556 61.5105 66.9556 64.085 64.3812Z" stroke="url(#paint0_radial_101_565)" stroke-width="3.80501"/>
<defs>
<radialGradient id="paint0_radial_101_565" cx="0" cy="0" r="1" gradientUnits="userSpaceOnUse" gradientTransform="translate(34 35) rotate(44.466) scale(42.1953 181.811)">
<stop stop-color="#1035B8"/>
<stop offset="1" stop-color="#0C62FD"/>
</radialGradient>
</defs>
</svg>
