<svg width="296" height="95" viewBox="0 0 296 95" fill="none" xmlns="http://www.w3.org/2000/svg">
<rect x="0.113403" width="295" height="95" rx="47.5" fill="#EDEDFF"/>
<circle cx="47.6134" cy="47.5" r="47.5" fill="url(#paint0_linear_101_566)"/>
<path fill-rule="evenodd" clip-rule="evenodd" d="M29.6658 28.7878C27.4884 28.7878 25.5851 29.88 24.4156 31.5062C23.6159 32.6182 23.1487 33.9898 23.1487 35.4601V59.356C23.1487 62.9606 25.9874 66.0283 29.6658 66.0283H51.5446C52.83 66.0283 53.8721 64.9863 53.8721 63.7008C53.8721 62.4153 52.83 61.3733 51.5446 61.3733H29.6658C28.7165 61.3733 27.8037 60.5507 27.8037 59.356V37.9761L41.2557 52.7838C44.0263 55.8335 48.8216 55.8335 51.5923 52.7838L65.0442 37.9761V47.7183C65.0442 49.0038 66.0863 50.0459 67.3718 50.0459C68.6573 50.0459 69.6993 49.0038 69.6993 47.7183V35.4601C69.6993 33.9899 69.2322 32.6182 68.4324 31.5062C67.2628 29.88 65.3596 28.7878 63.1822 28.7878H29.6658ZM44.7012 49.6535L29.9746 33.4429H62.8733L48.1468 49.6535C47.2233 50.6701 45.6248 50.6701 44.7012 49.6535ZM69.6993 55.5544C69.6993 54.2689 68.6573 53.2269 67.3718 53.2269C66.0863 53.2269 65.0442 54.2689 65.0442 55.5544V61.3733H59.2254C57.9399 61.3733 56.8979 62.4153 56.8979 63.7008C56.8979 64.9863 57.9399 66.0283 59.2254 66.0283H65.0442V71.8472C65.0442 73.1327 66.0863 74.1747 67.3718 74.1747C68.6573 74.1747 69.6993 73.1327 69.6993 71.8472V66.0283H75.5181C76.8036 66.0283 77.8456 64.9863 77.8456 63.7008C77.8456 62.4153 76.8036 61.3733 75.5181 61.3733H69.6993V55.5544Z" fill="#100F0F"/>
<path d="M148.67 57.6289V63H128.131V31.998H148.67V37.3477H134.619V44.8242H147.875V49.8086H134.619V57.6289H148.67ZM186.182 63H180.402V42.0742H180.231L171.809 62.6992H167.727L159.305 42.0742H159.133V63H153.354V31.998H160.873L169.682 53.9766H169.854L178.662 31.998H186.182V63ZM211.641 63L209.277 55.4805H198.385L196.022 63H189.361L200.125 31.998H207.752L218.537 63H211.641ZM203.756 37.9277L199.781 50.625H207.881L203.906 37.9277H203.756ZM228.205 63H221.717V31.998H228.205V63ZM253.406 57.6289V63H233.361V31.998H239.85V57.6289H253.406Z" fill="#100F0F"/>
<defs>
<linearGradient id="paint0_linear_101_566" x1="0.100382" y1="48.0053" x2="95.1004" y2="48.0053" gradientUnits="userSpaceOnUse">
<stop stop-color="#EDEDFF"/>
<stop offset="1" stop-color="#E0F01E"/>
</linearGradient>
</defs>
</svg>
